/* XPM */
static char *_652019019362[] = {
/* columns rows colors chars-per-pixel */
"125 92 8 1 ",
"  c #0C2535",
". c #2A3034",
"X c #5B2E4A",
"o c #89362E",
"O c #D0515D",
"+ c #E99766",
"@ c #FECEC7",
"# c None",
/* pixels */
"###############################################                      ###           ##########################################",
"############################################                              ##         ########################################",
"##########################################                                    ##       ######################################",
"########################################               . .    . . .......                ####################################",
"##############################    ####             .......XX...............       ###     ###################################",
"#############################     ##            ........XX.........................  ###  ###################################",
"###########################     ##            ............XX..........XX...........   #######################################",
"##########################     #            ...........XXXXXXX..........XX...........  ######################################",
"#########################                 ...XXXXXXoooooooooooooXX.......XXXXX......... #####################################",
"########################                ...oXXXXXoooooooooooooooooooX......X..X......... ####################################",
"########################               ...oXXXoOOOOOOOOoooooooooXXXXXXXX....X..X.......... ####    ##########################",
"########################  #           ...oXXoOOOOOooXXXXXXXXXXXXooooooXXXX..X.............. ###      ########################",
"##########################          ....oXXoOooooXXXXXooooooXXXXXXooooooooXXXX.....XX....... ##       #######################",
"#########################      .   ....ooXoooooXXXoooooooOOOOOOOOOoXXoooOOOooo.......XX...... ##       ######################",
"#########################    .. . .....oXooooXXooOOOOOOOOOOOOOOOOOOOoooXXoooOOOo.XXXX... ....   #       #####################",
"#####################  #    ....  ....ooXOooXoOOOOOOOOOOOOOOOOOooooooOOOooooooOOOoXXXXX... .     #      #####################",
"####################       ..... .....ooOoooOOOoooXXXXXXXXXoooooooooooooOOoooooooOoXXXXXX..              ####################",
"####################..    ..... XXXX.oooOooOOooOOOOOooooXXXXXXXXoXXXooooooooooooooooXXXXXX..   .         ####################",
"###################...   ......XXXXX.ooOooOoOO+++OOOOOOoooooooooooooXXXooOOOOooooooooXXXXXX..   .    ##  ####################",
"################## ..   ......XXXXX.XooOoooOO++@@@@++OOOOoooooooooooooooOOOO+++OooooooXXXXXX.. . .... #######################",
"################# ##   .......XXXX..ooooooOO+@@@@@@@++OOOOOooooooooooooooOOO+++++ooooooXXXXXX.. ...... ######################",
"###################    .......XXX..XoooooOO+@@@@@@@@++OOOooooOOoooooooooOOOOOO++++XoooooXXXXX.. ....... #####################",
"##################     ..... .XXX.oXooXoOO+@@@@@@@@+OXXXXXXXXXoooOOoooooOOOOOOO+++OXoooooXXX............ ####################",
"##################  ... ..  ......oXoXoOO++@@@@@@@OXXXXXXXXXXXXXXXoOOooooooOOOOO++OoXXooooXX............ ####################",
"#################   ....    .....oXoXooO++@@++@@@OXXXXXXXXXXXXXXXXXXoooooOOooOOOOOOOXXXoooX.............  ###################",
"############   #   .....   .....XoXoXoO+++@+++++OXXXXXXXXXXXXXXXXXXXXXoooOOOoooOOOOOoXXoooo....... ......  ##################",
"###########    #  .....    ....XoXoXXOO++@+++++OoXXXXXXXXXXXXXXXXXXXXXXXooOOOooooooooXXooooXX...... .....  ##################",
"###########        ....   ....XXoXoXXO+++@+++O+OXXXXXXXXXXooooooooXXXXXXXXoOOOooooooooXoooooXX.X... ......  #  ##############",
"##########    #   .....   ....XXoXoXoO++@+++O+OoXXXXXoOOoo        oooXXXXXXoOOOoOOooooXooXooXX..X... .....  #   #############",
"##########   #    ....   ....XXXoXoXo+++@++++OOoXXooOOo              ooXXXXXOOOOOOOooooooXooX...X...  ....   #  #############",
"#########    #    ....   ....XXXoXoXO++++++++Oooooooo                  ooXXXoOOOoOOOoOooooXoX....X... .....  #   ############",
"#########          ..   ...XXXXXooooO++++++++Oooooo                      oXXXOOOOoOOOoOoooXoX....X... .....   #  ############",
"#########   #     .     ..XXXXooXXoo++@++++++Ooooo                        OXXoOOOoOOOoOoooXXXX...XX... ....   #  ############",
"#########   #      ..   .XXoooXXoOOO+@++++++OOooo                          OXXOOOooOOOoOooXXXX...XX... ....   #  ############",
"#########   #     .     .XXXXXooOOO++@O++++OOOoo                            OXoOOooOOOoOooXXoXX...XX..  .. .  #  ############",
"#########              .XXXoooooOOO++OOO++OOOOo                              ooOOOoOOOOOOooXoXX...XX..    .      ############",
"#########  #           XXoooooooOOOOOOOO+OoOOo                                ooOOooOOOOOooXoXX....X...        ##############",
"############          XoooooooOOOOOOOOO+OooOOo                                ooOOooOOOoOooooXXX...X...        ##############",
"###########          ooooooOOOOOOOOOOOOOoooOO                                  oOOooOOOoOooooXXX...X...        ##############",
"#########    XXoooOOOOOOOOOOOOOOOOOOOOOooooOO                                  ooOooOOOoOOoooXXoooXXX..        ##############",
"####   XXXXooooooooooOOOOOOOOOOoooooooooooOOo                                  ooOoooO++OoooOXXoooooooooXX          #########",
"###   XXXX..ooooooooooooooooooooooooOOOOOOOO                                    oOO+++OOooOOOXXXooOOOoooooooXX        #######",
"##  XXXX..oOOOO++++++++OOOOOOOOOOO+++++OOOOO                                   +++++OOOOOOOOOooooXXXoooooooooooooXX      ####",
"  XooooooOOOO++OO+++++++++OOOOOOooooO+++++++++++++++++++++++++++++++++++@@@@+++++OOOOOO++++++OO++++++++++OOOOOOOOOoooo     ##",
"XXXooooooOO++OO++OO++++++++++OOOoooooooOOO++++++++++++++++++++++++++++++++OOOOOOOOOOO++++OOOOOOOOOOOOOOOOOOOOOO++++OOOOOOooo ",
"XXXXXooOOOOOOOOOOOOOOOOOOOOoooooOOoooooooooOOOOOOooOOOOO+++++++++OOOOOooooooooOO+++++++@OOOOOOOOOOOOOOOOOO++++++++++++Oooooo ",
"###   XXXoooooooooooooooOO++OOoooooOOooooooooOOOooooooooooOOOoXXXXXXooooOO++++++++++OO@OOOOoOoOoooooOoOOOOOOOOooooooo...   ##",
"########   XXXooooooooooooooOOOOOooooOOOOOOOOOOOOoooooooOOOOOOOOOooOOoooooooooooooOOO@OOOooooooooooooooooooo....       ######",
"############    XXXooooooooooOOooOoooooOO..oo...  ........                      o..OO@OOOooooooooooooooooo....      #########",
"############           .ooooooOoooooooooOo.oooo  oo          ...  ..   ..  ..oooo..OO@+OOooooooXooooooo..         ###########",
"#############          .oXXXXXOOoooXXXooOOo.o  oo  ..           ..       ..    o .@@O@@O+OooooOXooXXXo...       #############",
"#############          .oXXXXXOOoooXXXXooOO.o                                  o +@@+@@+++ooooOoooXXXo...      ##############",
"#############          .ooXXXXOOoooooXXXooOoo                                  o++@@+@@++@ooooOXoXXXXo..   .. ###############",
"#############           ooXXXXOOooooooooXooOoO                                o+++@@@@@++@@ooooXXXXXoo.    ...###############",
"##############          ooXXXXoOooooOoOOOooOoO                                +++@@+@@@++@@ooooXoXXXoo     ...###############",
"##############          .oXXXXoOOoooOoOOOoooooO                              ++++@@+@@@+@@OooooXooXXoo     .. ###############",
"###############         .ooXXXoOOooOoOOOOOoooooO                            ++++@@+@@@++@+OoooXoooXXoX    ...################",
"###############          oo..XooOooOoOOOOOooooo o                          +++++@@@@@@++@+oooOXoooXoo.    ...################",
"################         .o..XooOoooOOOOOOOooOo  o                        o++++@@@@@@++@++oooOoooXXoX.    ... ###############",
"################          oX..oooooOOOOOOOOOooOO  o                      o+++++@@@@@@++@+OoooOOoXXXo.X    ..   ##############",
"############ ###          .o..ooooOOOOOOOOOOOooOO  OO                  oo+++++@@@@@@++@++OooOOOXXXoX.X   ...   ##############",
"########### #   #          oX..oooOOOOOOOOOOOOooOOo  OO              ooXX++++@@@@@@@+++++oooOOXXXXo.X    ..    ##############",
"############    #          .X..XooOOOOOOOOOO+OOooOOooooOOO        ooo..Xo+++@@@@@@@+++++OoooOoXX.o..X    ..#   ##############",
"###########      #          .X..XXOOOOOOOOOOOO++OOOOoooo  OOOooooo     oo++@@@+@@@++++++OooOoXX.....       #   ##############",
"###########      #          .....XX+OOOOO+OOOOOOO++++OOo            OOOOO@@@@+@@@++O++++OoOoXXX..... .    #   ###############",
"############      #          .....Xo++OOOO++OOOOOOO++++++oo    oooOOOOO@@@+++@@@+OO++++OOooXXX....XX .    #   ###############",
"#############     #      .    .....o+++OOOOO+++++OO++++++++++OOOOOOOO@@+++++@@+OOO++++OOOXXXX....XXX.    #   ################",
"###############   ##    . ..  .....Xo+++OOOOOO+++++++++OOOOOOOOOO++@@++++++++OOO+++++OOOXXXX....XXXX.    #   ################",
"####################     ..... .....oo+++OOOOOOO++++++OOOOOOOOOO+++++++++@@+++++++++OOOXXXX....XXXXX    #   #################",
"#####################   ............XooOOO++OOOOOOOO+++++++OO++++++++++@@++++++++++OOOXXXX....XXXXX.    #   #################",
"######################  ............XoooOOOO++++OOOOOOOOOOOOOOOOOOO++@@+++++++++++OOOXXXX.....XXXXX    ######################",
"####################### .............ooooOOOOO+++++OOOOOOOOOOOOO++@@@+++++++++++OOOXXXXX.....XXXXX     ######################",
"#######################  .......XX...oooooOOOOO++++++++OOOOOOOOOO+++++++++++OOOooXXXXX.......XXXX     #######################",
"#######################   ......XXX. .ooooooO+++++++++++++++++OOOO+++++++++oooooXXXXo........XXX      #######################",
"#######################    .....XXXX  oooooooo+++++++++OOOOOOOOOOOOOOOOOOooooooXXXXo..........       ########################",
"########################   .....XXXXX  ooooooooo++++++++++OO+++OOOOOOOOooooooooXXoo.........        #########################",
"########################### .....XXXXX. ooooooooooO+++++OOOOOOOOOOOOOoooooooooOOo.........         ##########################",
"#############################.....XXXXX.  ooooooooooOOOOOOOOOOOOOOOoooooooOOOO..........           ##########################",
"##############################.....XXXXX.   ooooooooooOOOOOOOOOOoooooooooooX.........     .       #   #######################",
"###############################.....XXXX..     XXXXXXXXXoooooooooooooooooX.......       .        #    #######################",
"################################...........     XXXXXXXXXooooooooooooooX......   .......              #######################",
"################################# .........        ........XXXXXXXXXX......   ..XXX....              ########################",
"################################### .......         ........................XXXXXX....              #########################",
"#################################  ##  ... .          ...XXXXXXXXXXXXXXX.............       ##     ##########################",
"#################################         .             .XXXXXXXXXXXXXXX...........               ###########################",
"#################################                         ..XXXXXXXXXXX..........         #      ############################",
"##################################        ##                  . .............           ##      #############################",
"####################################        ##                                        ####     ##############################",
"######################################        ##                                    ########  ###############################",
"#########################################     ####                                ###########################################",
"####################################################                           ##############################################",
"########################################################                   # ################################################"
};
