/* XPM */
static char *result[] = {
/* columns rows colors chars-per-pixel */
"64 64 3 1 ",
"  c black",
". c #97B9ED",
"X c #98BCF0",
/* pixels */
"      .    .        .                 .    .        .           ",
"   .   .             .      . .    .   .             .      . . ",
"  .         . . . .      .        .         . . . .      .      ",
"          .            .  .    .          .            .  .    .",
"     .   .       .    .              .   .       .    .         ",
"      .      .      .         .       .      .      .         . ",
" . .          .    .        .    . .          .    .        .   ",
".          .    .       .    .  .          .    .       .    .  ",
"     .   .                           .   .                      ",
"    .   .    .   .  .     .         .   .    .   .  .     .     ",
" .         .    .  .           . .         .    .  .           .",
"                      .  .   .                        .  .   .  ",
"   .   . .              .   .      .   . .              .   .   ",
"      .      .      .     .           .      .      .     .     ",
"  .            .  .            .  .            .  .            .",
"    .     .     .     .  .    .     .     .     .     .  .    . ",
"  .        .                      .        .                    ",
".       .             .    .    .       .             .    .    ",
"      .       .        .    .         .       .        .    .   ",
" .  .        .   .            .  .  .        .   .            . ",
"   .      .        .     .         .      .        .     .      ",
"       .   .      .        .           .   .      .        .    ",
"                .      .       .                .      .       .",
".              .    . .         .              .    . .         ",
"  .  .                   .  .     .  .                   .  .   ",
"        .    .          .  .            .    .          .  .    ",
"         .  .       .         .          .  .       .         . ",
".   .            . .            .   .            . .            ",
" .    .         .      .    .    .    .         .      .    .   ",
"       .  .  .       .   .             .  .  .       .   .      ",
"   .       .            .  . .     .       .            .  . .  ",
".        .     . .    .         .        .     . .    .         ",
"      .    .        .                 .    .        .           ",
"   .   .             .      . .    .   .             .      . . ",
"  .         . . . .      .        .         . . . .      .      ",
"          .            .  .    .          .            .  .    .",
"     .   .       .    .              .   .       .    .         ",
"      .      .      .         .       .      .      .         . ",
" . .          .    .        .    . .          .    .        .   ",
".          .    .       .    .  .          .    .       .    .  ",
"     .   .                           .   .                      ",
"    .   .    .   .  .     .         .   .    .   .  .     .     ",
" .         .    .  .           . .         .    .  .           .",
"                      .  .   .                        .  .   .  ",
"   .   . .              .   .      .   . .              .   .   ",
"      .      .      .     .           .      .      .     .     ",
"  .            .  .            .  .            .  .            .",
"    .     .     .     .  .    .     .     .     .     .  .    . ",
"  .        .                      .        .                    ",
".       .             .    .    .       .             .    .    ",
"      .       .        .    .         .       .        .    .   ",
" .  .        .   .            .  .  .        .   .            . ",
"   .      .        .     .         .      .        .     .      ",
"       .   .      .        .           .   .      .        .    ",
"                .      .       .                .      .       .",
".              .    . .         .              .    . .         ",
"  .  .                   .  .     .  .                   .  .   ",
"        .    .          .  .            .    .          .  .    ",
"         .  X       .         .          .  .       .         . ",
".   .            . .            .   .            . .            ",
" .    .         .      .    .    .    .         .      .    .   ",
"       .  .  .       .   .             .  .  .       .   .      ",
"   .       .            .  . .     .       .            .  . .  ",
".        .     . .    .         .        .     . .    .         "
};
