/* XPM */
static char *result[] = {
/* columns rows colors chars-per-pixel */
"132 132 63 1 ",
"  c #05061D",
". c #06081F",
"X c #060720",
"o c #070922",
"O c #090B27",
"+ c #0A0D2B",
"@ c #0C102F",
"# c #0D0F30",
"$ c #0E1234",
"% c #101436",
"& c #12163C",
"* c #13183F",
"= c #141740",
"- c #151943",
"; c #171C48",
": c #191E4B",
"> c #1C1E52",
", c #1A204F",
"< c #1D2354",
"1 c #1F255A",
"2 c #1F285D",
"3 c #20275C",
"4 c #20285E",
"5 c #232663",
"6 c #232C65",
"7 c #252768",
"8 c #252E69",
"9 c #282B6E",
"0 c #27306E",
"q c #28316F",
"w c #2A2D74",
"e c #2D2F79",
"r c #2A3475",
"t c #2D357A",
"y c #2E397E",
"u c #2F3A80",
"i c #323484",
"p c #313B83",
"a c #34378A",
"s c #343E8B",
"d c #373B91",
"f c #393C95",
"g c #3B3E9A",
"h c #35408D",
"j c #364191",
"k c #384395",
"l c #3B459A",
"z c #3C489D",
"x c #3E43A2",
"c c #3E4AA3",
"v c #4044A6",
"b c #404CA7",
"n c #4346AB",
"m c #424DAB",
"M c #4350AD",
"N c #454BB2",
"B c #484CB7",
"V c #494DBB",
"C c #4651B3",
"Z c #4853B7",
"A c #4853B9",
"S c #4D51C4",
"D c #4F53C8",
/* pixels */
"sssshhuupys:1jssshhppypyr%hhphhhhyyypp*qhphphhuuuuu6;jhssshpupuuh$uhhsshhuuuus,<jhshhhppyypr&hhhphkpuuuup*0hhphhhyuupp4-hhhphhpyyypp",
"cMCCku66663O4bmCCzj66666*%lmMCmlt56661otMMCClj66664$;ccMCbkq5666;OhbcCCku48662+4mmMCch66666*$lcCCMky5460<OrmMCClh56664$,cMCCcl06668;",
"Ccss4666684O6bMsjr466666*%lClsp266688<Ormmhh6466666$:cCkhy266666,@hMcsh4666662+4bmskr466666*%lClsp2666601Ormmpk6266666@,cMjhy266669:",
"Cs<26666664+4bm446666866-%lCr246666681OtMl126666666$:cC626666660,OhCs246666602+5bb444666666-$zCr226666661Otml126666666$;cC825666660,",
"cs486666684+4bb666866666-%lCt46666868<+<cz466666066$;cC066666668,o6Ch266666662+4bm668666668-+rAy466660661Ormz466066606$;cC066666668:",
"c4886666664+6Mq666668666*%zh5660666661O:c6666688664$;My686666668,O5l6666668662+5M0666666686-+&5804066660<Otb6866666664$;ct666666668;",
"s466666866,+4l6666666601*$lt466686666:X:j666666866<$;zq466686664- 4p466686666,@4l6666666683*-g%%26666064:+tj666866660<$,cr666666684;",
"4866866664<@6q6666666661**u2066666664; -<666686664<$<y6666666664* ,1066666664<+6r6686666661%%Sa5%&666662:+r6666666664<$<t2666606663-",
"6866666661>+6r666666664<*&p6666666661: 4;886686601<$,y666666664<*.8;966666661,+6r666666664<-9BNnu7&6666<:+r8666666663<%,u6666660643;",
"4866668662,#6r666666664<*&u4660666661: r6,68666862<$,y6666665661*.p<386666651<+6r6666666821=>xifBB8$6861>+t8668666663<$,u4666666843-",
"6888664111<+6r6688664111*&u6066662123: r8,86864111<$<y6606663314-op4,08864111<+6r6888643111&=xwwagB9&:12,+t0668666333<%,h4606662333;",
"22224,,>,<,#104225<,<,,<*$t22222,,,,<>O864422>><<<<$-r44111<,<,1;+q44443<<<<<<@1033443,<<>>=&VBgdvnDw--<,+664444<,,<,:%;022241,,,;3;",
"+++++#+++##+O+@O++@+++++@OOOoo+$@O+@&$+OOO++++Ooo+$+OOOOo+#+++$*#oO++++++OOOO@+OO+++O+O@++++1gfe9995dx-O++O++OO++++++++o+++++@++O+++",
"42684466666;-625444666662$6;$=;&<66650$<6444464;%*-;&8*$-;&166558%44444464&&&:&;844444665665<yy5<<<<rup60%,664644668683%644452666668",
"ccccclrrrrq%6McmbMbtrrrr<&ccx88ch0rr00$tcccmccr8668&:mzl5rcyrrqq6@jbbmbml98666%6mbbbMbrrrrt<$zccmcmk80rr0@tmbbmmbqrrrr-:MbmbbMurrry6",
"cVCcr866662O5cCmMp666666*$lCNck<06466<+rCCmNr864666$:bNmbp186666;+hmMmb0865684O4bCmMs666666*$lCMmc886656<OrmMmmr666664$;bCmMj666666;",
"Cs466666684O4mb666666668-&lCt62<66640<Orcc266666666$,cC062266666:+hMs466666604+4bm666666686=&lCy46666668<Otcz266666666$;zC066666660,",
"Cj466668664O4bM666866668=$lAy46666600<+rCc266666666$;cC066666660,+sCk466686664+4mM666666660=$kAy466666681+tCc266666666$,bZq66666668;",
"cr668666664O6bp666666668=%zl0666066602Otcy666886664$;ch066666060:+jcr668668664+6bp666866666=%zl0686866602Otcy466686666%;bh666666660,",
"k1666666663+4M8668666664*$cp266666664,Orc4666666062$,cr666666664;+jj366666666<+4m8666666664&%cu266666866,Otc4666666661$;br666666684;",
"8666666886,+6r6666666661**u0666666665:+rr666066666<$,u6666666662;+p6666666666<+6t6666666662*&u6666666684,Or06666666661$,u6668666664-",
"5666666663<+6r666868682<*=u4660666662,+r0666666662<$,y6666666642;@p6666666863,+6r6666866621&&h4686666661,Or0666068664<$,u6666666663;",
"6666666663<+6r666866885<*&u666666666<,Or0666868862<$,u406606604<;@p6666666663,+6r668688602<*&h4066688841,Or0660666663<$,u6666660643;",
"6666666433<+5r6666662411*&u6666605222,+t2466666242<$,u4666665222;+y3866666433,+6r666666422<*%y4666684441,+r0666686453<$,y6666602333;",
"6066621<1<<+6r666621<<<<*&h26602<1<<-=+<,6686211111$,p666842<<,;&@3;066621<11<+6r6668211<11%&h266861<<<2<Or06066311<1<$,u66602213<3;",
"=**--******@%----**&=*-*&+;--=*-***$$%$&$&---*%*&*-$$;**=;=*=*$$&@%%*-*****&**@%-----***%--%O,*-======**=+*===*-%*&***%@;=****&***%&",
"$$%%%%&&*&*@$%%%%%%&&&&&&+$$%%$%&*=-=$o+*%%$%%&&%*&$@&%%$$$&&=;$%X@=%%%%%&%&&&$$%$%%$%&&&%&&@$$&$%%%%$%*=@$&$%%%%**&%*$@$%%%%%&&&&&*",
"llllzlypppp,4zlllzcuhuuh0&llllzckuuups%rzlllzzpuppp4;zllllchuuuhy%sllllzlppppp,4zlllzcpppppr%zlzllckuhyhu&rzlllzzppppp1,cllllchypppy",
"cCCCht26462o6cCCAlu64644*%zMCCMhr2466<+rMmCAju66464@,bMCAcu04446;+hmCCCht44462o4MMCAlp66656&%lcCcchr2646<orMCCAjp56466@;cMCAcp04646-",
"Clty4666682+4MMty0266606=$lChtr2666661OrMcru6466666$-zCpy0468680;+sMlrt5666002@4mmtt0466666=%lChhr266668<OrMcry6466666$;cCutr266660,",
"Ch246066684+5bM246666660=$lCr266666661+rCl246666686$;cC046688666:+sZs346666662+4bm466666660=%kCt26666660<+rMc146066666$;cC026666669:",
"Mu266666664@4bc666666666-%lMr666666601+rck668666666$:cb066666660:@sms466666662+5bc666666666-@rCt666666681+rmk266666666$:cM066666688,",
"l2666666664+6c0866686666=$ch266866868,+rc4686668664$,Mr666668666,+jk1868666661+4c8666866666=Oth4666686681Orc6666866864$;cy666666686;",
"t666688668,+6d6666846661=$jr666666666:+rp8666666661$,h0666606682;+sy666866666>#4j8666668681*.0y466666666;+tp666666668,$,k0666666663;",
"6666668661,+606668866641=&u4686686661:+r86666666651$,t2666666641;+u4666868664<+6r666666664<$O,2666666662;+r66666666641$,y6668668663;",
"6666666861,+6r6666666841=&u6666666661:+r8866666861<$,y6666666041;+u686666666<<+6r6866666841$@0,68668666<,+t86668866811$,u4666666633;",
"6666608461<+6r466866667>=%u4666666461;+r0666866662<$<u466060464<;@u6666686661,+8r4888686621$@h,26668666<>+r8666666462<$,u6666686553;",
"6666662<1<<+6y608846111>==h6886862111,Oy0888866<<1<$<u6060642211;+u0660664<11<+8r88866412<2$$h,488862112:+u0888866111<$,p6888641113-",
"1111<:,::,>$>4,,>,;>>>;;&@6<1<1,,,;,,;@211<11;;:,,,$=6<<<<,,,,,,;+6<1111:;>:::$,4,,,<,::>:1=$61<11<;>;,,:+21<1<1;;::>:$=8,>:,;:,>;;=",
"+oo+++O+++O+OO24545+Oo;76,o+OO+O+++++++oOOOOO+++O+++OOO+OO++OOO++OO+o+oo+++++O++OoXo#+++o%%+OOO+OOo+oXoo++oO+O++++++++++o>5746$+O&75",
"ryrrrtttrry,-7eeiie775weeruuuururrrrru=4triuttrrrrt2=yrrrtyrrrrrt$rtrtrttrrtru;,u:,,,,rrr0r0$yuyruyy6:::4%7tuururrtrtt5=8weeei7579ee",
"ccCNcj60606+wVnvxnxBxnnnx&ccccccp60002+tcccccl80000$,cmMCccr6000<+kccCccj60804+6ccl0sc00888;&lcccccu68681+ucccccl08808#>ScvnnnnxnnNN",
"Ccll6666664$ingegxBBVdixx&kccxk4866681+rcAcc0466666$,cMzcs466686,+hcclc0666682+5cAxc6<86668=$lcclj6664681+rccxcr686686$8nxedvVBngexN",
"Ch146686662<vteaxVxxxdiwg&lAt446666661Orcc248666666$;cC044066660,+hMh226686682+2cA441466666=%lAy24868468<+ucx126666662>gdwixnnnnaiwx",
"Cj466866662%agfgnnVnnxgeg&lAu46666668<+rcc666666666$:cA066666686,+hCj466666882+4cc666666866=$kAu666668681Otcc466666686$9vfgVnBBnxgeg",
"l6666666665OevvnBxVSNNggx$cd666668868<Otc0666866866$:cu666666660:+hl6666666662+6cr666886668=%ch866668468<Otc0866666865#1nxxxnVSnNvgB",
"s466666666>OeBNnBVVVBnNNx=lu486668666;+tx6666866661$:cr666666662;+hh486666666,+4cr484866662*%zu466688666:+tl6666666681$>SxnBVVSBnnnB",
"6888666666>oeBNNnVVBSVNNxtu4666666666:+r8866666666<$,u8668666662;@u86666866651+6t8868666661**u4686664864:+r8666666666>#>SBBxBVVVVNnN",
"6666666661<&aBxvNBSBBBBnNti4666666661:+t0866666662<$,u6668666641;@u6686666661,@6r6666666821**u466666666<,+r8666686682>=wSxxNNSVVBBnN",
"6666688661,&alfgNNNBNnnvxtu6666668661:+r8666666682<$,u6666666841;+u6666666662,+6r6666666821&%h6866666661,@r8666666862,=wxdfNnBNNnnvn",
"6866884121,oeawigvNnnniextu6866866121:+r8666666122<$,y6666662221;+u6666606213<+6r686866222<=*r,868604221,+r0666686112<#1feigxnnnndwv",
"46664<1,<<<+eBxtaxnBndeex=u46664<<,<1:Or8666611<,<<$,y46662<<<<<;@y66664<<<<<<+4r46661<<<-=&%<,6464<<<<1,+r86666<<<<<<#<VxiignBBfewv",
"$$$$$$$$$$$#ixxaaaaavxxgg+$$$$$&$$$$$&++$$$$$$$$$$$@+$$$$$$$$$$$$+$$$$@$$%@%%%++&$$$$$$$@@@@++$$$$$$$$$$@+@$$$$$$$$$$$$7xxsaaaaggvgv",
",;,,;;,,,,,<9t8=--*,eieir@,;;;,,,,,,:<$-<2,,;;,,,:<;$;;;,<,,,,,,<$;:;:,;;,,,:<*%12;;;;,,<<,-o;,,,;;,,,,,<$=,;,;,;>,,,,,6tr;=---etyyp",
"ccccccuuuuu=1cccccchrrtt4&cccccckyuuuu$uccccccuuyuu<,cccccchyyyur$hccccMztyyyy*6ccccccuuuyu6&cccccclyuuuy$rccccccuuuuu,-cxccccdrttt0",
"ccAcu046461O6cCCAhr64655==ccAcct04448,OrccScpt46462$,cCCccr84666;OhmCCCtq66663O4ccScjy66466&$lcAAcr04648,+ucScApr46662$;cNCAcr86466-",
"Ak806666662+6cc806668666=%lCu88446688<+tccrr6666604$;cCr00468668,+hMj606666664+5ccu08666666=%lcu00666668<Orccr06468686$;cCr08466660,",
"Aj266666682+6cV866666668=$lAu48686668<+0cc266666666$,cC046666668,@yCj468666064@4cc886666668=%zSy466666681Orcc466866668$-zA048868668,",
"ct488668666+6ck666666668-%zcr486666681+#hd486666606$,cl066606660:O2by566666664O4cc666668668-%zc0666666681+ycs466666668&+sc066866669,",
"k268666666<+6c6666066862-%cu266666686>+1$4486668662$,cr466666666:o6l1866666661@4c6666666682-%ch466868668,Otc4886668661$+jr486666666;",
"r668666686<+6u6666866601*%h0666686666;+xuO-2486666<$:h0666866684* 1r666666666<+6u6666666601*&h8666666684:+rt666668668<++r0666666863-",
"4666666662,#6r666666684<=*u4666666661,+fBx7O:66662<$,y4666668641* ,,666686664,+6r666666664<*&u4666666662:+r8668666664<+$:2866666663;",
"6666666661,+4r6666666821**u6866666661;>xxgxS>-8802<$,y5666666641*.t,666666663<+6r668686662<=&u6666686861:+r0666666682,+;01666686643;",
"6666686642,+6r666886462<*%u6668686621,OdeigxB>-842<$,y4068684642- p1,06606443,O6r666666662<=&u6686666441:+t8686686641<O;u-468884433;",
"68888433333+8y6868441<1<*&h6600651111>OdgiwdgN1+:41$<p6688541112-Op52066443<3>+8r606044<11<&&h66886433<3,Ot06006441<33o:s3688643333;",
",,,,;--;*;-#*,,,,,:-;;;;*@<,,;,;;;-;;:OfVNgxnBNi:%;%%<,:;;,;;;-<;+<,,,,:;-;;-;#-<,,,,;;;;;;-@1;,,,,--;;-;@,,;;-:;;;;=3%%3;,,,;-*-;--",
"O+O++@#@@+#@O+++++@@@@@@@O+++++++@+##+<ti7&&=&>dt%O@O+. .+++++$=@+++O+++++  o+++++++++@@@@+@O++++OO@@#@@$+++  O@O@@+=%+O+++OO@@o  o+",
"hhshhhypyyp,3jshhhhpyyyhr$hphhskhypuup-qksspssyusph4-l84<48tpprrp$yhhshhhr4336-3hhhshhyppypr%hhhhhjhypyyp*0h24<50pypry6;jshshjp93336",
"bmMClp46863O4MmCCzj86666*%zMMCmlt4660<orcNCClh66565$,zMCypkr6656,OhcMCCls36664O4mMCCck66666*%lmMCmky4668<+rcClysj66664@;bmCCbjq4666,",
"Mcss6466683+4bMsjr466666=$lClsp4666661+rmmsj0466666$,cMjlq-66660,+sMcss6484664O6cCskq266666-%lClhp468668<OrMmsl:266666%;cCjjy366460,",
"Cs336666684+4Mm446666666-%lCr266666661+rMz<26666666$;zC842566668,+hCs126666693+3cM446666666*%lCt346666682OrNl142666666%;cC644066669,",
"Ms466686683+4bm666666066=$lCt666666661OrMz466606666$,cC066666660,OhMs266666663O6Mc666666668-%lCt46686668<Otml268666666%;bMq66666668,",
"l6666866664+4Mq666668666-%ch466668666<Orc6666666664$,bt666666666,+hl5686668664O6M0666606666*$zh266666866<Otc6666666665$:Mt666666666;",
"s466666666<+4l6666666682*%lt666666606,+rj686666668<$,zq666666665-+hp666666666<+4l6666666682*%lt666666666:+rk666666666<$:lr666666666;",
"4666868664<+6q6666666661&%p4666666662:+r66666666641$,t4868666662;@y6666666864<+6r6666666661&&h2686686664:+r8686660666<$,t4666606663;",
"6666666663,+6r666668662<*&p6666666661<+rq666866662<$,t666668866<;@p6668666663>+6r666666682<&&y666666666<,+r8666866662<$<y666666664<;",
"6666666651,O6r6666666641&&p4666666651:+r0666666664<$,r6666666641;+p6666666663,+6r666666664<*%p6666668661:+r0666666664<#>y6666666641;",
"6868865133<@6r6686664111*&s6066662111,+t0666865311<$<h6668664111-@r,966663333,+6r6666663121*&h6668664311,+t0866666121<$:62060662333;",
"24242<<,<<,@384445<<,<,<-%r44444<,<<<:+664444<<,,<<%,q2254<<<<-&&%::4433:<:33,@304445<<,<<,*%r12443,,<<<:+854244<<,,==%&:<5221,<<,<;",
"+O+O++++++++O+++O++++++++OO++O+++++++++++O++O+++++O@oO@++O+++OO+XOo+++++++++O++O++O+O@++++++OO+@++++++++++O++++O++++OoOo+O+O+++++++@",
"55444666668--645544666666$644644666660$<64544466640,%646644666666+364464466666--644444666664$645644666660%<54654566604,@866444666646",
"mcbMMlqrrrr%6Mmbbmmtrrrr<%zbbmbMh0rrt0@tMbbmMcrrrrr;,cMccMMurrrr6+jbbbbMlrrrrr%6Mbbmmmtrrrr1%zbmbbMh0rrr0@tMbbbmcrrrrr-,bbbbbMyrrrt6",
"mMmbq866662O5bMmCp866646*%zMMmz066656<OrbMmmr864664$,cCcCj666666;+jmMmbq866664O6bCmMp666666*%lMMmz866666<OrmMmCr666665#:bCmMk686666;",
"Ch466666662+6bm666666666*%zCt56666660<OtMz466668866$,zC066666668:+sCs466666764O4bm666666666=%zCy466666601OrMz466666666$:bM066666668,",
"Ck466666664+,zC666666666-%lAy46666660<OrMc266686666$,cA066866666,+sCk486686684+3mM666666686=@hAt66666666<OrMc266666666%=zZ066666660,",
"zr666686664@%lh666686686*%zl0666666602+rct666666686$;cj866666660:Ohcr466666663+6mp666886660-Orz0666666601Otct666666866%.3h866886668,",
"k166666686<+%z8666866864*%cp266606664,+rc4666666662$,cr466666606:+jj3666666663+3b8686666662-.th286666666,Orc6666666681$>3%366666684;",
"6666666666,o%86666666661*%p8666666666;+rr660666666<$,u6666666664;@p8668666666:+6t6666866661%o40666666666,@rq6666666661@3V;#;3866684;",
"6666666664>o-;666666662<&&h660666666<,+r0666066662,$,u4866666641;@y6666666663:+6r686666684<%O1<666666661,Or0666676664>%5Snv=&366661;",
"6666666663: 663666066021*&u4666666662,+r6666666682<$,u666666666<;+y6686668883<+6r466666884<%$y,266666061,+r0666666664>=ingfSg%3865<;",
"6666606341, 4t-66666222<*&u4666604221,+r06666665221$,u6666684421;#p6666684333:+6r4666664533$@h,186684221,Or0666686443<#3dwavNg#3441;",
"6666633<13<.6t468621<111*&h66666111<<,+r0666622<<1<$,u66884111<1;+p866863,333<+7t6886333<<3$$u2686611<<1,+r0660643<<3<#3NgwtfNg#$11:",
"**%%-****-,@%---*-*&%***&@-*-*=*&&*&&*@*----=***-=-$$;--=--&===&*O--;;;;-&==;;%%*&&%*-&&&=:%@;--*-**%%*--@*---=-%*&*&-$3BNlgxxngi@=*",
"@ O$+@&&&:&@@%%%%%$&+oo+$+&$%$%%%*&&&&@@%%$$%&&&%%%%@%%&$%$&&=&&*++-wwww3+##99e>%. O%+%&%;*&+%%%%%%&$ooO$@$$%%$%%*&%&%-9ew=%%%&wi6$*",
"sr61ypppprs;4zlllzcp05662%lllllcjuppuh&tzlllczuuhuh2-ccckcchppupy%idaaaiadadaawrztq3qpppsrtr%zllllcjr6550$tzlllzzppppp4-zklllbsiyupy",
"NAcayy45464O4MMCAlu65666*%lMCCMhr2566<OycMCAhu46642+,cccAcu04466;OnVvxvBBNBgBS7<bZMfpp66556&%zmCCMpr2666<OrMMCAhu65666+:bmCZbpq4466;",
"Mlty-466684+5bMry0466666-$lChtr246060<Orccty8466868$;ccsyr166688;5nieivNnNvwig9<ccyh1<68866-%kcstt2665601orcctu6466866$;ccuy0266660,",
"Cs266666664+5bM446666668-%lZt26666660<+rCc246666666$;cA044866648;9xedvnnnNxdiaw1cc262666666-%zSy266666661OrCc446666666$,cA046668666,",
"mp566666684+4bc666666666*%zMr66606666<+rcj266666666$,cc066666668:#vfgnnNVBnxddw<cc666666668-%zcy666666601Oycj666666666$;cc066666660,",
"l4666066661+4M0666666666*%cp466666666<Otc2066686664$,cr686688668:+vvnnnBVBnNxV7<cr666666864-%cs466666666<+rc4686866684$;Cr686686666;",
"y466666666<+4h6666666662*&jr666666662,+th666668668,$,j0666606664;#vnnnSBVVVnnBi7l8666666682*&jr466066066:+rs686666668,$,k0668668665;",
"2066660662,+6r666886685<**u4666606662,+r60868666841$,y4866666661;+nnnnnSVVVVNNfir666686664<*=u2866666662:+r6666666686<$,u4664884662;",
"6666666661<+6r6668666841*&p6660666661:+r06666688611$,y666666606<;5nnfnNBBBNNNNdt0666666684<=&u486666666<:Or06666666611#,u468666666<;",
"6666606461<+6r466666664<*&p4666666451,+r0466666481,$,y666666664<;$xedvnNNnNNfggu0686666664<-=u4866666461<+rq666686662>$>u4666686641;",
"606006211<:+5<60604412<1&*h2606662111<Otq688664<11<$<u6060441111;#xieedvxNxa9idtr868864111,&&8,006662111<+tq6886621<2<$,p8888641<12;",
"<1<<,::,-&=$=-,1<1<,,,,,=$0<1<2<:;::<;@22<1<1:,:;,,$=6<1<2,,,,:,;ONVnfvNSVNfgx0=211<1,,,;=&&%;-1<2<,;,:,;+22<111,,,,,,%*6<<11,:,,,,;",
"O++O++++++XX +++O++OO++O+OO+OOOO++++o++o+o++++++++++o+++OO++++O+O>aaw>>>:7ddad5 ++O+++++++OoXo+++OOO+++O++oO++o+O+@++++OO+O+O+++++++",
"rrrrrrrrrtr;,urrrrtrrrrr0$trrtrrrrrrry*5yrrrrrrrrrt4=yryrttrrrrre;iirqqw0ruuas>>yrrrrrrrrrr8#tttrrtrrrrrt&6trrrrrrrrrr2-urrrrtrrrrrr",
"cccCck88006#4cmmMccq0000;$ccMMMcs60002+ymmmMcl00008$;cCccCcy6000<+jcmMMcj88886+6cccccc08880;$lccMMcu00002+ymmMMcl88808%;ccccccy6000<",
"cCll8666662+6cClcy466666=$lCczk4666681ormmlcq666666$,cccch466666,+hccxl6468481+4cAccy266668=%cSczk6666601Ormmlc0486866$,cAccd266660,",
"As246668684+6mm246666660-$lCr246666681OtNl126666866$;cC026666660,+sCs146666682+6Ac446666668-&lcu246666661OrMl156666666@,cS646866666,",
"Aj266866664#:cC686666666-%lAu666666661+1Mc466666666$,cC046666660,+sCk666686682+8cA666666668-@uAu26666660<OrMc266666866$,cA066666640,",
"l0666686664$o1r766666666-%ch6666766601+:z0666666666$;Mp666666668;+hl6666866684+5cy666668666-+rj866686666<+yc8666866684$;cs686666668,",
"h466666666<+e<->66666682=%xu466666685:o;l4668668661$,cr268666684;@hh666666666<+4c8666666681=orp466686666;+rl6686666681$;cr486666665;",
"4066606665<owV>-*<086661&&u4866666664; -2666666666<$,t6668666664;+u6666666685<+6r6666666661$o16666686864,+t8668686668,$,u6666668662-",
"6466666661,&aVBg1=166621=&u6666666662; 1:066666662<$,y666666684<;@y6686666661<+6r4866686821%+4,886666661;+r8666666664,$,u6666666651;",
"6666666661,%agdlSf%1682<&&u6688866663; r2166666662<$,y666686684<;@y6666666661<+6r666668682>&#p,264866661,+r8668666881,$,u6666666661;",
"6666684242<OeaeigNg&1211&&s4666664333; r0;86666142<$,y6666664421;+p6666664331,+6r6866662211$@d,188684141,+r86666661111$,u6686862221;",
"66665<<<<1<OeBvtaxNg#=>1=&u46462<<<<<,or666661<<<<<%,t466641<<<1:+y666661<<<1,@4066661<<<,2&$u46684,<<,1,+r8666811,11,$,y264841,<<1;",
"$$$$$$$$$$$@engaaaadxi+$$+$$#+$&%$%%*&@@$$$$$$$@@$%@@$$$$$$$$$$$$+$$$$$$$%$$$%+@$$+@$$$@#=-$+$$$$$$$+#$$&+@$$$$$$$$$$$$+$$$$$$$$$$$$",
",;;;;,,,,,,<8tq--,=,tu6,,+,%O$*$*<,,1<$-,;;:;,;$@@%&%:;;:;;,,,,,<@;,;,;;;,,,,<&%<@@$&$,,,1,,+,,,;;,,-++$-@-,;;,;;,,,,,;@,;<,;,,<,,,,",
"czccMlytyyy*1czccccurrtu6&ckh44khyytrt$ybcccbbr0668;;mbbccMhttyuq$hczccMztyyyy*6cku<ykuyurr6%cccccckr8686@uccccccyuyuu<,cccccchuuuur",
"MCCCtr26662O4MMCCjq66666*$lCAck004666<orbMCZpr66666#;bMNCzr06666;@hmCCCtr46661O4cDcct086466&%zcSAct05668<+uAcAAur26664@;ccAccr64648;",
"Mj004666662+5bmq00666666=$lCu06;666061OrMc606666666#;bCr00466666,OhMj8q6666664+6ccrr<166668-%kcu88668268<+ycc006666666$;cAy08468668:",
"Cj266066662O6cc646066666&&lAu466666681OrMz466666666$;bCq66666668,+hCh466666684@4ccr66686668=$lAy46666668<+rcc266666666$;cc866666668>",
"cu466666665@6cl666666660=$ccq666666681Otms566666866%;bz966666668,Ohby566666664O4cj866666868=$ccr66666688<+rcp666666666&;cx866666660,",
"l2660666661+6M6666666662=$cu466666666,Otc4666666663@-Mq668686686;@hj4666666663@4c8666666664-$cp266668666<+rc2868868662$;cu666666666;",
"r486466666<+6u6686666601**hq666666666,Ott666686668<%,h8666666664-+pr666866666,+6h6666666681&&s0686666684;+ry666666668<$,j0686686661;",
"4668666661<+8q6666666841=*u4866686661,+r8668666662,$,y4848666661;+u4886666664,+6r6666866661=%u4866666662,Or8866866662,$,y4686666641;",
"6666668662,+6r6868686841=$u6666666681,+r86666668821$>u6686666641;@u8666686662,+6r666666682<=&a4686688661;+r06666686811$,u6666868841;",
"6666686441,+8r486688461,=$s4666686442,+r6666686461,$,u6648684441;@u8666688461,+4r6666684641=*u2668686441,+r0666686441<$>y6666686611;",
"8888842<11<+8r6806411<11=*h68888411<,-+4,8888421<11$,u8888641<11;+s8888821<11<+8t68886211,;&$6<088621<11,+r08888421111$,u6880421111;"
};
