/* XPM */
static char *result[] = {
/* columns rows colors chars-per-pixel */
"128 128 92 1 ",
"  c #1C0000",
". c #240000",
"X c #2B0000",
"o c #340101",
"O c #3D0101",
"+ c #430000",
"@ c #4B0101",
"# c #550101",
"$ c #5A0000",
"% c #551A00",
"& c #650101",
"* c #6E0101",
"= c #740101",
"- c #7B0101",
"; c #641B01",
": c #6A1A00",
"> c #761B01",
", c #7A1B01",
"< c #850000",
"1 c #8A0101",
"2 c #930000",
"3 c #990000",
"4 c #881A00",
"5 c #931B01",
"6 c #9F1B01",
"7 c #A20000",
"8 c #AF0000",
"9 c #B50000",
"0 c #B90101",
"q c #A21A00",
"w c #AD1B01",
"e c #B61A00",
"r c #BD1A00",
"t c #8C2801",
"y c #A92801",
"u c #BC2700",
"i c #B12801",
"p c #C30000",
"a c #CB0000",
"s c #D40000",
"d c #DA0000",
"f c #C41A00",
"g c #C81B01",
"h c #D51A00",
"j c #DA1A00",
"k c #E30000",
"l c #ED0000",
"z c #F20000",
"x c #FF0000",
"c c #E61A00",
"v c #EB1A00",
"b c #F01A00",
"n c #FE1A00",
"m c #CD2700",
"M c #D02801",
"N c #DA2801",
"B c #EB2700",
"V c #F22700",
"C c #FF2700",
"Z c #FF2801",
"A c #B04201",
"S c #CB4201",
"D c #D54201",
"F c #CE5100",
"G c #D35100",
"H c #DB5000",
"J c #E04100",
"K c #F44100",
"L c #FF4100",
"P c #E25000",
"I c #EC5000",
"U c #F55000",
"Y c #E56B00",
"T c #F46B00",
"R c #FF6A00",
"E c #FF7700",
"W c #F97A00",
"Q c #FF8400",
"! c DarkOrange",
"~ c #FF9100",
"^ c #FFA400",
"/ c #FFAB00",
"( c #FFB300",
") c #FFBB00",
"_ c #FFCC00",
"` c #FFD400",
"' c #FFE100",
"] c #FFEF00",
"[ c #FFF400",
"{ c #FFFF00",
"} c #FFFEAF",
"| c #FFFFD3",
/* pixels */
"..X .         ..      X  ..oo.X.XXooOo.+OOo@XOXXOo@.X@oO@oo@oOO+oOOoOOO@Oo@+@+X@@@OXo@OXOoXo..o.. o...o  OX.XXXX     X  .  . .  ",
"X.  .    .   ..... .X O .X....o+.Xo+XXoXOo@oooO@oOO@O@@@@@@+OOOX@@@+O@@@XO@O@@@ooX+@oX.XoOo.X XX.... . .X Xo .X ... ... .X .X . ",
"       . X     .X. o. ...X.oo..oXoXXX@@@@O@@@@X@@O@O@@O@+@@O@O@@#@@@@O@@@@O@OOX@X+oooXXX@oooXXX+..XXX.X. X..Xo XX.. X . .   .   ",
"          . .. OOX.X .o.X.Xo.o.Oo@o@O@@o@@Oo@OO#o@O@@O=O@OO@@@@&@@@@@+@@@@O@O@@&Oo@OOo@@o@@@@ooX X.oX..o. .X.  . o. .X X    .. X",
"XX    X.      o   .O...ooX+o+ o+O+o@@Xo@o@o@O@@@@@@@@@#@@@#@@@OO@@@@O@O@+@@@&@@@o@@oO@@o@OXOo@ooXX.XX.X..X  ...Xoo .  .         ",
"X  .  X ..    O .. ooXOoOXOoo%o@@o@@@@O@=@@-=@==@@-=@@===&@@@<==@&@@=@@@@@@@OoO#@@@O@@oOo+ooo@X@oX@oXoO.XX...o. . O . .  .  X   ",
".  .     .  .X  ..OoOoOoOo.+o@o@@o=@o=@=@==&<=<@-@@@==&=#=##-**####@*##=@@@@#@&@@@@@OoX@Oo@@@@@oOXoX+X.o.. XX.. oX..X.X ..      ",
"  .    .  .... oo.O++oO+++@o@X*&@<<@==<@=<<=3<=<=@=#--*#1-==*###1-#*#*#*#**##@@@@#@@OO@@&O@@o@o.@o@ooo.XX.oX+X.o.  o   ..       ",
".   X .X . . oXoX+X+XO$X+@@$#*@@@=<=<=<=<2<9=9=2-13313-1-1-1#-#*=--1=*#***##*####&@@@&@@@@O@+@@o@ooo@oX+.o.+.Xo .o...oX. . . .  ",
"   X.  . .XX....+Xo+o@ooo@@#@&&&=====1<9<99399---j#73-331&3---21---&*1<<<*<#@#@*@***@@@O@@@O@@o@oO@X@o@O@..o X.X ..Xo  X .   .. ",
".  O . X..XXX.Oooo+X++@@-<#@&@*==-2==<9==96h9p9p9399999=337<739-37<1#-11-*###*#*##@#*#@@#@@+O@@+o@oooo@ooXo..o+.. . X.   .X     ",
"..  . XX oo Oo.oOoo+X&#o@=<o*==7999993klk9s999slz9n99k990-939*23-1211---=-*<-@##*#-##**#*O&O@@&+O@O@@XOo@OooO.o+o.....   O   .. ",
" . .  ..O.X.ooo+O++O@@*<<=<-=2223s79lnk9s3kpkn9rzslnn9hk-939---77#393#*#1--#*1<##*@##&####@@@@@@Xo@@@@@Xo@.@.oXX+..X.  X .X.    ",
"  X .XXXXXXXX.Xo++=o@*==+==2d0sZ9gjgpjp272js9ffp99s9sks9l9kkk3999992-9-#31=-###-**#***#**#*##@@@@@O@oX@o@@@oooXXX.X......o.. .. ",
" . ...XX. ++oooXoo@@=@o73=-012013-332<3rwe*-3-9--338sssn99n9spl99993-3#--*71111*1*--#@@#*##*#@@@@@@o@@oo@oooooooXO....  o..  .  ",
".. . X.XXoXoXo++*=====2@27-p-7=31e33-1*-3----1--1--$6<9nsz3x9n3k9993-33----3*-*#-1--**##*@####*#@#@#O@OO@+@@oOOoo o.. . .X  o   ",
" .O.X.O.o.+OXo+=o@=#7@221<36w2=w-#*#<---1##111----1-9-9zlz999xns9d999-9-3#-#--19-*##$*####*#@#*@#@+o@@@@oo@@@oXooOX+.X.  . .X...",
" ..oXOoXoOoo*++@==5==2722e11=#>##<*=###***1*#---11-*1-1*1z9l99skl37x99-99--#-9--11-##-*=**#***##*##@@@o@@@@@.@@OXX.X+oXX   X    ",
" XXXXOOOOo+++#===2<2722-1w=w###*-##1**#####*+*=-1-1#1--*-,-0*7llxlkslz9-999333--=--1=#-*##*###@#@##*@@@Oo@OO@o@o@@XoXX.X.       ",
"XX..OXo+XX+X+@@==2<1111@1w@#1**#@*#*##*+#$##*##&##-1#$-O*1-1-jzxls9kk999339919-23*1<*1#####$#*#**####@@&oO@@o@OX.@@o.X..XO . . X",
"XXXXX+X+o+++@+=2@<1-@@@&@&-*@#######+#$#$OO**+#+#-+-*&$$-##-17q9sx7x9ls099939901<=1=1###***#***#######@@@&@@@@@o@XXo+XX.o.. Xo  ",
"XXX%oXoXX++*===@@21@3&$=&#####@#@+##o#+#+o##O*#*$*#o*1#1o1+&1$-20n#xsxxkxlz919931133-1#*1-1*-####@*#@#O@O@@@Oo@@@ooXX.o .X. .  X",
"oXoXo+Xoo+@@===2=&@@&-@####++O#@+##Ooo#o**O#*+$++#@@OoO#+$+##-1q-1j2sIxxs999999939--#17-$-*11*=*##@#####O@@@Ooo@@@XOooo.X..X    ",
"OOooXo+O+=@*@1<<@=&&@@####+O#@$++o+#@o+++@o+++##@+o@++=O-#$+#1--1-1w1IzxRIsxllzzs-9913-1--#-*-#*######@#O**@@@@@@@@OoXXX..X.. X ",
"OOXooO+++@+@2@=@@&@@@@+Oo#o@oOoo+O+#o@O@+#+O$O#O#$+1$o*oOoo#####*1-16-P0k7zxkk9kp931932-=1#-*#***#**#**#O#@oOo@Ooo@ooXOoo . .  .",
"XXO@Oo++o===-&-@&@&o@O+@+ooooooO*o+@+++=O++#$o*+#o*$=#+@@1*++O*#-&-*#6-nsRz9xss999z297131#*-=-*#*#***#*##@O@@@O@@o@@ooooX..o.   ",
"XOooOO+@=@@-&@@@@*O@+oOOoo#o+O#+@@*$++#*-+-1-#$&-1*#&+*=++#$o@+##-1----9aU<RR99xl9lps#9177-=#1**#*1##@&**###@&O@@o@ooo@oX.... XX",
"OoXOOoO>@<1<<@&@@@@@oooooXoo#++++*+=1#=*----1-*111--+1*O#@&*o*O+$#o##-#-$-z-xxzlzssxp1s31231#*1#*-**#*##*#@##@o@o##oooooooXX..X ",
"oo++@+=@<+=+@@@@oOooOOOO#+###+*@#**1-*1-171-111---#-16--1111<#@$O*++@+,#-179RxkR9p-sxp9z9*3#1#1-1#***#####*###oO@@@o@o@oX@oo.X.X",
"OO++O@@=O&@#@@OOoOoOo+Xo+##@=*##*11#1-2----qr&-q-3r331*17-=16-+-&**-#OOq-<--9RzRxUzp9z99-91711111=#*#**###*@###@@#@@OooooXXOX.X ",
"oooO+@=&@&@OOoXXXXoXOo+#=O+*=#-=1-1#--3-6w-3-qf7---09a910--1#--*&=,+&*7+-#--9<a9k9zxsxz907-339111-#1**#**@**@OO&oooOo@@ooXo@o ..",
"oO+O@*&=@@&Oo+oX+ooOo##**#*#11#-1-3-32f5-93azbj9999zanbj39z--77611--$$$#-&----s93kz9zsxz-9313<1=#-1**=#**#*####%@#o@@@@oooXo....",
"OoOO&*@*@@o+oXoo+X+OO#=###=1-*-1-1332<r63r9j9<hvr9nbnsnxbn-zd#-3-q---#<o#O##$--0GaR9Up9saa19213*13-*#**#***#**#@#oO@@O@@oooO X  ",
"OoO@@@@@ooO@oOoOoX+#$$#1#*1*11<-33a-2a1*<bs#3gxa0banz9az7n9n3a939-1##&7+++#$-#-79xax9lxxlpp913771#7**###$####O###oOo@@O@@@XXoXO ",
"Oo@@&O@@ooOX@XoOO##*****1-1-*-2-9137nh-s#3dgb,r-r6aKCL9CnxCnkaaznq93--3#-@1#&--7a7aG9zzzxs991-11-1*1*-#*5,#*#####O@@Oo@@ooXX oX ",
"@Oo@@@@@oooXoXo##O##*#**1*-*#07=23s<q-#r2>#3399w51a=b7zLN9Lxnj9x3a99#-*3@++O-#-$339zPkRlaxxs3-231313#$##*****##@###o@@oO@.XXX Xo",
"oO@@O&@OoXoXoO#o@#####=###7#73$3>#,,*2<-13#1117j=j6>#--3an9L/nCLjnzj<9-7--++#+-----09z9Ulxxssx2*-1-*1**-*5**#*#O#@O@oo@@@XXXXXX ",
"Ooo@@&@@oXXoo@@###*#**1--7#29=e*>2<+#2#**$<4##$--$1-#w1wgs3bT!lxLnza9393--9&+@$+--a3zaxIxx9lzp39210-71<#*5*#*#*###O*@O@@@oo@.oo+",
"O@@@O@oXXoo@O@####***1**#*-7#,$<2*#$*++#&**++<$$-1&w10#g1gqhvjIxnZbajj93-9-####+#+7=a9xxIRzps19722717*1#*5#5*###O#@#o@@@oooX. .o",
"o@@@OXXoXoo#O#####*$**#1#1<<<>=$@**###=#+$#=*=#**=&+-=3&*erg9bnRInLLxz99<3*#&#=$$&3#ll9xxRxzs7s9032---*-*#15**#*#OO##@@OO@oo@@X.",
"@o@oXXXXX@oO###@#=*2*33#-##*#=#*##+*+$$+##1=*$<&&73<-#3q66757jgn9Qnn_kdz99<*#--##177-szxURxx3s9s<-77-1*-*##5**##*#O##@oOooXoOooX",
"o@o@XOXOoooO######*1$1$#<#=###+=+#$+o#$=#$*+3-19+<138<q72<fwq>6jnjQnnEn<399---+#+-&1-a-9sRxxxzpz997&712#1*##5#$*##@##@@ooOXoXXXX",
"@@O@XXo@ooO##@*#**3*#*###=###$*+&$+#&--1732w3-1w<#aesr50j2--94b2rrj)^Rlsx69<---@@#-=$0zsPxRxzx-z103-1*21****##**#@@###@@oX@X.o.O",
"@+OXXooXo####*#****=*=*##*##OoO$+++$=**3--#7z9x*qnwppb3v93w3g3rxrnn^Cn/Px939$9<###$-s73azlRaU9kx92p7*1*2=11,**=###*###@O@O.XOXXo",
"oOooXooo@O###@1*$*1#<#*#*+*+o##@#+=-117#f31ggn339xLnbn1cnnvpp4-6pgjC)x`Rxx9F69--&$#=-37$xsxW^xsx2372111-1**e***#######@@@oO.XX.O",
"@o@XoXoOO#O#**###7#<=##*$o$@o+++*#1*we1g1hnjvgvvnngaxLcsp*wv--q3&bLxL/n'Ran<363-#++$&=07sx^RWRsz07a-212-1*15******###*#oO@XoX...",
"OOoXoooo@O###**11#**####++oo@#11-2ww2wfnfgjxrLCnLLLQnCxxnsnxv>3n<6vrLnQRRRI3R-9q###-#-13szzUxPxaz77s-*211*#5*,#**##@@#Oo@XO+XXX.",
"OOoXo@Oo##@##**=-*#*$+#@#O*#@+11r61fr72cvvbnQCn9nLLLnnLLRnnhx1w6qv6wLC^Q]~RR9<<-$#+$+&19xadE~^ksax031373-21##5#*##*#####O@XoXX@o",
"@OXX+@X@+##@#2-2**###+$ooo@$$1,f1rwf1gfnsbjjZZnLn_nnLLxnZnzCs7hq6-6g5BaR_QnpPr-9-3+@-+197zIx!^xs210731*1*7*1*****#*#@#*@@OoXXXoO",
"XXXXX@o@#@#**$*****$#@$$++1,wrf3-f63vsppnUx^^nnnQQQ^_n_Zx~LZbnjrggqv9Ln^(`xQRj#-#$*+$-=73axUH^xxsxl3317111*#w**=*###*###ooooXXoX",
"oooXO+X@$###*2*###*#*o@O+$#17-16-*wa3w1ns9R^/^nQQ^^n^n!/_xLCCnnnrvrn6nznQ~/x3#3q-3$+-&9-#-xCRx^llxa72-07131-5**#**####*#@@Ooo.o.",
"O@XXOX@#@##@#***$*#$+#++o*-1w62-11r9djRnnnnn`]]]R[]{][L!^xL(Cn~vnn7bLC9LQ`nRz9#####$+@&=2lss~URls9s203121-15=**,#*####@##@oOOXX.",
"XXXOO@@#@##***=##$+@OooO**1f17-#30rsgQxk^![^{{`{{{`{{{{{{_)/ZsLLng6-xnrQ_{RRPp9$9-$+$&&=-0xZR^lxxs920--771*****##****####@OXoo@X",
"XoXXO@O##=##**#*+$oooO*@6=6-#-#w3wxvRrx{n{{{{{{[{^]{{``{]WQnLLnnLjnDnLn9L^)3na9<#3##+----xss~WRxsxsk-d3p22*115,**#=###@#OOoXXX.o",
"XXXOO@@##@@**#&$O+o$o#;,*#-7--w-7s7nh^{xn{/{])n`x6n)L]/{`{{()/LLngngvnnQ{{RxIc<9>1+#@+&7#9xxC~xs0Z0a7a11p71*15*****###@##oooXOXo",
"XX+X@@@####*#$o*Xo+O#+5&*317-1qw9sfz^x{]]!nQUZnnnCLLLnn]{{{^xL~LLnngdLLx_{`^nj<92w@#@-=7#1xsE^QUExx8zas-021**5**=**######oOoXX.X",
"oXoX@@+#*#**+#+O+O@@;*5*21*-7ewfs7nzn`[~nnzZb7nDbCnxpnQQ{[|{Q`ZnLngxLZnz!])Rn99<1#+$+@-7110zZx^RBZk30-px2p1-##**#*#####@O#oooXX@",
"Xo+@O@+##*#+@+@@$+$o*w>=***--w-3nan/`!^xP^nZhLnLLhCnnnn)^}}|{{QLxLLanLjn{)^Rnx<9#1+++&#$alxZERUxWxsx3177d71*11*5*#*####O#+@@Xo@o",
"XOOO@+####@*+X+X++=;55*1<*-q1wfsv9Q`]``nr^L6nLK66hLLnxn])^)}}]ZLLn,Z,LL^Q{QnjT99###@&+7-zzZxzQURxZsxd-3p*101-55#**#*#####oXXOoXX",
"OOX@O@@##**#.O+@o#@5+<*21#1611asjnnx[xnnwLbgLq77Lg8hC6^Q)^||{{[L'nLjnrnR'{{!90h<1###=&-958hxjQ^WxZZxldd-1-a*1=*1*#*##*##@O@XXXX.",
"XXOO@@##@##+@o@#+$#*5*1#-11e-7fjnn^`^)zbLLLL6DAqh##g97xxx)|||){LxLLLLQL[`C{nw><9,##@&&-7rsNsMxRxWxZ<3<7d7p*1**i*#**####OOOoXXo..",
"X+O@@@@##*#o#+o++o5>w<#*-1-w7nf9nx`]QnnShLbfggq55>g=>nlnn]{||'xLLnKnLnRnQ{^Qw<9>###&#=#qrzexRQURzspx0x-2d711*5=**#$*###@+oXOoX.X",
"OO@O@@#*#O#XX.Xo$5#;=3=##-=0*wnvnRQ))zUjbgh6D6ggqg6h=nxWn){||{nZLhnnnRn``{Qjbj1<##+&##6#0-ZV]!!~sZdx33sp7#1=*5**#$#*#*O#OOXX@Xoo",
"OOOO#@###o.+o@@#$5**2*1*1-w#wjzcx^Qx)ZLjaL-K666-g6hlngnnxxQ|}{{CLLL!LQ)n{xvE9hrw@#+#-#6#hsiZ)R/^xZdkap12p711w*5**##*#*#XoOo@X..o",
"X+O+@@##*oooo++$#5#2**#*#-111bzxnx`^)rnbzga6-6##<#=-6LnLxx{||xnLhnPL_R{{))nQ99<3####-#60giNZz^!`ZZlzkd327110=***##=##&##O#XX.OX.",
"OOO@@@#+OX+oOoO+>5*21=#*171qr6ssn^RW_LnjgAi6#6,###*,,nnbx^{}|]L7(nnR}{|[[R9n<<<r#:####76g6Nzn`WxZlssd223-811*5#=*#*####O#O.Xo+.X",
"o@OO@@#Xoo+XX@o*##*=##-**$1-g8wnjz`^^Zjju36-1-#-##g-7rNxn^{|)]ZULxz{}}}`^~nnj<<1,+###76<=7Zz^Q`QZZBxz-3-07*15*****##=###@O.+XX.X",
"OOO#@@O#XooXo+*$=#,#*****-#-fsjnaR^!{Lnwrr6#6-#####=-jLbR/|{n]ZZLL^{||~^^nLlr99a$,#$=-g7NL/'`xW~Ldxx8ds1*-1*w****#=#&##@++XXXO..",
"OO@@@@O#++oO.O;*5**1**-1#11-g1wnzQUxzzL1DD<3##$<##,36idxnR{]]LLLZ!`'|{}{(xbs9j<>,$#=,7-7jB!U`R^Zknxaad=71*5*w*1*########+++...X.",
"OOOO@@+oXo+.o#$5*#1#*#1#1*-1rf0gxR`^Rhjwsw,-##-###--=Zdgn!{}LL,Bn~^|}})`RLsj930=$7#7#-iNN/5x{^UnxZxs313-p-11*-***=**###OOXOX..o.",
"@@+OoOoo.+oo#O;*+***1*--##37r10n7z!IxRLN6M<--#-####-7Ladn^`{LLLLz^{{|{`_/x(R9j#977-#7DN9L1)Z]QnnZsz203130w*w1#***##=##+#O+.X...+",
"OO@O@oOXoX.+O+***=1#**1$-1--gb0ejRx`x9zDb<-6-##O+=--7Ln<n`!{ZKbnQRQ|}{Q/LxnLb39zag-iyyiALL')]RxdnZ0al1=10151=-*=####*#+o+.+.Xo.O",
"X@O@XOOoXo&Oo*$5*#******#1*76sn0dnU^Qjfr2g---##+##-==B-5p)^]aZLZn)[|}{~_'Lx9x9ratiyg7y3dnnx]QnxZL01x3a1a1w1-***#***##@OO#X.O.o.o",
"XO@o+XoXo+++$@+*,$=#11#1#=177jb1xz)I1nnJr62#-+-O###*ySBxn{_{LALn7)x{{`[[xCCxCxaN#at-7B7Zn!]QInxsxax2p13115-1*1**#$#####X.o.X.XO.",
"@OOO@O.oXooOo$$5##****1*--1-jwj2cRxRR8nL062-----#$#<-30Ln`Ln{LbakxQ{|{{(]/CxLjni6NqD77Zz]`)]UxnLnzx--7--f111*#**#=##*OoOoXX.OX.o",
"O+@X@.OoXX.O$+5#=**#*=-*--17fjsn2xQRsTBm16#---O+####57aZRQ^{LKgjbn^`W)^/)^!~CgBt9D#ytALRL/^nxzaLapzs7101*-*==#*#####@#O#XX...XOo",
"@+OOO@Xo#oooO*5*$#*#*#--#1-11wn1jPdnxn~wrrr#--#+##q#-qagnQ`nLn2bjnI))`{R{n`RCCjCZM7JE{x^`]RxZnLd0x-830*561*1*#=#*$#O#Xo+XO.X.X.X",
"O@O@O.XoooXo##5******#=*---310j10b2RljZ31r--#-######-=L0NQ/ZnL5nzzzRQR{{{!QRILCz*ZLZL`Z_)QQxnnx10z731-311***q*=###*#++OXX..X.X@O",
"@+OoO...+oo#>*#5**#1**-#*-123j01rwxQQxxj3z6-#-++#-$#,ggxb_^LZgLj5nkjZnn`n[{RR`^CLL^)]]_lU!QnnBn90830q#55**-**#>#*##+Oo+o......X@",
"@@O@X.+O.ooo%#*#*#=#*##1*#--11sfrhsRRnq87-7,--#--##-#2g0jRsnnBr67jaZn^n!(W`[{)]{nZZx]]nx^xZLz39s71xw1w5*1##=5*###@#OOO.X....XoXo",
"OOOOo.oXXOXO*#*****#1*#**--#33*dbnpRRRRnn833-#+-+##6#=6BbQQZL3,hnsnjZLnnn]`^]^`Q^^`)nn~xn/xndzx3x90-w11155*5**####oo#o.X..XXOX@@",
"o@ooo..XO@Oo>;****#1=*#-*##-671NzznxRInnj76-#---####-#-LLZ^/LLn1,jg0nx~xL^!]nQR]`Q^RRQx/~xkxzz3pzweq*115**#*11###$O+Xo+X.XXoooX+",
"oOXX@..X.X##O+*#*=#***11###<-#-3f7exaRQxn3<--#-OO####4##z^pLLLn6az-79b9nnn!RxQ!Q!Q^/_x~nxZx7xx=3-1-11**#**#=O##+OOXoXXX.X.XXXoo@",
"X+O@+..X+oXo+>*#**###*#<-*-*rp-3f3<x*HRsnjr-r3#-<#####,D6PRQQZj64-q1jzd9Zx!R/nQRLx~xnzLkLlx0d1*rw5-***-5*5*,,#++o+OOXX....Xoo@@@",
"OOO .o.X@.oXO*4#***=**#1*1#<#112-fxpxznxn--6q<-#-+###7#7ARrZnnbr==-awghngBnjnZ/ZzQxnxxnxpxax1-g-6151w#5**5##O$O++OoXX.o.oXOo@@@@",
"oOO..O..XoOOOO**##**#2*#1##3#1q3r3s0p0IRn03-<--#-##+####ArQb/L-j7--5$355n2Lnzxx!xL~nPxirrsl210w511w6*5=*5#=+#o+##++X.XXXXoo@o++@",
"OXXOX@X.O.@oO4>***###***#*--1-13f3ffxzxzIdn0<-#<##+####-=Mhs/nDb3-7*=r6jjb7bBacxx0Z-ZKnxaec#w*w=-ww*w##5##oOOooooXX.X..X+Xoo@o&@",
"O.OXo.OOoOO#O#***=**#**#*#1-#21#3-36x73nxRh0x--#--#+##,1#,0/RQLns,-q&-3b,551vj0nLcxwa6j*z01*wj*1e**16*#1#*#O+@oOo..XoXOoOo@@&+&@",
"o@XXX.XXooo#O+>+*##*#**=#*#-#-f-w12732las0nk71---###+-##r,ajQ^nL7r65$q#0yf3jnnjxf0rn=772n-1y7=616*q##**##+###oXoXoXo..XOoOoo@o@O",
"ooo....X..XOo@##&**#***##=###-737rf39x2jRzsjah---#-##-##r#-hcx^xnwg71306-6r7fnn2pb-3djg5-11*w1w1*5**#$#++&O+ooXX.Xo.XOooo@@@@&@O",
".O@OX.X.O.o@O+##**###****-*$##*-173r937zRnR8kw3--1##OO+-#,-63LdZnnq7---#>5j=wjgmn==2wp*2*-5,j1*5*1*#*###ooOOoX.XX.ooOoO@o@@o&@@+",
"XXXOXO.X+O.o@O#@*##O#****#*##$-7,3,r31n30nxQ1979--<##+###,6,,Rb/Lfj6--#-=*#-->5e*e5wg#g#w5q**5w#,####OoO@OXOoXXo.@OoX@@@@@@@@@O+",
"o.oO.....O..&o#*@######=**-1#-###13-35z*s3xsnz33#3#-+#$#+#,#5-7anxz67zz&--#;-*qw>6w55r,qj55=#**=#*$##O*+OoX.XXoOOOOoOoOoo@&+&@O+",
".oo..X..o...XOo#*#O*####$****-$*367r1-9722nRIn39-#1#-$##O+#w,63RvQkz6-37#7>-+-110#==2#,*-*####*@*@OO@XoOo.oX.+.Oo#@@@@@@@&o@@O.+",
"o.O...XO+OooO@@#@#*O*=###**#$*#-33=616#3s7annn9302---#-##+#;--6=9,Phja9r---7-+-####$2**##*$#=+###+OOOooXoX.X++#XOOO@@o&@@o@oO+oo",
"ooo  ..XOXoXoo@O***@##$#*#$*#*###-3r--w#e339lRzn01#--###-###,--1naxYnjr3-7$q---O######$*#@###*##+$oo#ooOO.+o.OOO@&o@@@@@@$@@o+Xo",
".o.X.X.X..XoX@O@#@@##@*##$#$*1-*#**-31-78e70gxxkj7-3#3--##+#-#,w66xn0zz6---#-@#-O##-#*##O@@@@OoXOoooXOXo.Oo+O+O#@@O@@o&@@+@@o+Xo",
"+.X. ..XXXXX&oOo@#*##@*#***#*#-#-16#3-7*771de7nzz00-#--1--;#---#76eejc00-n-#-##-#O#@#O@##o@@@o@ooOo+oXX.+OO+O&O&@@@&@&@@@@@o++..",
".oX...XXo.+XXO+OoO*@O#O#####*$$###-5##--#g1=01naxz18-#----+#+,#-#-#e7anz2000--,#@##OO@#@@#@@o@#OoOooooXoOO#OOO#@Oo&@@@@@@@@oXoXX",
"o..O..OXXXXX.O@oO@#@O#O@##=###*#1#,#--##-#e3g#jgsj8007#-0-#-#+,#-#-gceana3-3#1--##OO-O###OO@OOOOO+OoooO+#O#O#*@oo@@@=@+@+ooXXooX",
".X.o.o..X.OO.O+XOo@#O##*O#$****##=#w*w#3#1-#ew00a0nn1h6##---O-O##7##1nw5n7az--1-##-@#O-#O@#OOO#@$#O+###OO#O@#@&#&=@=@@+@+oo..o.o",
".o.X X..XO XOX@o@@@@*O#*&##&#=#-####-#,-#1337-jr0jl*803#0##-#+##+-###,e7jwa3>v#--#----O#-###-@######O#O##OO#@&@@@@@@+@@@OX++oXo.",
"..o.X XoOX.oo.XoOX@O@#O##O##*####1###1=,#*--#-pg=0ak0l01#0---#++#,-#-6#6epbx3ga---1#-1-##-#OOO#O####@#@#&#*@@@@@@@=+@+@O+XoXXX.o",
".o.X ooX X.XXX.@ooOo&@O@#O#*###=##*=######2#1-71r07s03x#0##--###;#+-###06,wpa-g31-g----7-#-#--###$###*####@#@&@<#=@O@@@.oo+Xoo..",
".o..X.. .XoOX.X.Oo@o@@@OO#O#&####=#-#=1,-###11*-3r07k0ds0-###-##-+#,##,#-0,#kd1eg3-e,--->---###-##<*<#####@@@<@<@@@@@@oooo.oXXX.",
"X... .X.o.X.OO.XOXOO&O@*O&#&#***####*####-##13##--6kw-00-0-*---##,#+-#@##-#,-a0-213--661-711g167-3<#<-21<@<=&@@@@@%@+@++X..ooo.X",
".o..XoXXXXX.o..XX#XXX@o@@#O#*O#O####*#,##16-1###3#02n<lnx80#0##8-+-##+#-#6#,-#066-w233771-6w511-11--<<*<<@=@@=@@@+XX@++..oXo.ooX",
"O.o..o...X  XX..XXX@O@#+oO#OO&@#O##O#1=,##->#1-1#3--3g70n0-80#-#####-O+OOO#@6#--j0-8,-ww21eg7-1-3<#-##=3==1@@@@+@@@oo.+.ooXoX. O",
".X.X..X....X.....Ooo&Oo@@@@#O#*&*@#*##*####-##1--#11#7p0pss120#0##-+--#-#@#O#6#-O-w-h-66g---1y61--<31<@=@--@@@@@oO&o+o.oO.oo.O.O",
" o..o.o. X...oOX..o@ooX@@Xo@@#######****#*#5-6,##1-#-3300dsldss8s0-########OOO@O#O-#-8-###16-1==-1--=<=-@@@@o@@@o@+oo.oo..X.OXXo",
"X.o... .X ......X..XXOOo@O@o#O@O@#@###**##########71#1-#3s-0101s0#-###+##O#-O####@###--#---#--##*##=@@@@@@@@@@&@@OXX.oo+X+o.oOOX",
"O .XX ...X XXo.X...X&o@O@@o@@&o##@***O#O@*#*-*#6##-##--13-2s-3#000801##00O#O@#O###O#@#O-#OO#@-###@@@@-@@@@@oo&oXX.+XX+ooX+Ooo.oX",
"XX.. X.O . ..o...X.XXOO@XoXOXO@&OO*O*O***@*#*-*5#,##117=2-7--s---0800#3=#-######O###OOOOOO@OO#O#@@#@@#o@@o@o@oXo..X..++.oOoo.XXo",
"XX X ..X ..  .oX.XX.XXoXOOO@X@X@X@@O#*@@###*#*--1*,#*##717-7-802s0s=#011810-##-#-##OO#O#O#OOO#@o@&o@oooooooo;oo@o.+oX+O#OOOOoo..",
"oXX..X.X X .. ...X.OXX@XOOX@o@@@@oooO@*##@####*#*-*,#-*#1=1-1#71-&0ss3s80##0#-O--#@####*O#O&Ooo@@ooo*@@o@@&oooOOoo++&O#XOoOo.X.X",
"X X.X.X.X.X  . ..o..XoooXoX@@@@oO@Oo&###O*@###@***1#**##*-12--#1#101-=01a07=0-0-#@7##-=#--Ooo@Ooo@&oo@@@o@ooOO@OO@$$OOOOOoOoXoXo",
".. X  Xo.   X . ...o XOoX+OXoXO&&@o@o@@@*O@@@##*@#*>*>**####1=11*137007008=000@*07810#-#*=oO-@o@*&o@@o@o&ooooOO&O+$OOOOOOOO.oOXX",
".. .X  ..X ..  X. X..oO@OXXXXXXo@#ooo@@@@&*OO**####@1*@#*#*#111=3=1110-2=0000&000*0@@**1@&@@-@1#@@@o@@@O@@@OO&@O+$OOoOOOOXoo.oX.",
".X.. . X .        X.o..ooXXXX@oOX@oOoXOoO@OOOOo#*#O##>*>#*#2####7#*1@--=202-=0@1000#-00@00@@=@@1@=&@==@@@@-O#@*&+*OOoOOOOo..X.X ",
"  . ... .  o.  X X XXX.XoXoXXOXOo@@Oooo@Oo@@O@o#@@##OO*#@>**@*###=###@#1=##=##8003-0==--0*=000**===*==@-*OO@*@-O**oOOOO.XXX.OX  ",
". ..O. . .  .     X...X..OXXooOoXoXOo#Oooo#+@ooooOoO*##>##*@###@***#1#=*-=-*-=@&@&0-&*1*@*&*@=-=@*&=@&O=#@*--@#O%OoOXoooX..Xo.X ",
".  . . .   .. XOo. .X.o...o.oXXXX@X@Oo@O@ooo@o@Oo@Ooooo@#5##*#*###@@*###@@&&7=@1*-*--@@@@=*@-1=*@@=&O*1OO@#@@#XXXOXOO..%XXXX. ..",
"XX  ... O ....   .. .X .X.XXXXX.o@XO@@oXXoOoOO@oooO@o&&O@@@&@@@@&oO@@@@*@@@@&1&&&-*@@&@@@@@O@@-*@&&@O@&-#@#;OOOOoO+O.ooo..X .X o",
"o  . ..X..  . .  XX.X... . X+XoXooOXXXXoXo@O@oo@@o@@@Oo@oo*ooo*&@o#@O@@o@@@#&@&@@&&@@@@@-@@@&**@&OOO##@OO@OOOOOOOOooOoX.XX .XX. ",
"Xo  Xo ..   .  oX.X oX.. .....o..XXoooXooXoooooo@@@Oo#@o@o@#o@@O@@@O@@oOo@&&@@@@@@@&@&#@&&&@@@;O#@#@&O#@ooOOoOOOOoXooooXX.     .",
"o X X o .X   ... oo....X .oX.Xo.@o.XoOoooXooXOoo@o@o@ooooO@@@O@@@OOo*@@@@@@@@@@@@O&@@@@@@@@O@@OO@O@#@o@OOOOOXXXXooo.oooX o   . .",
" .X.  .  ..  .....o OX.....Xo .o..oXo@XoXoXOooo@Oooo@@Oooo@@XoooOo@@oo@o@@o@&@@@@@@@@@@@@o@OOOOOO@@O@O.OOOOXOoo.oXooo.o ...  .  ",
"oo .o X. . .   .oX.X.X.o OX..+..o X.oooXXXOooooXooo@o@Oo@@@@@o@oo@@ooo@oo@@@@@o@@o@o@@@oO@O@@O@OoOO@oOOXOOXOXXoXXXooX    . Xo.o."
};
