/* XPM */
static char *result[] = {
/* columns rows colors chars-per-pixel */
"36 36 18 1 ",
"  c #5D2DFF",
". c #5E2DFF",
"X c #5F2DFF",
"o c #5E2EFF",
"O c #5F2EFF",
"+ c #602EFF",
"@ c #602FFF",
"# c #612FFF",
"$ c #622FFF",
"% c #632FFF",
"& c #6230FF",
"* c #6330FF",
"= c #6430FF",
"- c #6530FF",
"; c #6631FF",
": c #6732FF",
"> c #6B34FF",
", c None",
/* pixels */
",,,,,,,,,,,,,,,,,,,,,,,,,,,,,,,,,,,,",
",,,,,,,,,,,,,,,,,,,,,,,,,,,,,,,,,,,,",
",,,,,,,,,,,,,,,.o..o ,,,,,,,,,,,,,,,",
",,,,,,,,,,,,. =-=**=-= .,,,,,,,,,,,,",
",,,,,,,,,,.=%. .      .%=.,,,,,,,,,,",
",,,,,,,,O*$.o  XO++OX  o.$% ,,,,,,,,",
",,,,,,,o;oo.O#&******&#O.oo; ,,,,,,,",
",,,,,,o;...#%**********%#...;.,,,,,,",
",,,,,.;..o***************&o..; ,,,,,",
",,,,,*o.o&****************&o.o%,,,,,",
",,,,.$o.********************.o$.,,,,",
",,,,=..#********************#..=,,,,",
",,,.%oO%*********::*********%Oo%.,,,",
",,,.. #*********>%&>*********# . ,,,",
",,,=  &********>%,,&>********&  =,,,",
",,.-.X********>$,,,,&>********X.- ,,",
",,o= O*******>%,,,,,,&>*******O =o,,",
",,.* @******:%,,,,,,,,&:******@ *.,,",
",,.* @******:&,,,,,,,,*:******@ *.,,",
",,o= O*******>&,,,,,,*>*******O =o,,",
",, - X********>&,,,,*>********X.- ,,",
",,,=  &********>&,,*>********&  =,,,",
",,, . #*********>&*>*********# . ,,,",
",,,.%oo%*********::*********%Oo%.,,,",
",,,,=..#********************#..=,,,,",
",,,,.$o.*******************&.o$ ,,,,",
",,,,,%o.o&****************&o.o%,,,,,",
",,,,, ;..o***************&o..;O,,,,,",
",,,,,, ;...#%**********%#...;.,,,,,,",
",,,,,,,.;oo.O#&******&#o.oo;.,,,,,,,",
",,,,,,,, %$.o .XO@@OX. o.$%O,,,,,,,,",
",,,,,,,,,,.=%.        .%=o,,,,,,,,,,",
",,,,,,,,,,,,. =-=**=-=..,,,,,,,,,,,,",
",,,,,,,,,,,,,,, o..o ,,,,,,,,,,,,,,,",
",,,,,,,,,,,,,,,,,,,,,,,,,,,,,,,,,,,,",
",,,,,,,,,,,,,,,,,,,,,,,,,,,,,,,,,,,,"
};
