/* XPM */
static char *result[] = {
/* columns rows colors chars-per-pixel */
"39 40 240 2 ",
"   c #000000",
".  c #0C0201",
"X  c #0A030F",
"o  c #140200",
"O  c #090414",
"+  c #02021D",
"@  c #0A061B",
"#  c #0A0919",
"$  c #130413",
"%  c #010123",
"&  c #0C0A25",
"*  c #01022B",
"=  c #0C0C2B",
"-  c #050A28",
";  c #120C2A",
":  c #140B24",
">  c #0F122E",
",  c #14112C",
"<  c #010232",
"1  c #0D0E32",
"2  c #00033E",
"3  c #020B35",
"4  c #0E1135",
"5  c #0D123B",
"6  c #071132",
"7  c #121234",
"8  c #12143B",
"9  c #1A1736",
"0  c #00203F",
"q  c #000343",
"w  c #020A48",
"e  c #0D1542",
"r  c #09144B",
"t  c #121643",
"y  c #151945",
"u  c #1B1B43",
"i  c #151A4C",
"p  c #1A1D4C",
"a  c #151749",
"s  c #02015C",
"d  c #000855",
"f  c #071657",
"g  c #141D53",
"h  c #1A1E53",
"j  c #14185A",
"k  c #190C48",
"l  c #291F4C",
"z  c #1B225A",
"x  c #192356",
"c  c #0A224E",
"v  c #232353",
"b  c #22245A",
"n  c #252857",
"m  c #2F2745",
"M  c #000066",
"N  c #00166A",
"B  c #000577",
"V  c #011675",
"C  c #191C62",
"Z  c #221E64",
"A  c #1B2563",
"S  c #1A256A",
"D  c #1D296C",
"F  c #132062",
"G  c #003367",
"H  c #072879",
"J  c #1B2976",
"K  c #053377",
"L  c #062B6C",
"P  c #222763",
"I  c #242B6C",
"U  c #262A6A",
"Y  c #2B326A",
"T  c #343868",
"R  c #232D73",
"E  c #212D7C",
"W  c #2B2D74",
"Q  c #23317C",
"!  c #2A337B",
"~  c #2B3376",
"^  c #343776",
"/  c #302F74",
"(  c #384778",
")  c #43487A",
"_  c #000287",
"`  c #001B84",
"'  c #001C93",
"]  c #00288A",
"[  c #1A2986",
"{  c #023798",
"}  c #183B9C",
"|  c #143091",
" . c #243384",
".. c #2A3487",
"X. c #24348B",
"o. c #2B398A",
"O. c #363B8A",
"+. c #2B3A92",
"@. c #263996",
"#. c #363D95",
"$. c #2A2D85",
"%. c #0137A7",
"&. c #1D38A4",
"*. c #072DAA",
"=. c #253EA3",
"-. c #2B39AA",
";. c #413F91",
":. c #35448D",
">. c #3C4384",
",. c #384699",
"<. c #364D96",
"1. c #0849B1",
"2. c #2D42A3",
"3. c #2C43AB",
"4. c #2746A7",
"5. c #3348A4",
"6. c #3950AB",
"7. c #2C46B3",
"8. c #364BB6",
"9. c #3B53B5",
"0. c #454A83",
"q. c #424B98",
"w. c #565B9A",
"e. c #525391",
"r. c #4654AB",
"t. c #5559A8",
"y. c #4759B8",
"u. c #4C51A9",
"i. c #6A5CA0",
"p. c #5A62A9",
"a. c #5962B8",
"s. c #656CA9",
"d. c #6469B5",
"f. c #7077BC",
"g. c #001FCF",
"h. c #002DDA",
"j. c #184ECD",
"k. c #2847C9",
"l. c #334BC8",
"z. c #2951C7",
"x. c #3858C8",
"c. c #2849DD",
"v. c #3858D7",
"b. c #3C67CF",
"n. c #005AE5",
"m. c #1156F2",
"M. c #345EE9",
"N. c #2E5CF9",
"B. c #0068E9",
"V. c #3466F2",
"C. c #4259C7",
"Z. c #575BC5",
"A. c #465CD3",
"S. c #615ED0",
"D. c #5C68C8",
"F. c #4A69D5",
"G. c #556AD9",
"H. c #5973CB",
"J. c #6F75C8",
"K. c #7878CC",
"L. c #6975D4",
"P. c #797ADF",
"I. c #6F6CD0",
"U. c #4A68EB",
"Y. c #526AE8",
"T. c #4566F4",
"R. c #4A78FF",
"E. c #5A76FA",
"W. c #546FEE",
"Q. c #697AE6",
"!. c #7777E7",
"~. c #6B6DFF",
"^. c #667BFA",
"/. c #7679FF",
"(. c #676BEA",
"). c #897CDB",
"_. c #8775CA",
"`. c #8B7EE2",
"'. c #5B87FF",
"]. c #5A99FF",
"[. c #7989EB",
"{. c #6988FD",
"}. c #7987FC",
"|. c #699AFF",
" X c #6E8CEC",
".X c #6AA9FF",
"XX c #7CB3FF",
"oX c #9181CB",
"OX c #9A8DD0",
"+X c #8685E8",
"@X c #9893EA",
"#X c #828BFF",
"$X c #8B8AFE",
"%X c #8B83FA",
"&X c #988AF8",
"*X c #8D93FF",
"=X c #8997FC",
"-X c #9B95FF",
";X c #939BFF",
":X c #9896FA",
">X c #9286E7",
",X c #AB9CFF",
"<X c #A497FE",
"1X c #B79DFF",
"2X c #A589F1",
"3X c #88A6FF",
"4X c #94A3FF",
"5X c #9BA4FF",
"6X c #98ABFF",
"7X c #87B3FF",
"8X c #9AB5FF",
"9X c #ABA3FF",
"0X c #A3AAFF",
"qX c #A5A6FF",
"wX c #BEABFF",
"eX c #B5A7FF",
"rX c #ADB9FF",
"tX c #B5B4FF",
"yX c #BBB7FF",
"uX c #C19AFF",
"iX c #C9ABFF",
"pX c #C4B4FF",
"aX c #CAB6FF",
"sX c #D3BBFF",
"dX c #D9B5FF",
"fX c #E8BEFF",
"gX c #8DC4FF",
"hX c #BDC3FF",
"jX c #C7C6FF",
"kX c #D4C5FF",
"lX c #D9C3FF",
"zX c #D5CDFF",
"xX c #D7D3FF",
"cX c #E8C5FF",
"vX c #FCCDFF",
"bX c #EBD2FF",
"nX c #FFD5FF",
"mX c #FED9FF",
"MX c #F3D5FF",
"NX c None",
/* pixels */
"NXNXNXNXNXNXNXNXNXNXNXNXNXNX; @ + @ 1 4 5 a P = 5 NXNXNXNXNXNXNXNXNXNXNXNXNXNX",
"NXNXNXNXNXNXNXNXNXNXNXNX@ &   7 z A g e 8 7 % 8 7 1 1 NXNXNXNXNXNXNXNXNXNXNXNX",
"NXNXNXNXNXNXNXNXNXNX@ X 4 g #.I z x u : @ ; 8 7 > = & @ 1 NXNXNXNXNXNXNXNXNXNX",
"NXNXNXNXNXNXNXNX# & = z  .D ^ .   % % a h x z . * 7 7 5 7 # S NXNXNXNXNXNXNXNX",
"NXNXNXNXNXNXNXv q t R ..y     o.^ w.e.^ Q z @ T.U.* D p 7 1 7 > NXNXNXNXNXNXNX",
"NXNXNXNXNXNX  j @.x x 9   0.w.y.) ^ 0.P D I J .X{.s ..[ A z t 5 t NXNXNXNXNXNX",
"NXNXNXNXNX>   7.'.o     w.D.s.f f A J +. . .s C.b.$ A i F  ...4 & n NXNXNXNXNX",
"NXNXNXNX8   R.gX|._ Z.:Xr. .d I #.| o.} { @.6.5.J f z I y i I Q E ^ 5 NXNXNXNX",
"NXNXNX6 7   T.|.E.-.=X).d n ! 4.<.t.F.!.+XH.r.C.x.d.T h R u ; J v.1 5 5 NXNXNX",
"NXNXNX= @ S 5 M *.t.s.n 2 Q 7.D.{.pXlXvX0XpXkX,X+X2XQ.8.w b p u h h 8 - NXNXNX",
"NXNX1 O g +.9 H $X[.t.g  .X.{.0XaX-X$X$XR.;X0X<X}.5XiXP.P.s Z 7 9 A S i 1 NXNX",
"NXNX- # D ..  ^ iX:X3 C :.{.pX@Xy.B <.>.$.K V { 8.!.&X&XtX=XR.m r u A i 8 NXNX",
"NXh - 7 J P ; L +Xq.3 =.G.eX`.j.l.c.E.Y.j.] V #.,.o.X.6.:XcXE.3 P 8 8  .g > NX",
"NXe = p 2.R   I.9Xx J Y.tX%X%.A.v.v.tXpX*X,X$XK | #.Q } M.,XiX,.z b 8 g #.b NX",
"NX1 = z X.n   ).eXq 4.4XiXj.M.V.{.8XzXwX^.#X9XrX}.j.X.Y } E.6XP.V Q 8 7 I t NX",
"t t & J +.9 < -X#X< %.;X,Xc.h.}.qX'.hXjXN.M.(.4XeX[.<.7.+.k.b.5XL.J h y p j 5 ",
"3 3 4 @.R v * `.;X:.j.;X#XN.'.4XXXhXMXxX.X'.W.B.iXsXb.l.2. .x.[.;X_ :.& y ..i ",
"W b @ 1 D ^   &X$Xq 8.0X}.N.{.yXbXmXmXmXnX3X.X8.@.9X5XQ.z.X.v.%.>XK.B u =  .g ",
"U l s E.9.$ K ,XuX2 v.0X~.m.XXvXnXbXmXmXmXnX7X.Xg.U.6X}.x.-.y.*._.qXH n & z #.",
"3 # f E.2.v   2XsXK U.rX0X{.zXnXnXnXnXmXnXnXcX8X#XH.cXeX(.5.C.x.] L.<.i 7 h #.",
"p t .   +.I 0 ).iXK.[.aXcXjXzXnXnXnXnXnXnXmXnXyX9XOXcXcX XL.D.^.[ L.y.N , h S ",
"i e # J -.b ~ M +X3X' ~.fX3X.XzXnXmXnXnXnXmXcX{.h._ 1XwX Xx.v.7.S +XD.d u g R ",
"g i % T 0.S R j J.jXy.*.|.jXsX8XhXnXnXnXMXmXkX4XE.*.9X<X=XC.7.8.7 !.t.% p t Q ",
"a h + T f.X.! ~ 2 5X#Xk.W.}.fXnXzXnXmXnXzXmXtXE.8.` qXrXH.Y.3.l.  +XD.  u 7 P ",
"y A 8 % 0.<.~ Q ,.G 6X<X{ _ }.wXfXzXMXbXkXbXpX#X_ j.sX,XG.'.x...i P.u.q 7 7 I ",
"NXD D - v q.| P I ~ H.qX<XI.n.n.].XXzXmXaXpX5Xc.V 9.yX;XD.A.8.R L 2Xt.f v y NX",
"NXa S y r ) r.X.~ :.,.'.*XqX-X;X<XtXvXnXaX4X^.&.1.;XyX[.%.l...t :.+XY W v e NX",
"NX1 R 5 3 l }.W.  :.D F.F.6XqX*XqXkXdXcX.XM.8.V Q.lX).,.8.R R &.[.w.% p = p NX",
"NXNXz :.h o *X;XZ.s I ! 6.I.E.W.1X;X;XK.V ;.%.G.,X[.t.G.v...U V.-Xe.w b 8 NXNX",
"NXNX  O.R - H %X3XQ.} N R 4.3.,.5.#.D.a.] 1.A.iX$Xi.t.v.O.. 1.6Xe.3 u 8 8 NXNX",
"NXNXNX  x @.P r Y J.%Xu.y.J { ' ] ` r.y.S.<XtXJ.G O.C.9...] 3XxX^.| j , NXNXNX",
"NXNXNX& = x +.8.Z d _.OX5X}.$X!.Y.U.&X0XlXdX%.M k b.9.j ,.%.kXxX].-.i A NXNXNX",
"NXNXNXNX& O y 2.3.O.d { e.p.&XeX9X0XyXpXL.( ^.{.U.2.p v   t.@X/.d o $ NXNXNXNX",
"NXNXNXNXNX1 X # J X.O.A.r.2.d :.w.Q d.d.*.V.8X7Xy.F P q oXOX- V 9 a NXNXNXNXNX",
"NXNXNXNXNXNX4 @ O 8 S ,.7.2.#.E =.v.2.k.:.8.M.v.  u a e.s.m w $.4 NXNXNXNXNXNX",
"NXNXNXNXNXNXNXh t # :   = =  .Q Q 2.J I z < 9 v r H w.t.+ y y 8 NXNXNXNXNXNXNX",
"NXNXNXNXNXNXNXNXz 7   7 & 7 @ 7 8 . # . 4 t w S >.d.p.Y u e 7 NXNXNXNXNXNXNXNX",
"NXNXNXNXNXNXNXNXNXNXq.x A p 7 i t 8 9 n A T ^ J.f.)   / b NXNXNXNXNXNXNXNXNXNX",
"NXNXNXNXNXNXNXNXNXNXNXNXA Q X.o. .:.p.e.>.s.>.) 5 < p NXNXNXNXNXNXNXNXNXNXNXNX",
"NXNXNXNXNXNXNXNXNXNXNXNXNXNXA t A A Q ..z r < + e NXNXNXNXNXNXNXNXNXNXNXNXNXNX"
};
