/* XPM */
static char *result[] = {
/* columns rows colors chars-per-pixel */
"20 32 73 1 ",
"  c #000001",
". c #080702",
"X c #03020C",
"o c #040213",
"O c #090316",
"+ c #070418",
"@ c #0C021A",
"# c #0C0B1C",
"$ c #100919",
"% c #0C0521",
"& c #0F0B20",
"* c #120424",
"= c #120B22",
"- c #15062B",
"; c #1B0B2B",
": c #14112E",
"> c #1E0D30",
", c #161232",
"< c #191234",
"1 c #17153A",
"2 c #1A153D",
"3 c #3B3235",
"4 c #3B3239",
"5 c #1E1642",
"6 c #1F1B4B",
"7 c #211746",
"8 c #2C1246",
"9 c #221748",
"0 c #2D1248",
"q c #211C4C",
"w c #29005F",
"e c #251D51",
"r c #281D54",
"t c #321755",
"y c #36195C",
"u c #381B5F",
"i c #3E3340",
"p c #3B1C64",
"a c #292264",
"s c #2E2369",
"d c #31256C",
"f c #342670",
"g c #430C75",
"h c #460E78",
"j c #471C73",
"k c #491D76",
"l c #4B1D79",
"z c #493267",
"x c #4C3569",
"c c #4D217B",
"v c #5B397E",
"b c #5F4C6F",
"n c #551F96",
"m c #521199",
"M c #561F99",
"N c #552197",
"B c #582796",
"V c #572896",
"C c #592997",
"Z c #572199",
"A c #5A2A99",
"S c #663C9F",
"D c #6A429E",
"F c #6B43A1",
"G c #7552A3",
"H c #DEC3CC",
"J c #E2C6CE",
"K c #E5C9CF",
"L c #E5C9D2",
"P c #EACED5",
"I c #ECD0D6",
"U c #EED1D8",
"Y c None",
/* pixels */
"YYYY   . 3LIPPUPYYYY",
"YYYY  o$oiHLJLLLYYYY",
"YY   OtuCADFFDxbLPYY",
"YY X @upCCZZZZwzLLYY",
" X:,17CCddlcdfBSSGLP",
"  :,27AAddkkssBAmSPI",
"  ,,29AAlkoOkkydZFLI",
"  :,29CAlk33kkyjNDHL",
" X:,25ppgvJJbgAApu33",
"  :,25ypgvJJChAApy  ",
"  ,,29CCsdvvdsAAAC;.",
"  :,29CCfsggdfACCV* ",
"YY X25upCCddACpy-*YY",
"YY X25yuCCssAApyX YY",
"YYYY Oyyq7+%sfAC* YY",
"YYYY oyy22 oasCC* YY",
"YYYYYYoO22.osa-*YYYY",
"YYYYYY  21X+aao YYYY",
"YYYY  ;;XX22o+qq  YY",
"YYYY X;; X22Xoqq%@YY",
"YY  ::88;; oqqqekj@ ",
"YY X,<08>; oqeerkk@ ",
"  #$880080;;qekklk@ ",
"  #=800000;>qeklkj@ ",
"YY  &=008080qrlk-OYY",
"YY  #&808888qekkO YY",
"  ####=&XXX+qelk@ YY",
"  ######   Xqekj@ YY",
" .####  YY XqqrqX YY",
"  ####  YY XqqqqX YY",
"YY    YYYYYYXoXoYYYY",
"YY    YYYYYY    YYYY"
};
