/* XPM */
static char *result[] = {
/* columns rows colors chars-per-pixel */
"64 64 248 2 ",
"   c black",
".  c #06030E",
"X  c #0A0513",
"o  c #0C0616",
"O  c #0C0617",
"+  c #0E061A",
"@  c #11091E",
"#  c #130A20",
"$  c #140B22",
"%  c #140B23",
"&  c #180E29",
"*  c #190E29",
"=  c #190F2A",
"-  c #1A0F2B",
";  c #1E1230",
":  c #201333",
">  c #201433",
",  c #211434",
"<  c #25173A",
"1  c #25173B",
"2  c #2D1D46",
"3  c #2E1D46",
"4  c #2F1E47",
"5  c #32214D",
"6  c #352351",
"7  c #372554",
"8  c #382555",
"9  c #392656",
"0  c #392756",
"q  c #392657",
"w  c #3E295D",
"e  c #3E2A5E",
"r  c #402B60",
"t  c #412C61",
"y  c #422D63",
"u  c #432D64",
"i  c #462F69",
"p  c #473069",
"a  c #48306A",
"s  c #4B3370",
"d  c #4F3676",
"f  c #54397C",
"g  c #563B7F",
"h  c #60428D",
"j  c #60428E",
"k  c #61438E",
"l  c #624490",
"z  c #624491",
"x  c #644593",
"c  c #644594",
"v  c #654694",
"b  c #654695",
"n  c #664695",
"m  c #664696",
"M  c #664796",
"N  c #674798",
"B  c #684898",
"V  c #684899",
"C  c #69499A",
"Z  c #6A4A9C",
"A  c #6B4A9D",
"S  c #6C4B9F",
"D  c #6D4B9F",
"F  c #6D4C9F",
"G  c #6D4CA0",
"H  c #6E4DA1",
"J  c #6E4DA2",
"K  c #6F4DA2",
"L  c #704EA4",
"P  c #714FA6",
"I  c #724FA7",
"U  c #7350A8",
"Y  c #7350A9",
"T  c #7451A9",
"R  c #7451AA",
"E  c #7551AA",
"W  c #7551AB",
"Q  c #7552AB",
"!  c #7652AC",
"~  c #7652AD",
"^  c #7653AD",
"/  c #7753AD",
"(  c #7753AE",
")  c #7853AE",
"_  c #7853AF",
"`  c #7854AF",
"'  c #7854B0",
"]  c #7954B0",
"[  c #7954B1",
"{  c #7955B1",
"}  c #7A55B1",
"|  c #7A55B2",
" . c #7B56B3",
".. c #7B56B4",
"X. c #7C56B4",
"o. c #7C56B5",
"O. c #7C57B5",
"+. c #7D57B6",
"@. c #7D57B7",
"#. c #7D58B7",
"$. c #7E58B7",
"%. c #7E58B8",
"&. c #7F58B9",
"*. c #7F59B9",
"=. c #8058BA",
"-. c #8059BA",
";. c #805ABB",
":. c #815ABC",
">. c #825BBD",
",. c #835BBE",
"<. c #835CBF",
"1. c #845CBF",
"2. c #845CC0",
"3. c #855DC1",
"4. c #855DC2",
"5. c #865EC2",
"6. c #865EC3",
"7. c #875EC5",
"8. c #885FC6",
"9. c #895FC6",
"0. c #8860C6",
"q. c #8960C6",
"w. c #8960C7",
"e. c #8960C8",
"r. c #8A61C8",
"t. c #8B61CA",
"y. c #8B62CA",
"u. c #8D63CD",
"i. c #8E64CE",
"p. c #8E64CF",
"a. c #8F64CF",
"s. c #8F65D0",
"d. c #9064D0",
"f. c #9065D0",
"g. c #9065D2",
"h. c #9166D2",
"j. c #9266D3",
"k. c #9266D4",
"l. c #9267D4",
"z. c #9368D6",
"x. c #9468D6",
"c. c #9568D7",
"v. c #9569D8",
"b. c #9669D9",
"n. c #976BDB",
"m. c #986BDC",
"M. c #986BDD",
"N. c #9A6CDF",
"B. c #9B6DE0",
"V. c #9B6DE1",
"C. c #9C6EE2",
"Z. c #9C6EE3",
"A. c #9D6EE3",
"S. c #9D6FE4",
"D. c #9E6FE4",
"F. c #9E6FE5",
"G. c #9E70E5",
"H. c #9F70E5",
"J. c #9F70E6",
"K. c #9F70E7",
"L. c #A070E7",
"P. c #A071E7",
"I. c #A071E8",
"U. c #A171E8",
"Y. c #A171E9",
"T. c #A172E9",
"R. c #A172EA",
"E. c #A272EA",
"W. c #A272EB",
"Q. c #A372EB",
"!. c #A273EB",
"~. c #A373EB",
"^. c #A373EC",
"/. c #A373ED",
"(. c #A473ED",
"). c #A474ED",
"_. c #A474EE",
"`. c #A574EE",
"'. c #A574EF",
"]. c #A575EF",
"[. c #A675EF",
"{. c #A675F0",
"}. c #A776F1",
"|. c #A776F2",
" X c #A877F3",
".X c #A977F4",
"XX c #A977F5",
"oX c #A978F5",
"OX c #AA78F5",
"+X c #AA78F6",
"@X c #AB78F6",
"#X c #AB79F7",
"$X c #AB79F8",
"%X c #AC79F8",
"&X c #AC7AF9",
"*X c #AD7AF9",
"=X c #AD7AFA",
"-X c #AE7BFB",
";X c #AE7BFC",
":X c #AF7CFC",
">X c #AF7CFD",
",X c #B07DFF",
"<X c #B47FFF",
"1X c #B580FF",
"2X c #B681FF",
"3X c #B882FF",
"4X c #B983FF",
"5X c #BA84FF",
"6X c #BB85FF",
"7X c #BC85FF",
"8X c #BD86FF",
"9X c #BE86FF",
"0X c #C189FF",
"qX c #C289FF",
"wX c #C38AFF",
"eX c #C58CFF",
"rX c #C68DFF",
"tX c #C78DFF",
"yX c #C98FFF",
"uX c #CC90FF",
"iX c #CC91FF",
"pX c #CD91FF",
"aX c #CD92FF",
"sX c #CE92FF",
"dX c #CE93FF",
"fX c #CF93FF",
"gX c #D093FF",
"hX c #D094FF",
"jX c #D195FF",
"kX c #D295FF",
"lX c #D296FF",
"zX c #D396FF",
"xX c #D497FF",
"cX c #D597FF",
"vX c #D698FF",
"bX c #DA9BFF",
"nX c #DF9EFF",
"mX c #E09FFF",
"MX c #E3A2FF",
"NX c #E5A3FF",
"BX c #E6A4FF",
"VX c #ECA8FF",
"CX c #EFAAFF",
"ZX c #EFABFF",
"AX c #F0ABFF",
"SX c #F1ACFF",
"DX c #F3ADFF",
"FX c None",
/* pixels */
"FXFXFXFXFXFXFXFXFXFXFXFXFXFXFXFXFXFXFXFXFXFXFXFXFXFXFXFXFXFXFXFXFXFXFXFXFXFXFXFXFXFXFXFXFXFXFXFXFXFXFXFXFXFXFXFXFXFXFXFXFXFXFXFX",
"FXFXFXFXFXFXFXFXFXFXFXFXFXFXFXFXFXFXFXFXFXFXFXFXFXFXFXFXFXFXFXFXFXFXFXFXFXFXFXFXFXFXFXFXFXFXFXFXFXFXFXFXFXFXFXFXFXFXFXFXFXFXFXFX",
"FXFXFXFXFXFXFXFXFXFXFXFXFXFXFXFXFXFXFXFXFXFXFXFXFXFXFXFXFXFXFXFXFXFXFXFXFXFXFXFXFXFXFXFXFXFXFXFXFXFXFXFXFXFXFXFXFXFXFXFXFXFXFXFX",
"FXFXFXFXFXFXFXFXFXFXFXFXFXFXFXFXFXFXFXFXFXFXFXFXFXFXFXFXFXFXFXFXFXFXFXFXFXFXFXFXFXFXFXFXFXFXFXFXFXFXFXFXFXFXFXFXFXFXFXFXFXFXFXFX",
"FXFXFXFXFXFXFXFXFXFXFXFXFXFXFXFXFXFXFXFXFXFXFXFXFXFXFXFXFXFXFXFXFXFXFXFXFXFXFXFXFXFXFXFXFXFXFXFXFXFXFXFXFXFXFXFXFXFXFXFXFXFXFXFX",
"FXFXFXFXFXFXFXFXFXFXFXFXFXFXFXFXFXFXFXFXFXFXFXFXFXFXFXFXFXFXFXFXFXFXFXFXFXFXFXFXFXFXFXFXFXFXFXFXFXFXFXFXFXFXFXFXFXFXFXFXFXFXFXFX",
"FXFXFXFXFXFXFXFXFXFXFXFXFXFXFXFXFXFXFXFXFXFXFXFXFXFXFXFXFXFXFXFXFXFXFXFXFXFXFXFXFXFXFXFXFXFXFXFXFXFXFXFXFXFXFXFXFXFXFXFXFXFXFXFX",
"FXFXFXFXFXFXFXFXFXFXFXFXFXFXFXFXFXFXFXFXFXFXFXFXFXFXFXFXFXFXFXFXFXFXFXFXFXFXFXFXFXFXFXFXFXFXFXFXFXFXFXFXFXFXFXFXFXFXFXFXFXFXFXFX",
"FXFXFXFXFXFXFXFXFXFXFXFXFXFXFXFXFXFXFXFXFXFXFXFXFXFXFXFXFXFXFXFXFXFXFXFXFXFXFXFXFXFXFXFXFXFXFXFXFXFXFXFXFXFXFXFXFXFXFXFXFXFXFXFX",
"FXFXFXFXFXFXFXFXFXFXFXFXFXFXFXFXFXFXFXFXFXFXFXFXFXFXFXFXFXFXFXFXFXFXFXFXFXFXFXFXFXFXFXFXFXFXFXFXFXFXFXFXFXFXFXFXFXFXFXFXFXFXFXFX",
"FXFXFXFXFXFXFXFXFXFXFXFXFXFXFXFXFXFXFXFXFXFXFXFXFXFXFXFXFXFXFXFXFXFXFXFXFXFXFXFXFXFXFXFXFXFXFXFXFXFXFXFXFXFXFXFXFXFXFXFXFXFXFXFX",
"FXFXFXFXFXFXFXFXFXFXFXFXFXFXFXFXFXFXFXFXFXFXFXFXFXFXFXFXFXFXFXFXFXFXFXFXFXFXFXFXFXFXFXFXFXFXFXFXFXFXFXFXFXFXFXFXFXFXFXFXFXFXFXFX",
"FXFXFXFXFXFXFXFXFXFXFXFXFXFXFXFXFXFXFXFXFXFXFXFXFXFXFXFXFXFXFXFXFXFXFXFXFXFXFXFXFXFXFXFXFXFXFXFXFXFXFXFXFXFXFXFXFXFXFXFXFXFXFXFX",
"FXFXFXFXFXFXFXFXFXFXFXFXFXFXFXFXFXFX                                                                  FXFXFXFXFXFXFXFXFXFXFXFXFX",
"FXFXFXFXFXFXFXFXFXFXFXFXFXFXFXFXFXFX                                                                  FXFXFXFXFXFXFXFXFXFXFXFXFX",
"FXFXFXFXFXFXFXFXFXFXFXFXFXFXFXFX& 2       K m B B B B B B C x / h.i.f.f.f.f.f.f.f.f.f.f.f.f.f.f.p.h.e.a FXFXFXFXFXFXFXFXFXFXFXFX",
"FXFXFXFXFXFXFXFXFXFXFXFXFXFXFXX           3.X.+.+.+.+.+.+.*.| u.{./.^.^.^.^.^.^._._._._._._._._.W.{.n.    FXFXFXFXFXFXFXFXFXFXFX",
"FXFXFXFXFXFXFXFXFXFXFXFXFXFXFX0           ;.( ` ` ` ` ` ` | W 6.C.N.S.J.G.G.G.H.B.B.B.B.B.B.B.B.S.T.x.    r.FXFXFXFXFXFXFXFXFXFX",
"FXFXFXFXFXFXFXFXFXFXFXFXFX      o         ;.` X.$.$.' ` ' $.#.X.{ ! l.W.J.G.G.B. .{  . . . . .{ M.!.l.    0.FXFXFXFXFXFXFXFXFXFX",
"FXFXFXFXFXFXFXFXFXFXFXFXFX      $         -.| G z c O.>.$.v z F ..E l.W.G.`.}.T.! W ! W W ! ! R J.+XV.    0.FXFXFXFXFXFXFXFXFXFX",
"FXFXFXFXFXFXFXFXFXFXFXFXFX      @         >.L (.4X2XZ 5 x <X4X{.Y ^ l.E.P.%.P ` w.r.r.r.r.r.r.r.` ` C     0.FXFXFXFXFXFXFXFXFXFX",
"FXFXFXFXFXFXFXFXFXFXFXFXFX      O         2.h kXDXDXw     DXDXvXx | l.E.T.      P.W.Y.E.E.Y.Y.^.          8.FXFXFXFXFXFXFXFXFXFX",
"FXFXFXFXFXFXFXFXFXFXFXFXFX      1         2.z pXDXSXi   - CXDXkXM ] l.E.T.      D.P.G.L.L.G.J.T.          8.FXFXFXFXFXFXFXFXFXFX",
"FXFXFXFXFXFXFXFXFXFXFXFXFX                1.j aXDXDXi   - AXDXzXM ] l.E.P.{ V ~ J.P.L.L.L.L.P.Y.{ H l     0.FXFXFXFXFXFXFXFXFXFX",
"FXFXFXFXFXFXFXFXFXFXFXFXFX                2.k aXDXDXu   # AXDXlXM ] k.W.G.].}.].P.L.L.L.L.L.L.P._.XXV.    9.FXFXFXFXFXFXFXFXFXFX",
"FXFXFXFXFXFXFXFXFXFXFXFXFX                4.x sXDXDX9     AXDXlXM ] k.E.J.G.S.G.L.L.L.L.L.L.L.L.S.T.z.    w.FXFXFXFXFXFXFXFXFXFX",
"FXFXFXFXFXFXFXFXFXFXFXFXFXFXFX=               qXDXAXmXbXnXAXDXlXM ] k.E.J.L.L.L.L.L.L.L.L.L.L.L.J.W.v.    9.FXFXFXFXFXFXFXFXFXFX",
"FXFXFXFXFXFXFXFXFXFXFXFXFXFXFXy       >       0XDXDXDXDXDXDXDXcXm ] k.E.J.L.L.L.L.L.L.L.L.L.L.L.G.W.v.    FXFXFXFXFXFXFXFXFXFXFX",
"FXFXFXFXFXFXFXFXFXFXFXFXFXFXFXq       O       3XZXNXBXNXBXNXVXuXV ` l.E.J.L.L.L.L.L.L.L.L.L.L.L.J.W.v.    FXFXFXFXFXFXFXFXFXFXFX",
"FXFXFXFXFXFXFXFXFXFXFXFXFXFXFXFX      O       u <.}  . . . ... .{ ! l.Y.G.L.L.L.G.G.G.G.G.G.G.G.S.T.z.    FXFXFXFXFXFXFXFXFXFXFX",
"FXFXFXFXFXFXFXFXFXFXFXFXFXFXFXFX    . <       r -.! ( ( ( ) ) _ { W z._.Y.L.L.P.].[.[.[.[.[.[.{.{. XV.    FXFXFXFXFXFXFXFXFXFXFX",
"FXFXFXFXFXFXFXFXFXFXFXFXFXFXFXFX              t >.` | | | | | } } / t.b.z.S.Y.C._ ^ / / / / / / / | A     FXFXFXFXFXFXFXFXFXFXFX",
"FXFXFXFXFXFXFXFXFXFXFXFXFXFXFXFX              e ;./ | } } } } } }  .` ! ! M._.l.                          FXFXFXFXFXFXFXFXFXFXFX",
"FXFXFXFXFXFXFXFXFXFXFXFXFXFXFXFX              s w.-...| } } } ` W W ! ! E M._.l.                          FXFXFXFXFXFXFXFXFXFXFX",
"FXFXFXFXFXFXFXFXFXFXFXFXFXFXFXFXFXFXFXFXm.          J ..} } ` ,.z.l.k.l.k.S.Y.B.S U w     p.eX8XFXFXFXFXFXFXFXFXFXFXFXFXFXFXFXFX",
"FXFXFXFXFXFXFXFXFXFXFXFXFXFXFXFXFXFXFXFXFX          n %.` ..! r.).Y.E.E.E.K.K.Y.`.&X-.    wXFXFXFXFXFXFXFXFXFXFXFXFXFXFXFXFXFXFX",
"FXFXFXFXFXFXFXFXFXFXFXFXFXFXFXFXFXFXFXFXFX          N +.` ] T 6.J.A.D.D.D.D.D.D.V.~.!     7XFXFXFXFXFXFXFXFXFXFXFXFXFXFXFXFXFXFX",
"FXFXFXFXFXFXFXFXFXFXFXFXFXFXFXFXFXFXFXFXFXFXMXq.    B O.-.|.(.<XyXtXtXtXtXtXtXtXrXaX'.    8XFXFXFXFXFXFXFXFXFXFXFXFXFXFXFXFXFXFX",
"FXFXFXFXFXFXFXFXFXFXFXFXFXFXFXFXFXFXFXFXFXFXFXQ.    B X.>.>X%X7XhXsXfXfXfXfXfXfXsXzX-X    8XFXFXFXFXFXFXFXFXFXFXFXFXFXFXFXFXFXFX",
"FXFXFXFXFXFXFXFXFXFXFXFXFXFXFXFXFXFXFXFXFXFXFXa.    B o.:.=XOX4XfXaXsXsXsXsXsXsXiXlX%X    8XFXFXFXFXFXFXFXFXFXFXFXFXFXFXFXFXFXFX",
"FXFXFXFXFXFXFXFXFXFXFXFXFXFXFXFXFXFX                B X.:.=X+X5XfXaXsXsXsXsXsXsXiXzX&X    9XFXFXFXFXFXFXFXFXFXFXFXFXFXFXFXFXFXFX",
"FXFXFXFXFXFXFXFXFXFXFXFXFXFXFXFXFXFX                x o.:.=X+X5XfXaXsXsXsXsXsXsXiXzX&X    FXFXFXFXFXFXFXFXFXFXFXFXFXFXFXFXFXFXFX",
"FXFXFXFXFXFXFXFXFXFXFXFXFXFXFXFXFXFX      4 , : ; * L ' >.=X@X5XfXaXsXsXsXsXsXsXiXzX&X    FXFXFXFXFXFXFXFXFXFXFXFXFXFXFXFXFXFXFX",
"FXFXFXFXFXFXFXFXFXFXFXFXFXFXFXFXFXFX    6 #X~.`.{.{.<.W >.=XoX4XfXpXaXaXaXaXaXaXiXkX#X    FXFXFXFXFXFXFXFXFXFXFXFXFXFXFXFXFXFXFX",
"FXFXFXFXFXFXFXFXFXFXFXFXFXFXFXFXFXFX    8 $X`.!.P.T.>.W 1.,X=X7XjXfXgXfXgXgXgXgXdXxX;X    FXFXFXFXFXFXFXFXFXFXFXFXFXFXFXFXFXFXFX",
"FXFXFXFXFXFXFXFXFXFXFXFXFXFXFXFXFXFX      d 7 / s.y.+.) +.c.g.E.3X2X5X8X7X7X8X6X1X7Xl.    FXFXFXFXFXFXFXFXFXFXFXFXFXFXFXFXFXFXFX",
"FXFXFXFXFXFXFXFXFXFXFXFXFXFXFXFXFXFX          3 %.Y ' } [ Q L ,.C.M.^.#X.XoX+X XM.Y.I     FXFXFXFXFXFXFXFXFXFXFXFXFXFXFXFXFXFXFX",
"FXFXFXFXFXFXFXFXFXFXFXFXFXFXFXFXFXFX          p 3.X.| } } | Q w.^.J. X:X;X;X-X*XJ.}.|     FXFXFXFXFXFXFXFXFXFXFXFXFXFXFXFXFXFXFX",
"FXFXFXFXFXFXFXFXFXFXFXFXFXFXFXFXFXFXFXFXFX          A ..%.N.N.C.L.F.U.R.T.E.W.E.G.[.`     FXFXFXFXFXFXFXFXFXFXFXFXFXFXFXFXFXFXFX",
"FXFXFXFXFXFXFXFXFXFXFXFXFXFXFXFXFXFXFXFXFX          n +.%.T.Y.Y.W.W.E.T.T.I.P.I.G.[.`     FXFXFXFXFXFXFXFXFXFXFXFXFXFXFXFXFXFXFX",
"FXFXFXFXFXFXFXFXFXFXFXFXFXFXFXFXFXFXFXFXFX  +       B +.%.J.P.C.z.c.v.v.v.V.A.Z.G.{.`     FXFXFXFXFXFXFXFXFXFXFXFXFXFXFXFXFXFXFX",
"FXFXFXFXFXFXFXFXFXFXFXFXFXFXFXFXFXFXFXFXFXFXFXFX    n ..+.C._.`           b ..+.C.`.'     FXFXFXFXFXFXFXFXFXFXFXFXFXFXFXFXFXFXFX",
"FXFXFXFXFXFXFXFXFXFXFXFXFXFXFXFXFXFXFXFXFXFXFXFX    K <.5.(.*XT           D <.3.(.*X(     FXFXFXFXFXFXFXFXFXFXFXFXFXFXFXFXFXFXFX",
"FXFXFXFXFXFXFXFXFXFXFXFXFXFXFXFXFXFXFXFXFXFXFXFX    8 f g | ] &.7.d.%     8 f g | | =.FXFXFXFXFXFXFXFXFXFXFXFXFXFXFXFXFXFXFXFXFX",
"FXFXFXFXFXFXFXFXFXFXFXFXFXFXFXFXFXFXFXFXFXFXFXFX              j.FXFX{.              FXFXFXFXFXFXFXFXFXFXFXFXFXFXFXFXFXFXFXFXFXFX",
"FXFXFXFXFXFXFXFXFXFXFXFXFXFXFXFXFXFXFXFXFXFXFXFX              @.FXFXj.              FXFXFXFXFXFXFXFXFXFXFXFXFXFXFXFXFXFXFXFXFXFX",
"FXFXFXFXFXFXFXFXFXFXFXFXFXFXFXFXFXFXFXFXFXFXFXFXFXFXFXFXFXFXFXFXFXFXFXFXFXFXFXFXFXFXFXFXFXFXFXFXFXFXFXFXFXFXFXFXFXFXFXFXFXFXFXFX",
"FXFXFXFXFXFXFXFXFXFXFXFXFXFXFXFXFXFXFXFXFXFXFXFXFXFXFXFXFXFXFXFXFXFXFXFXFXFXFXFXFXFXFXFXFXFXFXFXFXFXFXFXFXFXFXFXFXFXFXFXFXFXFXFX",
"FXFXFXFXFXFXFXFXFXFXFXFXFXFXFXFXFXFXFXFXFXFXFXFXFXFXFXFXFXFXFXFXFXFXFXFXFXFXFXFXFXFXFXFXFXFXFXFXFXFXFXFXFXFXFXFXFXFXFXFXFXFXFXFX",
"FXFXFXFXFXFXFXFXFXFXFXFXFXFXFXFXFXFXFXFXFXFXFXFXFXFXFXFXFXFXFXFXFXFXFXFXFXFXFXFXFXFXFXFXFXFXFXFXFXFXFXFXFXFXFXFXFXFXFXFXFXFXFXFX",
"FXFXFXFXFXFXFXFXFXFXFXFXFXFXFXFXFXFXFXFXFXFXFXFXFXFXFXFXFXFXFXFXFXFXFXFXFXFXFXFXFXFXFXFXFXFXFXFXFXFXFXFXFXFXFXFXFXFXFXFXFXFXFXFX",
"FXFXFXFXFXFXFXFXFXFXFXFXFXFXFXFXFXFXFXFXFXFXFXFXFXFXFXFXFXFXFXFXFXFXFXFXFXFXFXFXFXFXFXFXFXFXFXFXFXFXFXFXFXFXFXFXFXFXFXFXFXFXFXFX",
"FXFXFXFXFXFXFXFXFXFXFXFXFXFXFXFXFXFXFXFXFXFXFXFXFXFXFXFXFXFXFXFXFXFXFXFXFXFXFXFXFXFXFXFXFXFXFXFXFXFXFXFXFXFXFXFXFXFXFXFXFXFXFXFX",
"FXFXFXFXFXFXFXFXFXFXFXFXFXFXFXFXFXFXFXFXFXFXFXFXFXFXFXFXFXFXFXFXFXFXFXFXFXFXFXFXFXFXFXFXFXFXFXFXFXFXFXFXFXFXFXFXFXFXFXFXFXFXFXFX"
};
