/* XPM */
static char *result[] = {
/* columns rows colors chars-per-pixel */
"64 64 64 1 ",
"  c #000000",
". c #05020B",
"X c #12091F",
"o c #160C24",
"O c #180D27",
"+ c #1F1332",
"@ c #231638",
"# c #2C1C45",
"$ c #2F1F49",
"% c #32204C",
"& c #342250",
"* c #382555",
"= c #3E295D",
"- c #422C63",
"; c #47306B",
": c #49326E",
"> c #523779",
", c #54397D",
"< c #573B81",
"1 c #583D84",
"2 c #5C3F89",
"3 c #5E418B",
"4 c #61438F",
"5 c #644594",
"6 c #6B4A9D",
"7 c #6E4CA2",
"8 c #714FA6",
"9 c #7552AC",
"0 c #7853AF",
"q c #7B56B4",
"w c #7E58B9",
"e c #815ABD",
"r c #855DC2",
"t c #885FC6",
"y c #8C62CC",
"u c #8F64D0",
"i c #9166D4",
"p c #9468D7",
"a c #966ADA",
"s c #996CDE",
"d c #9C6EE3",
"f c #9F70E6",
"g c #9F70E8",
"h c #A373EC",
"j c #A675F1",
"k c #A877F3",
"l c #AA78F7",
"z c #AE7BFC",
"x c #B27EFF",
"c c #B681FF",
"v c #BC86FF",
"b c #C189FF",
"n c #CA8FFF",
"m c #CC91FF",
"M c #D295FF",
"N c #D698FF",
"B c #D99AFF",
"V c #F4AEFF",
"C c #FBB3FF",
"Z c #FFBEFF",
"A c #FFC4FF",
"S c #FFCDFF",
"D c #FFD0FF",
"F c None",
/* pixels */
"FFFFFFFFFFFFFFFFFFFFFFFFFFFFFFFFFFFFFFFFFFFFFFFFFFFFFFFFFFFFFFFF",
"FFFFFFFFFFFFFFFFFFFFFFFFFFFFFFFFFFFFFFFFFFFFFFFFFFFFFFFFFFFFFFFF",
"FFFFFFFFFFFFFFFFFFFFFFFFFFFFFFFFFFFFFFFFFFFFFFFFFFFFFFFFFFFFFFFF",
"FFFFFFFFFFFFFFFFFFFFFFFFFFFFFFFFFFFFFFFFFFFFFFFFFFFFFFFFFFFFFFFF",
"FFFFFFFFFFFFFFFFFFFFFFFFFFFFFFFFFFFFFFFFFFFFFFFFFFFFFFFFFFFFFFFF",
"FFFFFFFFFFFFFFFFFFFFFFFFFFFFFFFFFFFFFFFFFFFFFFFFFFFFFFFFFFFFFFFF",
"FFFFFFFFFFFFFFFFFFFFFFFFFFFFFFFFFFFFFFFFFFFFFFFFFFFFFFFFFFFFFFFF",
"FFFFFFFFFFFFFFFFFFFFFFFFFFFFFFFFFFFFFFFFFFFFFFFFFFFFFFFFFFFFFFFF",
"FFFFFFFFFFFFFFFFFFFFFFFFFFFFFFFFFFFFFFFFFFFFFFFFFFFFFFFFFFFFFFFF",
"FFFFFFFFFFFFFFFFFFFFFFFFFFFFFFFFFFFFFFFFFFFFFFFFFFFFFFFFFFFFFFFF",
"FFFFFFFFFFFFFFFF                                  FFFFFFFFFFFFFF",
"FFFFFFFFFFFFFFFFF                                 FFFFFFFFFFFFFF",
"FFFFFFFFFFFFFF      :=-------=5777777777777777660-  FFFFFFFFFFFF",
"FFFFFFFFFFFFFF     3rqwwwwwwwwagffffffffffffffhdh6  FFFFFFFFFFFF",
"FFFFFFFFFFFFFF     ,q999999998usssassssssssssasaf4  FFFFFFFFFFFF",
"FFFFFFFFFFF        ,w90qq09qq0wwwsssasywwwwwwwrsd5  FFFFFFFFFFFF",
"FFFFFFFFFFF   .O   <w9778qq967900assdfy7989998wdh5  FFFFFFFFFFFF",
"FFFFFFFFFFF        <q0upy65wppe0qadayurwwwwwwwwyp>  FFFFFFFFFFFF",
"FFFFFFFFFFF        1qeCSN  hDAh5qafr  ,fasssadr     FFFFFFFFFFFF",
"FFFFFFFFFFF   X+   1qeCSN  hDAh5wafe  -fassdafr     FFFFFFFFFFFF",
"FFFFFFFFFFF        <0eCSN  hSAj5qady@ 9fsssssdyo*   FFFFFFFFFFFF",
"FFFFFFFFFFF        <0wCSN  hDAj5waadfffassssssdfh6  FFFFFFFFFFFF",
"FFFFFFFFFFF        3wyCDm  fDAj5wadssssssssdsssaf4  FFFFFFFFFFFF",
"FFFFFFFFFFFFF        %CAVccBAAj5wassssssdsssssdaf5  FFFFFFFFFFFF",
"FFFFFFFFFFFFFF   @o   CAASSAZAh5qassssssssssssdaf5  FFFFFFFFFFFF",
"FFFFFFFFFFFFFF        CAAZZAASj5wassdsssdssdssdaf5  FFFFFFFFFFFF",
"FFFFFFFFFFFFFF        isaaaaaae8qassssssassssadaf4  FFFFFFFFFFFF",
"FFFFFFFFFFFFFF   o.   57766777900adsssshdddfdddsh5  FFFFFFFFFFFF",
"FFFFFFFFFFFFFF        9qqq0qq0000paasapyyuuyuuyyp,  FFFFFFFFFFFF",
"FFFFFFFFFFFFFF        79990000000q9esh5             FFFFFFFFFFFF",
"FFFFFFFFFFFFFF        9eq9900098998eah<             FFFFFFFFFFFF",
"FFFFFFFFFFFFFF        -:<q0000eyrreysdq &           FFFFFFFFFFFF",
"FFFFFFFFFFFFFFFFFFF      w9q00pdddddssdfh.  FFFFFFFFFFFFFFFFFFFF",
"FFFFFFFFFFFFFFFFFFF      q0988ypppppappps   FFFFFFFFFFFFFFFFFFFF",
"FFFFFFFFFFFFFFFFFFFFFF   w8tspxcccccccccv-  FFFFFFFFFFFFFFFFFFFF",
"FFFFFFFFFFFFFFFFFFFFFF   q8plhbMMmMMMmMmB3  FFFFFFFFFFFFFFFFFFFF",
"FFFFFFFFFFFFFFFFFFFFFF   q8ijhbMmnnnmnmnM1  FFFFFFFFFFFFFFFFFFFF",
"FFFFFFFFFFFFFFFFF        w8ilhbnmmmmmmmnN1  FFFFFFFFFFFFFFFFFFFF",
"FFFFFFFFFFFFFFFF         q8ijgbMmmmmmmmmM1  FFFFFFFFFFFFFFFFFFFF",
"FFFFFFFFFFFFFFFFF        w7ilgbmmmmmmmmnN1  FFFFFFFFFFFFFFFFFFFF",
"FFFFFFFFFFFFFFFFF  wdaasp98ikhbMnmmmnmmmM<  FFFFFFFFFFFFFFFFFFFF",
"FFFFFFFFFFFFFFFFF  rhdddp98plhbMmmmmMmmmB2  FFFFFFFFFFFFFFFFFFFF",
"FFFFFFFFFFFFFFFFF  ,q9uiy09ydsxvvvvvvbvcb;  FFFFFFFFFFFFFFFFFFFF",
"FFFFFFFFFFFFFFFFF     69809988yaphhhhhdpd   FFFFFFFFFFFFFFFFFFFF",
"FFFFFFFFFFFFFFFF      0ew90998idsjhjjkfsd   FFFFFFFFFFFFFFFFFFFF",
"FFFFFFFFFFFFFFFFFFF     $q9eyyadsfffffdsf   FFFFFFFFFFFFFFFFFFFF",
"FFFFFFFFFFFFFFFFFFF      w8yddsssssssassd   FFFFFFFFFFFFFFFFFFFF",
"FFFFFFFFFFFFFFFFFFF      q9tdssdsdsdsdssf   FFFFFFFFFFFFFFFFFFFF",
"FFFFFFFFFFFFFFFFFFFFFF   q9tdd-     ewysd   FFFFFFFFFFFFFFFFFFFF",
"FFFFFFFFFFFFFFFFFFFFFF   w8ydf      q7ydh   FFFFFFFFFFFFFFFFFFFF",
"FFFFFFFFFFFFFFFFFFFFFF   w9eip      q9rip   FFFFFFFFFFFFFFFFFFFF",
"FFFFFFFFFFFFFFFFFFFFFF   9w#  FFF   9q$  FFFFFFFFFFFFFFFFFFFFFFF",
"FFFFFFFFFFFFFFFFFFFFFF   wr#  FFF   er%  FFFFFFFFFFFFFFFFFFFFFFF",
"FFFFFFFFFFFFFFFFFFFFFF   ><   FFF   >,   FFFFFFFFFFFFFFFFFFFFFFF",
"FFFFFFFFFFFFFFFFFFFFFF     FFFFFF     FFFFFFFFFFFFFFFFFFFFFFFFFF",
"FFFFFFFFFFFFFFFFFFFFFF      FFFFF      FFFFFFFFFFFFFFFFFFFFFFFFF",
"FFFFFFFFFFFFFFFFFFFFFFFFFFFFFFFFFFFFFFFFFFFFFFFFFFFFFFFFFFFFFFFF",
"FFFFFFFFFFFFFFFFFFFFFFFFFFFFFFFFFFFFFFFFFFFFFFFFFFFFFFFFFFFFFFFF",
"FFFFFFFFFFFFFFFFFFFFFFFFFFFFFFFFFFFFFFFFFFFFFFFFFFFFFFFFFFFFFFFF",
"FFFFFFFFFFFFFFFFFFFFFFFFFFFFFFFFFFFFFFFFFFFFFFFFFFFFFFFFFFFFFFFF",
"FFFFFFFFFFFFFFFFFFFFFFFFFFFFFFFFFFFFFFFFFFFFFFFFFFFFFFFFFFFFFFFF",
"FFFFFFFFFFFFFFFFFFFFFFFFFFFFFFFFFFFFFFFFFFFFFFFFFFFFFFFFFFFFFFFF",
"FFFFFFFFFFFFFFFFFFFFFFFFFFFFFFFFFFFFFFFFFFFFFFFFFFFFFFFFFFFFFFFF",
"FFFFFFFFFFFFFFFFFFFFFFFFFFFFFFFFFFFFFFFFFFFFFFFFFFFFFFFFFFFFFFFF"
};
