/* XPM */
static char *result[] = {
/* columns rows colors chars-per-pixel */
"64 64 217 2 ",
"   c black",
".  c #06020E",
"X  c #32214C",
"o  c #382556",
"O  c #392556",
"+  c #3F2A5E",
"@  c #442D66",
"#  c #442E66",
"$  c #462F69",
"%  c #49316D",
"&  c #4E3574",
"*  c #4F3675",
"=  c #4F3676",
"-  c #54397C",
";  c #553A7E",
":  c #573C81",
">  c #583C82",
",  c #5B3F87",
"<  c #61438F",
"1  c #634492",
"2  c #6A4A9D",
"3  c #6B4A9D",
"4  c #6B4A9E",
"5  c #6E4CA2",
"6  c #6E4DA2",
"7  c #6F4DA3",
"8  c #714EA5",
"9  c #714EA6",
"0  c #724FA7",
"q  c #7350A9",
"w  c #7451AB",
"e  c #7552AC",
"r  c #7652AD",
"t  c #7753AE",
"y  c #7954B1",
"u  c #7955B2",
"i  c #7A55B2",
"p  c #7A55B3",
"a  c #7B56B4",
"s  c #7C56B5",
"d  c #7C57B5",
"f  c #7D57B6",
"g  c #7E58B8",
"h  c #7F59B9",
"j  c #7F59BA",
"k  c #8059BB",
"l  c #805ABC",
"z  c #815ABC",
"x  c #825BBD",
"c  c #825BBE",
"v  c #835CBF",
"b  c #835CC0",
"n  c #845CC0",
"m  c #845CC1",
"M  c #845DC1",
"N  c #855DC2",
"B  c #865EC4",
"V  c #875EC5",
"C  c #875FC5",
"Z  c #875FC6",
"A  c #885FC6",
"S  c #8860C7",
"D  c #8960C7",
"F  c #8960C8",
"G  c #8A61C9",
"H  c #8B61CA",
"J  c #8B62CB",
"K  c #8C62CC",
"L  c #8D63CD",
"P  c #8E64CF",
"I  c #8E64D0",
"U  c #8F64D0",
"Y  c #9065D1",
"T  c #9065D2",
"R  c #9166D3",
"E  c #9166D4",
"W  c #9267D5",
"Q  c #9367D5",
"!  c #9367D6",
"~  c #9368D7",
"^  c #9468D8",
"/  c #9569D8",
"(  c #9569D9",
")  c #9669DA",
"_  c #976BDC",
"`  c #986BDC",
"'  c #986BDD",
"]  c #996CDF",
"[  c #9A6CDF",
"{  c #9A6CE0",
"}  c #9B6DE1",
"|  c #9B6DE2",
" . c #9C6EE2",
".. c #9C6EE3",
"X. c #9D6EE4",
"o. c #9E6FE5",
"O. c #9E6FE6",
"+. c #9E70E6",
"@. c #9F70E8",
"#. c #A071E8",
"$. c #A071E9",
"%. c #A272EB",
"&. c #A273EC",
"*. c #A574EF",
"=. c #A575F0",
"-. c #A675F1",
";. c #A776F2",
":. c #A877F4",
">. c #AA78F7",
",. c #AB79F8",
"<. c #AD7AFA",
"1. c #AE7BFD",
"2. c #AF7BFD",
"3. c #B07DFF",
"4. c #B17DFF",
"5. c #B37EFF",
"6. c #B480FF",
"7. c #B580FF",
"8. c #B681FF",
"9. c #B781FF",
"0. c #B882FF",
"q. c #B883FF",
"w. c #BA84FF",
"e. c #BC85FF",
"r. c #BD86FF",
"t. c #BE86FF",
"y. c #BE87FF",
"u. c #BF87FF",
"i. c #C088FF",
"p. c #C189FF",
"a. c #C289FF",
"s. c #C38AFF",
"d. c #C38BFF",
"f. c #C48BFF",
"g. c #C58BFF",
"h. c #C48CFF",
"j. c #C58CFF",
"k. c #C68CFF",
"l. c #C68DFF",
"z. c #C78DFF",
"x. c #C88EFF",
"c. c #C98EFF",
"v. c #C98FFF",
"b. c #CA8FFF",
"n. c #CA90FF",
"m. c #CB90FF",
"M. c #CC91FF",
"N. c #CD91FF",
"B. c #CE92FF",
"V. c #CF93FF",
"C. c #D094FF",
"Z. c #D194FF",
"A. c #D195FF",
"S. c #D295FF",
"D. c #D396FF",
"F. c #D496FF",
"G. c #D497FF",
"H. c #D597FF",
"J. c #D598FF",
"K. c #D698FF",
"L. c #D799FF",
"P. c #D89AFF",
"I. c #D99AFF",
"U. c #D99BFF",
"Y. c #DA9BFF",
"T. c #DB9CFF",
"R. c #DC9CFF",
"E. c #DC9DFF",
"W. c #DD9EFF",
"Q. c #DE9EFF",
"!. c #E09FFF",
"~. c #E0A0FF",
"^. c #E1A0FF",
"/. c #E3A2FF",
"(. c #E9A6FF",
"). c #EAA7FF",
"_. c #EBA8FF",
"`. c #ECA8FF",
"'. c #EFABFF",
"]. c #F2ADFF",
"[. c #F8B1FF",
"{. c #F9B2FF",
"}. c #FDB5FF",
"|. c #FFB6FF",
" X c #FFB7FF",
".X c #FFBBFF",
"XX c #FFBDFF",
"oX c #FFBEFF",
"OX c #FFBFFF",
"+X c #FFC0FF",
"@X c #FFC1FF",
"#X c #FFC5FF",
"$X c #FFC6FF",
"%X c #FFC7FF",
"&X c #FFC8FF",
"*X c #FFC9FF",
"=X c #FFCAFF",
"-X c #FFCBFF",
";X c #FFCDFF",
":X c #FFCEFF",
">X c #FFD0FF",
",X c #FFD1FF",
"<X c #FFD3FF",
"1X c #FFD6FF",
"2X c #FFD7FF",
"3X c #FFDAFF",
"4X c #FFDEFF",
"5X c #FFE6FF",
"6X c #FFE9FF",
"7X c #FFEBFF",
"8X c #FFECFF",
"9X c #FFF2FF",
"0X c #FFF4FF",
"qX c #FFF6FF",
"wX c #FFF9FF",
"eX c #FFFBFF",
"rX c None",
/* pixels */
"rXrXrXrXrXrXrXrXrXrXrXrXrXrXrXrXrXrXrXrXrXrXrXrXrXrXrXrXrXrXrXrXrXrXrXrXrXrXrXrXrXrXrXrXrXrXrXrXrXrXrXrXrXrXrXrXrXrXrXrXrXrXrXrX",
"rXrXrXrXrXrXrXrXrXrXrXrXrXrXrXrXrXrXrXrXrXrXrXrXrXrXrXrXrXrXrXrXrXrXrXrXrXrXrXrXrXrXrXrXrXrXrXrXrXrXrXrXrXrXrXrXrXrXrXrXrXrXrXrX",
"rXrXrXrXrXrXrXrXrXrXrXrXrXrXrXrXrXrXrXrXrXrXrXrXrXrXrXrXrXrXrXrXrXrXrXrXrXrXrXrXrXrXrXrXrXrXrXrXrXrXrXrXrXrXrXrXrXrXrXrXrXrXrXrX",
"rXrXrXrXrXrXrXrXrXrXrXrXrXrXrXrXrXrXrXrXrXrXrXrXrXrXrXrXrXrXrXrXrXrXrXrXrXrXrXrXrXrXrXrXrXrXrXrXrXrXrXrXrXrXrXrXrXrXrXrXrXrXrXrX",
"rXrXrXrXrXrXrXrXrXrXrXrXrXrXrXrXrXrXrXrXrXrXrXrXrXrXrXrXrXrXrXrXrXrXrXrXrXrXrXrXrXrXrXrXrXrXrXrXrXrXrXrXrXrXrXrXrXrXrXrXrXrXrXrX",
"rXrXrXrXrXrXrXrXrXrXrXrXrXrXrXrXrXrXrXrXrXrXrXrXrXrXrXrXrXrXrXrXrXrXrXrXrXrXrXrXrXrXrXrXrXrXrXrXrXrXrXrXrXrXrXrXrXrXrXrXrXrXrXrX",
"rXrXrXrXrXrXrXrXrXrXrXrXrXrX                                                                                rXrXrXrXrXrXrXrXrXrX",
"rXrXrXrXrXrXrXrXrXrXrXrXrXrXrX                                                                              rXrXrXrXrXrXrXrXrXrX",
"rXrXrXrXrXrXrXrXrXrXrXrXrXrX                                                                                rXrXrXrXrXrXrXrXrXrX",
"rXrXrXrXrXrXrXrXrXrXrX            % ( M F F F F F F F F K c ..f.d.a.d.d.d.d.d.d.d.d.d.d.d.d.d.d.d.d.d.d.p.n.      rXrXrXrXrXrXrX",
"rXrXrXrXrXrXrXrXrXrXrX            & ` C K K K K K K K K I N $.z.j.j.j.j.j.j.j.j.j.j.j.j.j.j.j.j.j.j.j.j.j.N.      rXrXrXrXrXrXrX",
"rXrXrXrXrXrXrXrXrXrXrX            % ~ c F Z Z Z C C C C F x ..j.d.d.p.p.p.p.p.p.p.d.d.d.d.d.d.d.d.d.d.p.p.v.      rXrXrXrXrXrXrX",
"rXrXrXrXrXrXrXrXrXrXrX            % ( M F V V V F F F F D V P  .]  .t.j.a.d.d.z.e.{ ] { { { { {  .` $.p.d.m.      rXrXrXrXrXrXrX",
"rXrXrXrXrXrXrXrX                  % ( M U / / W C M M Y / / Y M x N w.j.a.p.t.a.8.N M C N N N N C x I e.i.j.      rXrXrXrXrXrXrX",
"rXrXrXrXrXrXrXrX                  % ( A i , > 1 Q ' ' e : > 3 U F P e.j.p.n.B.D.d.M c N M M M M C j T M.C.L.      rXrXrXrXrXrXrX",
"rXrXrXrXrXrXrXrX                  % } q e.[.[._.$     z.}.[.Q.b V K e.j.z.O.< 2 i *.-.*.*.*.*.*.*.;.$.9 2 t       rXrXrXrXrXrXrX",
"rXrXrXrXrXrXrXrX                  @ $.* ].eXeX0X      .XeXeX4Xr V K e.d.B.X       z.v.j.z.z.z.z.d.B.5.            rXrXrXrXrXrXrX",
"rXrXrXrXrXrXrXrX                  # #.- ).eXeX6X      }.eXeX1Xu V K e.d.B.O       p.j.p.a.a.a.d.i.v.2.            rXrXrXrXrXrXrX",
"rXrXrXrXrXrXrXrX                  # $.- `.eXeX8X      |.eXeX2Xy V K e.d.M.<       d.j.a.d.d.d.d.i.v.5.            rXrXrXrXrXrXrX",
"rXrXrXrXrXrXrXrX                  # $.- `.eXeX7X      |.eXeX2Xy V K e.j.d.i.w.w.e.d.d.d.d.d.d.d.d.d.p.e.w.d.      rXrXrXrXrXrXrX",
"rXrXrXrXrXrXrXrX                  @ o.- `.eXeX7X      |.eXeX2Xy V K e.j.p.j.z.z.z.d.d.d.d.d.d.d.d.d.d.z.z.C.      rXrXrXrXrXrXrX",
"rXrXrXrXrXrXrXrX                  = ;.1 '.eXeX7X      {.eXeX2Xy V K e.j.a.p.p.p.p.d.d.d.d.d.d.d.d.d.d.p.i.c.      rXrXrXrXrXrXrX",
"rXrXrXrXrXrXrXrXrXrXrX                  v.eXeXqX#XoXXX5XeXeX1Xu V K e.j.p.d.d.d.d.d.d.d.d.d.d.d.d.d.d.d.d.m.      rXrXrXrXrXrXrX",
"rXrXrXrXrXrXrXrXrXrXrX                  ,.eX0XwXeXeXeXeX9XeX<Xu V K e.j.p.d.d.d.d.d.d.d.d.d.d.d.d.d.d.d.a.m.      rXrXrXrXrXrXrX",
"rXrXrXrXrXrXrXrXrXrXrX                  u.eXeXeXeXeXeXeXeXeX4Xy V K e.j.p.d.d.d.d.d.d.d.d.d.d.d.d.d.d.d.a.m.      rXrXrXrXrXrXrX",
"rXrXrXrXrXrXrXrXrXrXrX                  J 3X:X>X,X,X,X,X;X2X Xj V K e.j.p.d.d.d.d.d.d.d.d.d.d.d.d.d.d.d.d.m.      rXrXrXrXrXrXrX",
"rXrXrXrXrXrXrXrXrXrXrX                    p 6 7 7 7 7 7 0 5 r K C K w.j.p.d.d.d.d.p.p.p.p.p.p.p.p.p.p.p.i.c.      rXrXrXrXrXrXrX",
"rXrXrXrXrXrXrXrXrXrXrX                    ) G K K K K K K K G F C K e.z.d.d.d.d.d.z.z.z.z.z.z.z.z.z.z.z.z.C.      rXrXrXrXrXrXrX",
"rXrXrXrXrXrXrXrXrXrXrX                    ~ C F F F F F F F F F C K w.d.i.p.d.d.p.w.w.w.w.w.w.w.e.e.w.w.w.d.      rXrXrXrXrXrXrX",
"rXrXrXrXrXrXrXrXrXrXrX                    ~ Z F F F F F F F F F F F T ~ K 2.d.n.:.                                rXrXrXrXrXrXrX",
"rXrXrXrXrXrXrXrXrXrXrX                    R M C F F F F F F F F F F C Z j >.d.m.&.                                rXrXrXrXrXrXrX",
"rXrXrXrXrXrXrXrXrXrXrX                    +.~ ( F F F F F F C c c M M C f >.d.M.&.                                rXrXrXrXrXrXrX",
"rXrXrXrXrXrXrXrXrXrXrXrXrXrXrXrXrXrX            x K C F F M ( 2.1.1.<.1.>.w.s.z.8.2 2 8       7 rXrXrXrXrXrXrXrXrXrXrXrXrXrXrXrX",
"rXrXrXrXrXrXrXrXrXrXrXrXrXrXrXrXrXrX            i T N H Y B %.M.n.n.n.n.n.x.l.j.x.A.D.H.      S.rXrXrXrXrXrXrXrXrXrXrXrXrXrXrXrX",
"rXrXrXrXrXrXrXrXrXrXrXrXrXrXrXrXrXrX            i I C M c a ~ e.w.w.w.w.w.w.e.e.w.8.0.w.      p.rXrXrXrXrXrXrXrXrXrXrXrXrXrXrXrX",
"rXrXrXrXrXrXrXrXrXrXrXrXrXrXrXrXrXrXrXrXrX      i T n [ =.| 7.R.Y.Y.Y.Y.Y.Y.Y.Y.Y.Y.R.W.      z.rXrXrXrXrXrXrXrXrXrXrXrXrXrXrXrX",
"rXrXrXrXrXrXrXrXrXrXrXrXrXrXrXrXrXrXrXrXrX      i R g p.^.D.`.*X&X&X&X&X&X&X&X&X&X&X*X=X      j.rXrXrXrXrXrXrXrXrXrXrXrXrXrXrXrX",
"rXrXrXrXrXrXrXrXrXrXrXrXrXrXrXrXrXrXrXrXrX      i R g p.~.Z.`.*X%X%X%X%X%X%X%X%X%X%X*X=X      j.rXrXrXrXrXrXrXrXrXrXrXrXrXrXrXrX",
"rXrXrXrXrXrXrXrXrXrXrXrXrXrXrXrXrXrXrXrXrX      i R g i.!.C.`.&X%X%X%X%X%X%X%X%X%X$X%X=X      j.rXrXrXrXrXrXrXrXrXrXrXrXrXrXrXrX",
"rXrXrXrXrXrXrXrXrXrXrXrXrXrXrXrXrXrXrXrX        i R g p.~.C.`.*X%X%X%X%X%X%X%X%X%X$X&X=X      j.rXrXrXrXrXrXrXrXrXrXrXrXrXrXrXrX",
"rXrXrXrXrXrXrXrXrXrXrXrXrXrX                    i R g p.~.C.`.*X%X%X%X%X%X%X%X%X%X$X&X=X      j.rXrXrXrXrXrXrXrXrXrXrXrXrXrXrXrX",
"rXrXrXrXrXrXrXrXrXrXrXrXrXrX                    t E g p.~.C.`.*X%X%X%X%X%X%X%X%X%X$X&X=X      h.rXrXrXrXrXrXrXrXrXrXrXrXrXrXrXrX",
"rXrXrXrXrXrXrXrXrXrXrXrXrXrX        ; o # % + & M L z p.~.Z.`.*X%X%X%X%X%X%X%X%X%X%X*X=X      k.rXrXrXrXrXrXrXrXrXrXrXrXrXrXrXrX",
"rXrXrXrXrXrXrXrXrXrXrXrXrXrX       .L.z.M.M.C.v.R Z b y.Q.C.(.%X$X$X$X$X$X$X$X$X$X#X%X&X      rXrXrXrXrXrXrXrXrXrXrXrXrXrXrXrXrX",
"rXrXrXrXrXrXrXrXrXrXrXrXrXrX      _ D.j.z.p.j.y.T Z v a./.J.'.=X*X*X=X=X=X=X=X=X=X*X=X-X      rXrXrXrXrXrXrXrXrXrXrXrXrXrXrXrXrX",
"rXrXrXrXrXrXrXrXrXrXrXrXrXrX      t 8.*.5.e.t.0.I Z m 0.J.x.^.+XOXOX+X@X+X+X+X@X+XXX+X@X      rXrXrXrXrXrXrXrXrXrXrXrXrXrXrXrXrX",
"rXrXrXrXrXrXrXrXrXrXrXrXrXrX              ( F J F F F H Y B @.x.k.k.P.E.Y.T.Y.E.L.g.l.v.      rXrXrXrXrXrXrXrXrXrXrXrXrXrXrXrXrX",
"rXrXrXrXrXrXrXrXrXrXrXrXrXrX              ! N Z F F F B S l } s.i.p.G.I.K.L.K.I.D.p.a.f.      rXrXrXrXrXrXrXrXrXrXrXrXrXrXrXrXrX",
"rXrXrXrXrXrXrXrXrXrXrXrXrXrX              { I T F F F Z G k X.l.d.j.L.R.U.Y.U.R.K.f.j.x.      rXrXrXrXrXrXrXrXrXrXrXrXrXrXrXrXrX",
"rXrXrXrXrXrXrXrXrXrXrXrXrXrXrXrXrXrX            h I c ;.0.5.w.f.d.f.v.m.b.n.b.v.c.a.d.j.      rXrXrXrXrXrXrXrXrXrXrXrXrXrXrXrXrX",
"rXrXrXrXrXrXrXrXrXrXrXrXrXrXrXrXrXrX            i R j 5.n.z.j.y.i.i.r.r.r.u.p.u.p.a.f.j.      rXrXrXrXrXrXrXrXrXrXrXrXrXrXrXrXrX",
"rXrXrXrXrXrXrXrXrXrXrXrXrXrXrXrXrXrX            i T x 3.j.i.j.C.C.C.C.V.Z.M.x.x.x.a.d.j.      rXrXrXrXrXrXrXrXrXrXrXrXrXrXrXrXrX",
"rXrXrXrXrXrXrXrXrXrXrXrXrXrXrXrXrXrXrXrXrX      i R x 4.j.z.6.t s s d d r  .6.2.6.a.j.j.      rXrXrXrXrXrXrXrXrXrXrXrXrXrXrXrXrX",
"rXrXrXrXrXrXrXrXrXrXrXrXrXrXrXrXrXrXrXrXrX      t P f 2.i.n.U               R w R i.p.d.      rXrXrXrXrXrXrXrXrXrXrXrXrXrXrXrXrX",
"rXrXrXrXrXrXrXrXrXrXrXrXrXrXrXrXrXrXrXrXrX      x ` C 9.x.F.^               +.C +.z.n.m.      rXrXrXrXrXrXrXrXrXrXrXrXrXrXrXrXrX",
"rXrXrXrXrXrXrXrXrXrXrXrXrXrXrXrXrXrXrXrXrX      4 c 9 *.9.r.W               F 9 F 7.0.q.      rXrXrXrXrXrXrXrXrXrXrXrXrXrXrXrXrX",
"rXrXrXrXrXrXrXrXrXrXrXrXrXrXrXrXrXrXrXrXrX                  rXrXrXrX                    rXrXrXrXrXrXrXrXrXrXrXrXrXrXrXrXrXrXrXrX",
"rXrXrXrXrXrXrXrXrXrXrXrXrXrXrXrXrXrXrXrXrX                  rXrXrXrX.                   rXrXrXrXrXrXrXrXrXrXrXrXrXrXrXrXrXrXrXrX",
"rXrXrXrXrXrXrXrXrXrXrXrXrXrXrXrXrXrXrXrXrX                  rXrXrXrX                    rXrXrXrXrXrXrXrXrXrXrXrXrXrXrXrXrXrXrXrX",
"rXrXrXrXrXrXrXrXrXrXrXrXrXrXrXrXrXrXrXrXrXrXrXrXrXrXrXrXrXrXrXrXrXrXrXrXrXrXrXrXrXrXrXrXrXrXrXrXrXrXrXrXrXrXrXrXrXrXrXrXrXrXrXrX",
"rXrXrXrXrXrXrXrXrXrXrXrXrXrXrXrXrXrXrXrXrXrXrXrXrXrXrXrXrXrXrXrXrXrXrXrXrXrXrXrXrXrXrXrXrXrXrXrXrXrXrXrXrXrXrXrXrXrXrXrXrXrXrXrX",
"rXrXrXrXrXrXrXrXrXrXrXrXrXrXrXrXrXrXrXrXrXrXrXrXrXrXrXrXrXrXrXrXrXrXrXrXrXrXrXrXrXrXrXrXrXrXrXrXrXrXrXrXrXrXrXrXrXrXrXrXrXrXrXrX",
"rXrXrXrXrXrXrXrXrXrXrXrXrXrXrXrXrXrXrXrXrXrXrXrXrXrXrXrXrXrXrXrXrXrXrXrXrXrXrXrXrXrXrXrXrXrXrXrXrXrXrXrXrXrXrXrXrXrXrXrXrXrXrXrX",
"rXrXrXrXrXrXrXrXrXrXrXrXrXrXrXrXrXrXrXrXrXrXrXrXrXrXrXrXrXrXrXrXrXrXrXrXrXrXrXrXrXrXrXrXrXrXrXrXrXrXrXrXrXrXrXrXrXrXrXrXrXrXrXrX"
};
