/* XPM */
static char *result[] = {
/* columns rows colors chars-per-pixel */
"64 64 216 2 ",
"   c black",
".  c #0D0619",
"X  c #150B24",
"o  c #1F1331",
"O  c #201333",
"+  c #28193E",
"@  c #2D1C44",
"#  c #301F4A",
"$  c #372453",
"%  c #3A2658",
"&  c #3C285B",
"*  c #3D295D",
"=  c #48316C",
"-  c #49316D",
";  c #4C3472",
":  c #4D3473",
">  c #4E3674",
",  c #4F3676",
"<  c #513778",
"1  c #52387A",
"2  c #573B81",
"3  c #593D85",
"4  c #5A3E86",
"5  c #5B3E87",
"6  c #5E408B",
"7  c #5E408C",
"8  c #5E418C",
"9  c #5F418D",
"0  c #614391",
"q  c #624391",
"w  c #634494",
"e  c #654596",
"r  c #674698",
"t  c #674799",
"y  c #68479B",
"u  c #68489B",
"i  c #69489C",
"p  c #6A499D",
"a  c #6A499E",
"s  c #6B499F",
"d  c #6B4AA0",
"f  c #6E4BA3",
"g  c #6E4CA4",
"h  c #6F4CA6",
"j  c #704DA7",
"k  c #714DA8",
"l  c #714EA9",
"z  c #724EA9",
"x  c #724EAA",
"c  c #734FAC",
"v  c #744FAD",
"b  c #7550AE",
"n  c #7550AF",
"m  c #7650B0",
"M  c #7651B0",
"N  c #7651B1",
"B  c #7751B2",
"V  c #7852B4",
"C  c #7852B5",
"Z  c #7952B5",
"A  c #7953B6",
"S  c #7A53B7",
"D  c #7A53B8",
"F  c #7A54B8",
"G  c #7B54B9",
"H  c #7B54BA",
"J  c #7C54BA",
"K  c #7D55BC",
"L  c #7D55BD",
"P  c #7E55BE",
"I  c #7F56BF",
"U  c #7F56C0",
"Y  c #7F56C1",
"T  c #8057C2",
"R  c #8057C3",
"E  c #8157C3",
"W  c #8158C4",
"Q  c #8258C6",
"!  c #8359C7",
"~  c #8359C8",
"^  c #8459CA",
"/  c #855ACB",
"(  c #865ACB",
")  c #865ACC",
"_  c #865BCD",
"`  c #875BCD",
"'  c #875BCE",
"]  c #875BCF",
"[  c #885BCF",
"{  c #885CD0",
"}  c #895CD2",
"|  c #895CD3",
" . c #8A5CD3",
".. c #8B5DD5",
"X. c #8B5DD6",
"o. c #8C5DD7",
"O. c #8C5ED8",
"+. c #8D5ED9",
"@. c #8D5EDA",
"#. c #8F5FDE",
"$. c #9361E5",
"%. c #9562E9",
"&. c #9662EB",
"*. c #9763ED",
"=. c #9964F1",
"-. c #9964F2",
";. c #9A64F4",
":. c #9B64F5",
">. c #9C65F9",
",. c #9D65F9",
"<. c #9D65FA",
"1. c #9E66FB",
"2. c #9E66FD",
"3. c #A067FF",
"4. c #A267FF",
"5. c #A268FF",
"6. c #A368FF",
"7. c #A469FF",
"8. c #A569FF",
"9. c #A56AFF",
"0. c #A66AFF",
"q. c #A76AFF",
"w. c #A86AFF",
"e. c #A96BFF",
"r. c #AA6BFF",
"t. c #AA6CFF",
"y. c #AB6CFF",
"u. c #AC6CFF",
"i. c #AD6DFF",
"p. c #AF6DFF",
"a. c #AF6EFF",
"s. c #B06EFF",
"d. c #B16EFF",
"f. c #B16FFF",
"g. c #B26FFF",
"h. c #B36FFF",
"j. c #B370FF",
"k. c #B470FF",
"l. c #B570FF",
"z. c #B671FF",
"x. c #B771FF",
"c. c #B872FF",
"v. c #B972FF",
"b. c #BA72FF",
"n. c #BB73FF",
"m. c #BC73FF",
"M. c #BE74FF",
"N. c #C075FF",
"B. c #C175FF",
"V. c #C276FF",
"C. c #C477FF",
"Z. c #C577FF",
"A. c #C677FF",
"S. c #C678FF",
"D. c #C778FF",
"F. c #C878FF",
"G. c #C979FF",
"H. c #CA79FF",
"J. c #CB79FF",
"K. c #CB7AFF",
"L. c #CC7AFF",
"P. c #CD7AFF",
"I. c #CE7AFF",
"U. c #CE7BFF",
"Y. c #CF7BFF",
"T. c #D07BFF",
"R. c #D07CFF",
"E. c #D17CFF",
"W. c #D27CFF",
"Q. c #D37DFF",
"!. c #D57EFF",
"~. c #D67EFF",
"^. c #D87FFF",
"/. c #DF81FF",
"(. c #DF82FF",
"). c #E483FF",
"_. c #E584FF",
"`. c #F088FF",
"'. c #FD8DFF",
"]. c #FE8EFF",
"[. c #FF8EFF",
"{. c #FF8FFF",
"}. c #FF90FF",
"|. c #FF91FF",
" X c #FF92FF",
".X c #FF93FF",
"XX c #FF94FF",
"oX c #FF95FF",
"OX c #FF96FF",
"+X c #FF97FF",
"@X c #FF9AFF",
"#X c #FF9BFF",
"$X c #FF9CFF",
"%X c #FF9EFF",
"&X c #FF9FFF",
"*X c #FFA1FF",
"=X c #FFA2FF",
"-X c #FFA3FF",
";X c #FFA4FF",
":X c #FFA5FF",
">X c #FFA6FF",
",X c #FFA7FF",
"<X c #FFA8FF",
"1X c #FFAAFF",
"2X c #FFADFF",
"3X c #FFCEFF",
"4X c #FFCFFF",
"5X c #FFD3FF",
"6X c #FFE0FF",
"7X c #FFE2FF",
"8X c #FFE4FF",
"9X c #FFE6FF",
"0X c #FFE7FF",
"qX c #FFE9FF",
"wX c #FFEAFF",
"eX c None",
/* pixels */
"eXeXeXeXeXeXeXeXeXeXeXeXeXeXeXeXeXeXeXeXeXeXeXeXeXeXeXeXeXeXeXeXeXeXeXeXeXeXeXeXeXeXeXeXeXeXeXeXeXeXeXeXeXeXeXeXeXeXeXeXeXeXeXeX",
"eXeXeXeXeXeXeXeXeXeXeXeXeXeXeXeXeXeXeXeXeXeXeXeXeXeXeXeXeXeXeXeXeXeXeXeXeXeXeXeXeXeXeXeXeXeXeXeXeXeXeXeXeXeXeXeXeXeXeXeXeXeXeXeX",
"eXeXeXeXeXeXeXeXeXeXeXeXeXeXeXeXeXeXeXeXeXeXeXeXeXeXeXeXeXeXeXeXeXeXeXeXeXeXeXeXeXeXeXeXeXeXeXeXeXeXeXeXeXeXeXeXeXeXeXeXeXeXeXeX",
"eXeXeXeXeXeXeXeXeXeXeXeXeXeXeXeXeXeXeXeXeXeXeXeXeXeXeXeXeXeXeXeXeXeXeXeXeXeXeXeXeXeXeXeXeXeXeXeXeXeXeXeXeXeXeXeXeXeXeXeXeXeXeXeX",
"eXeXeXeXeXeXeXeXeXeXeXeXeXeXeXeXeXeXeXeXeXeXeXeXeXeXeXeXeXeXeXeXeXeXeXeXeXeXeXeXeXeXeXeXeXeXeXeXeXeXeXeXeXeXeXeXeXeXeXeXeXeXeXeX",
"eXeXeXeXeXeXeXeXeXeXeXeXeXeX                                eXeXeXeXeXeXeXeXeXeXeXeXeXeXeXeXeXeXeXeXeXeXeXeXeXeXeXeXeXeXeXeXeXeX",
"eXeXeXeXeXeXeXeXeXeXeXeXeXeX                                eXeXeXeXeXeXeXeXeXeXeXeXeXeXeXeXeXeXeXeXeXeXeXeXeXeXeXeXeXeXeXeXeXeX",
"eXeXeXeXeXeXeXeXeXeXeXeXeXeX                                eXeXeXeXeXeXeXeXeXeXeXeXeXeXeXeXeXeXeXeXeXeXeXeXeXeXeXeXeXeXeXeXeXeX",
"eXeXeXeXeXeXeXeXeXeXeX            u ] E W W W W W W W E W (                                               eXeXeXeXeXeXeXeXeXeXeX",
"eXeXeXeXeXeXeXeXeXeXeX            7 U V Z V V Z V V Z V Z K                                               eXeXeXeXeXeXeXeXeXeXeX",
"eXeXeXeXeXeXeXeXeXeXeX            7 U V D D D D D D D Z D K                                               eXeXeXeXeXeXeXeXeXeXeX",
"eXeXeXeXeXeXeXeX                  9 U Z D D D D D D D D D V 3.e.0.e.e.e.e.e.e.w.w.w.w.w.w.w.w.w.w.w.0.y.2.      eXeXeXeXeXeXeXeX",
"eXeXeXeXeXeXeXeX                  9 U Z D D D D D D D D D V y.x.l.l.x.x.x.x.x.x.l.l.l.l.l.l.l.l.l.l.l.b.y.      eXeXeXeXeXeXeXeX",
"eXeXeXeXeXeXeXeX                  9 U Z D D D D D D D D D V y.x.l.h.f.f.f.f.f.h.l.l.l.l.l.l.l.l.l.l.d.l.0.      eXeXeXeXeXeXeXeX",
"eXeXeXeXeXeXeXeX                  9 U Z D F F D D D D F F F  .@.] 5.l.h.h.h.h.p.@.X.o.o.o.o.o.o.| *.h.l.w.      eXeXeXeXeXeXeXeX",
"eXeXeXeXeXeXeXeX                  9 U V P T T P V V Z T T T V N g :.x.f.f.a.d.y.Z m V V V V V V c | f.h.7.      eXeXeXeXeXeXeXeX",
"eXeXeXeXeXeXeXeX                  9 U G w : ; i [ / R 1 1 < b K m >.x.d.x.N.V.v.V v m m m m m N g @.V.V.h.      eXeXeXeXeXeXeXeX",
"eXeXeXeXeXeXeXeX                  9 W s R.XXOXB.    % }. X X&.v N >.l.x.;.$ - 2 %.*.*.*.*.*.*.%.=.} * 1 #       eXeXeXeXeXeXeXeX",
"eXeXeXeXeXeXeXeX                  9 ^ = 2XwXwX#X      wXwXwXl.r Z >.l.M.V       d.b.l.x.x.x.x.l.V./             eXeXeXeXeXeXeXeX",
"eXeXeXeXeXeXeXeX                  s O.0 >XwXwXXX      8XqXwXs.t Z >.l.M.S       u.l.d.f.f.f.f.a.m.!             eXeXeXeXeXeXeXeX",
"eXeXeXeXeXeXeXeX  eX              . 9   *XwXwXOX      0XwXwXs.t Z >.l.b.|       p.l.h.h.h.h.h.d.b.#.            eXeXeXeXeXeXeXeX",
"eXeXeXeXeXeXeXeXeXeXeX                  }.wXwXOX      0XwXwXs.t Z >.x.d.l.b.b.v.h.h.h.h.h.h.h.h.h.l.v.M.p.      eXeXeXeXeXeXeXeX",
"eXeXeXeXeXeXeXeXeXeXeX                  |.wXwXoX      0XwXwXd.t Z >.x.f.h.f.h.h.h.h.h.h.h.h.h.h.h.h.d.l.0.      eXeXeXeXeXeXeXeX",
"eXeXeXeXeXeXeXeXeXeXeX                  |.wXwX+X      0XwXwXd.t Z >.x.f.h.f.h.h.h.h.h.h.h.h.h.h.h.h.d.l.0.      eXeXeXeXeXeXeXeX",
"eXeXeXeXeXeXeXeXeXeXeX                  |.wX0X6X3X4X5X0XwXwXs.t Z >.x.f.h.h.h.h.h.h.h.h.h.h.h.h.h.h.h.x.e.      eXeXeXeXeXeXeXeX",
"eXeXeXeXeXeXeXeXeXeXeX                  }.wX7XwXwXwXwX9X0XwXs.t Z >.x.f.h.h.h.h.h.h.h.h.h.h.h.h.h.h.f.x.e.      eXeXeXeXeXeXeXeX",
"eXeXeXeXeXeXeXeXeXeXeX                  OXwXwXwXwXwXwXwXwXwXl.t Z >.x.f.h.h.h.h.h.h.h.h.h.h.h.h.h.h.f.x.e.      eXeXeXeXeXeXeXeX",
"eXeXeXeXeXeXeXeXeXeXeX                  } _.Q.~.~.~.~.~.~.^.+.B M >.x.f.h.h.h.h.h.h.h.h.h.h.h.h.h.h.f.l.w.      eXeXeXeXeXeXeXeX",
"eXeXeXeXeXeXeXeXeXeXeX                    y 2 5 5 5 5 5 5 4 n K v :.l.d.f.h.h.h.d.a.d.d.d.d.d.d.d.d.a.h.7.      eXeXeXeXeXeXeXeX",
"eXeXeXeXeXeXeXeXeXeXeX                    { P Y Y Y Y Y T T F D v 2.m.l.l.h.h.h.M.N.N.N.N.N.N.N.N.N.M.V.h.      eXeXeXeXeXeXeXeX",
"eXeXeXeXeXeXeXeXeXeXeXeXeXeXeXeXeX        / V D D D D D D D D D N #.2.;.5.h.l.u.q 4 6 7 7 7 6 6 6 6 6 q :       eXeXeXeXeXeXeXeX",
"eXeXeXeXeXeXeXeXeXeXeXeXeXeXeXeXeX        ! N D D D D G G G H H L Z B l O.z.c.6.                                eXeXeXeXeXeXeXeX",
"eXeXeXeXeXeXeXeXeXeXeXeXeXeXeXeXeX        o.I I D D S M M M j h h h x p ' d.d.1.                                eXeXeXeXeXeXeXeX",
"eXeXeXeXeXeXeXeXeXeXeXeXeXeXeXeXeXeX    & 3 , e K S J ..X...=.<.,.,.<.-.t.H.P.n.              X           eXeXeXeXeXeXeXeXeXeXeX",
"eXeXeXeXeXeXeXeXeXeXeXeXeXeXeXeXeXeXeXeX8.      ) v ` Y.W.P.%X>X:X:X:X:X:X;X;X:X>X>X1X      ).eXeXeXeXeXeXeXeXeXeXeXeXeXeXeXeXeX",
"eXeXeXeXeXeXeXeXeXeXeXeXeXeXeXeXeXeXeXeX9.      ) v ` U.U.L.$X:X;X;X;X;X;X;X;X;X;X;X<X      /.eXeXeXeXeXeXeXeXeXeXeXeXeXeXeXeXeX",
"eXeXeXeXeXeXeXeXeXeXeXeXeXeXeXeXeXeXeXeX4.      / v _ P.U.J.#X:X=X;X;X;X;X;X;X;X=X=X<X      /.eXeXeXeXeXeXeXeXeXeXeXeXeXeXeXeXeX",
"eXeXeXeXeXeXeXeXeXeXeXeXeXeX                    ) v ` U.U.L.$X:X;X;X;X;X;X;X;X;X;X;X<X      (.eXeXeXeXeXeXeXeXeXeXeXeXeXeXeXeXeX",
"eXeXeXeXeXeXeXeXeXeXeXeXeXeX                    / v ` U.U.L.$X:X;X;X;X;X;X;X;X;X;X;X<X      eXeXeXeXeXeXeXeXeXeXeXeXeXeXeXeXeXeX",
"eXeXeXeXeXeXeXeXeXeXeXeXeXeX                    ) v ` U.U.L.$X:X;X;X;X;X;X;X;X;X;X;X<X      eXeXeXeXeXeXeXeXeXeXeXeXeXeXeXeXeXeX",
"eXeXeXeXeXeXeXeXeXeXeXeXeXeX      1 V j c c c m G N ` U.U.L.$X:X;X;X;X;X;X;X;X;X;X;X<X      eXeXeXeXeXeXeXeXeXeXeXeXeXeXeXeXeXeX",
"eXeXeXeXeXeXeXeXeXeXeXeXeXeX      5.V.b.M.m.V.0.v C _ P.I.J.@X:X=X=X-X-X-X-X-X-X=X=X<X      eXeXeXeXeXeXeXeXeXeXeXeXeXeXeXeXeXeX",
"eXeXeXeXeXeXeXeXeXeXeXeXeXeX      5.V.m.x.h.x.3.N N ' Q.!.E.&X<X:X,X>X>X>X>X>X>X:X:X1X      eXeXeXeXeXeXeXeXeXeXeXeXeXeXeXeXeXeX",
"eXeXeXeXeXeXeXeXeXeXeXeXeXeX      - c e #.3.3.$.V A Q a.s.i.`.{.'.}..X X.X.X.X.X[.]. X      eXeXeXeXeXeXeXeXeXeXeXeXeXeXeXeXeXeX",
"eXeXeXeXeXeXeXeXeXeXeXeXeXeX              U j m D D S x z h 3.i.q.n.G.A.S.A.F.C.r.w.d.      eXeXeXeXeXeXeXeXeXeXeXeXeXeXeXeXeXeX",
"eXeXeXeXeXeXeXeXeXeXeXeXeXeX               .U U D D D A A B r.x.f.C.Q.T.T.T.E.U.l.k.n.      eXeXeXeXeXeXeXeXeXeXeXeXeXeXeXeXeXeX",
"eXeXeXeXeXeXeXeXeXeXeXeXeXeX  eXeX        f 4 d K D D / ~ ! y.z.d.B.J.H.J.J.K.F.g.h.b.      eXeXeXeXeXeXeXeXeXeXeXeXeXeXeXeXeXeX",
"eXeXeXeXeXeXeXeXeXeXeXeXeXeXeXeXeXeX            / m ! h.h.h.h.f.f.d.d.d.h.h.h.h.h.h.v.      eXeXeXeXeXeXeXeXeXeXeXeXeXeXeXeXeXeX",
"eXeXeXeXeXeXeXeXeXeXeXeXeXeXeXeXeXeX            / m ! h.h.h.h.h.h.h.h.h.h.h.h.h.h.h.v.      eXeXeXeXeXeXeXeXeXeXeXeXeXeXeXeXeXeX",
"eXeXeXeXeXeXeXeXeXeXeXeXeXeXeXeXeXeX            / m ! h.h.h.l.l.l.l.l.l.l.j.k.j.h.h.v.      eXeXeXeXeXeXeXeXeXeXeXeXeXeXeXeXeXeX",
"eXeXeXeXeXeXeXeXeXeXeXeXeXeXeXeXeXeXeXeXeX      / m ! d.h.l.              o.W | d.h.v.      eXeXeXeXeXeXeXeXeXeXeXeXeXeXeXeXeXeX",
"eXeXeXeXeXeXeXeXeXeXeXeXeXeXeXeXeXeXeXeXeX      / m W p.d.h.              W c K i.d.l.      eXeXeXeXeXeXeXeXeXeXeXeXeXeXeXeXeXeX",
"eXeXeXeXeXeXeXeXeXeXeXeXeXeXeXeXeXeXeXeXeX      / m / M.N.Z.              ~ N ! m.N.D.      eXeXeXeXeXeXeXeXeXeXeXeXeXeXeXeXeXeX",
"eXeXeXeXeXeXeXeXeXeXeXeXeXeXeXeXeXeXeXeXeX      ~ D k       eXeXeXp       ! D v       eXeXeXeXeXeXeXeXeXeXeXeXeXeXeXeXeXeXeXeXeX",
"eXeXeXeXeXeXeXeXeXeXeXeXeXeXeXeXeXeXeXeXeX      W D 8       eXeXeXeX      E D e       eXeXeXeXeXeXeXeXeXeXeXeXeXeXeXeXeXeXeXeXeX",
"eXeXeXeXeXeXeXeXeXeXeXeXeXeXeXeXeXeXeXeXeX      o.] a       eXeXeXeX      o.] j       eXeXeXeXeXeXeXeXeXeXeXeXeXeXeXeXeXeXeXeXeX",
"eXeXeXeXeXeXeXeXeXeXeXeXeXeXeXeXeXeXeXeXeX      +   @ eXeXeXeXeXeXeX      o   O eXeXeXeXeXeXeXeXeXeXeXeXeXeXeXeXeXeXeXeXeXeXeXeX",
"eXeXeXeXeXeXeXeXeXeXeXeXeXeXeXeXeXeXeXeXeX            eXeXeXeXeXeXeX            eXeXeXeXeXeXeXeXeXeXeXeXeXeXeXeXeXeXeXeXeXeXeXeX",
"eXeXeXeXeXeXeXeXeXeXeXeXeXeXeXeXeXeXeXeXeX            eXeXeXeXeXeXeX            eXeXeXeXeXeXeXeXeXeXeXeXeXeXeXeXeXeXeXeXeXeXeXeX",
"eXeXeXeXeXeXeXeXeXeXeXeXeXeXeXeXeXeXeXeXeXeX        > eXeXeXeXeXeXeX  eX      eXeXeXeXeXeXeXeXeXeXeXeXeXeXeXeXeXeXeXeXeXeXeXeXeX",
"eXeXeXeXeXeXeXeXeXeXeXeXeXeXeXeXeXeXeXeXeXeXeXeXeXeXeXeXeXeXeXeXeXeXeXeXeXeXeXeXeXeXeXeXeXeXeXeXeXeXeXeXeXeXeXeXeXeXeXeXeXeXeXeX",
"eXeXeXeXeXeXeXeXeXeXeXeXeXeXeXeXeXeXeXeXeXeXeXeXeXeXeXeXeXeXeXeXeXeXeXeXeXeXeXeXeXeXeXeXeXeXeXeXeXeXeXeXeXeXeXeXeXeXeXeXeXeXeXeX",
"eXeXeXeXeXeXeXeXeXeXeXeXeXeXeXeXeXeXeXeXeXeXeXeXeXeXeXeXeXeXeXeXeXeXeXeXeXeXeXeXeXeXeXeXeXeXeXeXeXeXeXeXeXeXeXeXeXeXeXeXeXeXeXeX",
"eXeXeXeXeXeXeXeXeXeXeXeXeXeXeXeXeXeXeXeXeXeXeXeXeXeXeXeXeXeXeXeXeXeXeXeXeXeXeXeXeXeXeXeXeXeXeXeXeXeXeXeXeXeXeXeXeXeXeXeXeXeXeXeX"
};
