/* XPM */
static char *Hy8MNZ_removebg_preview1657712297[] = {
/* columns rows colors chars-per-pixel */
"64 62 60 1 ",
"  c None",
". c #000201",
"X c #000D00",
"o c #001300",
"O c #001A00",
"+ c #010013",
"@ c #002500",
"# c #002D00",
"$ c #003300",
"% c #003C00",
"& c #040025",
"* c #080034",
"= c #09003D",
"- c #004300",
"; c #004A00",
": c #0A0046",
"> c #0C0052",
", c #0D005B",
"< c #0F0068",
"1 c #10006C",
"2 c #110073",
"3 c #120079",
"4 c #140087",
"5 c #15008E",
"6 c #160093",
"7 c #17009C",
"8 c #18009F",
"9 c #1900A5",
"0 c #1900AB",
"q c #1B00B4",
"w c #1C00BA",
"e c #1D00C1",
"r c #1F00CC",
"t c #1F00D2",
"y c #2000D5",
"u c #2100DB",
"i c #2200E6",
"p c #2400ED",
"a c #2400F2",
"s c #2700FF",
"d c #2B00FF",
"f c #3300FF",
"g c #3B00FF",
"h c #4300FF",
"j c #4D00FF",
"k c #5400FF",
"l c #5C00FF",
"z c #6300FF",
"x c #6B00FF",
"c c #7400FF",
"v c #7B00FF",
"b c #8300FF",
"n c #8C00FF",
"m c #9300FF",
"M c #9C00FF",
"N c #A300FF",
"B c #AC00FF",
"V c #B300FF",
"C c #BC00FF",
"Z c #C500FF",
/* pixels */
"                                 ;;;;;;;;                       ",
"                               $;flkkxvf;                       ",
"                              ;;;lmbcVZx                        ",
"                             dgjlxvnNbcj                        ",
"            ;;              ;dzcnvzBZx                          ",
"           %vz;            0glccvnVbcj                          ",
"          ;%ZM;           ;dxxbbcNZc;                           ",
"         $zxZm;           ;ulzvvcMZv;          -------          ",
"        ;@mnZm;;         %;fxcnnbBZv;          ;;;;;;;;         ",
"        -#bvMnbz-        -;$2qddigzq;         ;fhlzzzzx$        ",
"        -#nvcbZm;;      %;;;;;;;;;;;;        ;;jzvnbnvn-;       ",
"        ;#nvvbmnnz     -;ixlzlxg;0hfho      ;dhxcvvvvNVbb%      ",
"        ;#nvvvcnZn;   ;;;fmvbbnk;glkzo;;;  -;jzvbvvvcCZZZ$;     ",
"        ;$xzvvvbZb;%;rxzzxvcccbj;dkjjhggh#;-;hlcvvvNVhdff-;     ",
"        ;#xzbbvnZb;;;qmvbbvvccbj;fkjjkkkz@;;;kxccccCZ%;;;;      ",
"         %#.xlzl,fxzzxvcccvcvvbj;fkjjjjjjhh@-#%nCBVg7%%         ",
"          ;%xzxk;.Mbbbcvcvvvvcbk;fkjjjkjjjzX--;nZZC$;           ",
"           %#$#$%$Ogvcvcvvcvvcbj;fkjjjjjjjko-ouoXo.%            ",
"            ;;;--;;7mvvvcvvvcvnk;dkjkjjjkjlo;2h-;;-             ",
"             -;XmmMx%hvcvvccbl$dhjkjjjjjk7%&eyd%;-              ",
"             %;*VNVb;fnvvcvcbj;skjjjjkkklo;3dpf%;%              ",
"            ;@MmNMNMMx%hbvcnMMmbxcclka%#$.rpssd7s%;             ",
"-%          ;:VNNNNNVb;gbcxmVBVNbbnxj<;%;&fsssssf%;-            ",
";%BB        ;XBMNNNNBb;gvbBv-@#$$#-kbj+teasssssif%;-            ",
";%ZC#%      ;.BNNNNNBb;gvnCc;;;;;;;lMk7ddsssssspf%--            ",
";%bbCB-;;;;ONMNNNNNNNNmBZv;@O$-,hfg>-fkfusssssssdyd-;;;;;       ",
";$bvZV#%$%;OBNNNNNNNNNNBZc;$.#-0hgjo;fzgtssssssssaf%;-;--       ",
";%bvvbCCZM;OBMNNNNNNNBZb;#O@O$;=hfgfhO;fkfidssdsspf-;jlkz%;     ",
";%nbvbZZZN;@BBBBBBBNMBZv;$o@O#;4hgggjO;flfadssssspf%;kllz$;     ",
" %%@bvbvbc;-#@@@@@%kBBZv;$o@o$--%--%%%;flO;2dssssaf%;cvvvlz%    ",
" %;%bvvvbx;-%----%;gVBZv;$o@O$;-;-%%$-;fz5%3dsdsdsf-;cbvblz%;   ",
" %;%zzvvbc;-fsdddsd6%5zf;-%%----;jvxvg;vZBVg;%----%-;xbvvvb%;   ",
"   %llvvbx;%fasssad3;Olf;-$%--%%;hczcg;vZBBj%@@#@@#-;cbvbvn@%%  ",
"    ;$xkzk;%fpsssssdaflf;Ojgggj9;hczvf;vZBNNBBBBBBBO;NZZZvvbn%; ",
"    ;%zklj;-fpssssssifkf;Ohgggh3;hczcg;bZBMNNNNNNNBO;MZCCbvvb$;%",
"      ;---;%fssssssssdtgzf;ohghw;hbg;vZBNNNNNNNNNNBO;%%%#VZvb%;-",
"       ;;;;-dudsssssssufkf->hfg3;hvg;bZNmNNNNNNNNMNO;;;;-BVbb%--",
"           -;%fpsssssssd8kMl;;;;;;;cCnvg;vVNNNNNB.;      -$ZZ%; ",
"           -;%fisssssaea.jbk-#$$#@-vBbbg;bBMNNNNBX;       %BB%; ",
"           -;%fsssssf.;%;1jznbbMVBBmccbg;bVNNNNNV:;        --;; ",
"            ;%s7dssir+$#%akzccxbmMMnccbh%cmMNNNmmO;          ;; ",
"            %-;%dpf2;olkkkjjjjld;jbcvcvvnf;bVNV*;-              ",
"            %-;%fye&$6kjjjjjjjhd$lbcvvvcvh%xMmmX;-              ",
"           -;;;-g2;olkjjjkjjkd;knvcvcvvvvbm8;--;;;;             ",
"           %.oXXyo-okjjjjjjjkf;jbccvvcvcvcvgO$%$$$#%            ",
"          ;$CZZb;;-Xzjkjkjjjkf;kbcvvvvcvcvbbM.;jxzx$;           ",
"         #6gVBCn%#-#hhjjjjjjkf;jbcvcvvccvxzzxf,lzlx.#           ",
"       ;;%ZCccccxk;;;@lkkkjjkf;kbvvvcvbbmq;;;bZnvbbzx$;         ",
"      khdhVNvvbclh;-;#hgghkhkf;jvcvcvxzzx1;%;bZnvvbzx$;         ",
"     9ZZZCccvvbczk;- -;;;Xzklg;knbbvmf;;;;%-;nZnxvvvn#;         ",
"      vnVNvvvvczhg;    %;Ohfh0;fxzzlxi;--  -;lbnmbvvn#;         ",
"      ;;nvbnnvzj;;       ;;;;;;;;;;;;;%     -;;mZbcvn#;         ",
"       Oxzzzzlhh         %;qzgtddq2#;-        ;lbnMvn#;         ",
"        ;;;;;;;;          ;vZBbnncxf;-         ;;mZnm@;         ",
"                          ;vZMcvvzlt;-          ;mZxz$          ",
"                         -;cZNcvbcxd;           ;MZ%;           ",
"                         jcbVnccckgo;           ;zv#-           ",
"                        ;xZBzvnczs;;             ;;-            ",
"                       jcbNnvcljhX-%                            ",
"                      ;xZVcbmk;;;;                              ",
"                      ;fvxklzf;--                               ",
"                      ;;;;;;;;$                                 "
};
