/* XPM */
static char *result[] = {
/* columns rows colors chars-per-pixel */
"64 64 66 1 ",
"  c black",
". c #050225",
"X c #100547",
"o c #110549",
"O c #17095C",
"+ c #1B0A65",
"@ c #1E0D6E",
"# c #1F0D71",
"$ c #200E74",
"% c #220F7B",
"& c #261185",
"* c #271289",
"= c #29138C",
"- c #2B1493",
"; c #2E169C",
": c #3017A2",
"> c #3218A6",
", c #3319AA",
"< c #361BB2",
"1 c #3A1DBD",
"2 c #3C1FC5",
"3 c #3F20CB",
"4 c #4021CD",
"5 c #4222D3",
"6 c #4524DC",
"7 c #4725E2",
"8 c #4826E5",
"9 c #4A27EA",
"0 c #4B28EE",
"q c #4D29F3",
"w c #4F2AF9",
"e c #542DFF",
"r c #582FFF",
"t c #5B31FF",
"y c #6336FF",
"u c #6738FF",
"i c #6B3BFF",
"p c #703EFF",
"a c #7641FF",
"s c #7B45FF",
"d c #8047FF",
"f c #8349FF",
"g c #8A4EFF",
"h c #8E50FF",
"j c #9454FF",
"k c #9957FF",
"l c #9D59FF",
"z c #A35DFF",
"x c #A85FFF",
"c c #AC62FF",
"v c #B266FF",
"b c #B668FF",
"n c #BB6BFF",
"m c #C26FFF",
"M c #C672FF",
"N c #CC75FF",
"B c #D37AFF",
"V c #DA7EFF",
"C c #DE80FF",
"Z c #E383FF",
"A c #E886FF",
"S c #ED89FF",
"D c #F38DFF",
"F c #FC93FF",
"G c #FF99FF",
"H c None",
/* pixels */
"HHHHHHHHHHHHHHHHHHHHHHHHHHHHHHHHH         HHHHHHHHHHHHHHHHHHHHHH",
"HHHHHHHHHHHHHHHHHHHHHHHHHHHHHHHH          HHHHHHHHHHHHHHHHHHHHHH",
"HHHHHHHHHHHHHHHHHHHHHHHHHHHHHHH   gckcSC  HHHHHHHHHHHHHHHHHHHHHH",
"HHHHHHHHHHHHHHHHHHHHHHHHHHHHH     cMnNDV HHHHHHHHHHHHHHHHHHHHHHH",
"HHHHHHHHHHHH  HHHHHHHHHHHHHH  tskxcnFD7 HHHHHHHHHHHHHHHHHHHHHHHH",
"HHHHHHHHHHH    HHHHHHHHHHHH   flvnmMDB HHHHHHHHHHHHHHHHHHHHHHHHH",
"HHHHHHHHHH  VV  HHHHHHHHHH  tfcbvMFAw HHHHHHHHHHHHHHHHHHHHHHHHHH",
"HHHHHHHHHH  FF  HHHHHHHHHH  skcnvmGD  HHHHHHHHHHHHHHHHHHHHHHHHHH",
"HHHHHHHHH fvGD  HHHHHHHHHH  slbnvMGF HHHHHHHHHHH        HHHHHHHH",
"HHHHHHHH  zMFAt  HHHHHHHHH  tskzkcAV HHHHHHHHHHH         HHHHHHH",
"HHHHHHHH  lmmNDV  HHHHHHH            HHHHHHHHHH tskzlllf  HHHHHH",
"HHHHHHHH  lncnFD9 HHHHHH              HHHHHHHH  fznnnnNv   HHHHH",
"HHHHHHHH  znnnnMDB HHHH   fxllch  tui6 HHHHH  rfcvvbvnFFFC  HHHH",
"HHHHHHHH  kbvbcbGD  HH    xbvbbc  iffp    H   skcnbnnNADFV  HHHH",
"HHHHHHHH  szvnbnGD    fzlzccvcvl  ufssuyu8    skcbvnFDt    HHHHH",
"HHHHHHHHH tfcvcnSVX   xnvbvvvvbl  ufssssfi    rgnnbMDV    HHHHHH",
"HHHHHHHHHH  fkkg Xkxlzcvcvvvvcvc  ufssasssie    SGGD8  HHHHHHHHH",
"HHHHHHHHHH  tsst  gcvHvcvvvvvvbl  ufHHssssfi    VDDB  HHHHHHHHHH",
"HHHHHHHHHHH         cbvvvvcbvvbc  ufHHHsssfu   %     HHHHHHHHHHH",
"HHHHHHHHHHHH        kccvvvbcvvch  ifsHsssapt  2&    HHHHHHHHHHHH",
"HHHHHHHHHHHHH   vNBn  xbcvvvvz  rissssfsfi  $>6@   HHHHHHHHHHHHH",
"HHHHHHHHHHHH   <BAAB2 hxvcvcbc* sgffssiuur  <65;   HHHHHHHHHHHHH",
" HHHHHHHHHHH  vBVZVCBb* xvcbVVVNvvvcfu    .>2442;   HHHHHHHHHHHH",
"    HHHHHHHH  NAVZZZAN  znvvNNNNxlzkgi    >744427*  HHHHHHHHHHHH",
"  CV  HHHHHH  MZVZZZZM  lvCN        xc6O,>2444425X   HHHHHHHHHHH",
"  DD6  HHHH  2NAZZZVANq*cMNv        gkt3654444415%   HHHHHHHHHHH",
"  cNSB      cBVZZZZZZCNNFSq     -09<  ua2254244542-    HHHHHHHHH",
"  knFSe     NZCCVZZVCZASFV      eyue  wu54442542458=      HHHHHH",
"  xMbNADFV  NAZAAZAAZZFS4       wyytr1  yp755225245*  tssr HHHHH",
"  gccmFGGA  vBNNNNNBVAGD        ;e9qr>  ps,*2222315@  fkkf  HHHH",
"    xnMmMc         qNAGD                yu  <866659*  kbccft HHH",
"H   kvvvbk          bVFZ                fg  ;>;;;;1   xnbvzf HHH",
"HH  szvnnz   1-;;;>:  hf          sjja  CFBv          kvvvbk  HH",
"HHH tfxvbk  &956667,  uy          hzlg  DGSBq         cNmmnx  HH",
"HHHH  fkks  &6231363*,ai  >tq9e>  gzxg  DGAVNNNNNNBv  AGGFnccg H",
"HHHH  tsst  *523333557ay  <ttyuw  fzhf :DFACAAAZZZAN  BFDSNnMc  ",
"HHHHHH      *74434443334ue  eyyr  kj  VFAAZZCCCZCCAN     eDFnk  ",
"HHHHHHH      -2333443533au  >qq<  sf 6SFNNCZZCZCZCBc      BSNx  ",
"HHHHHHHHHHH   %6134433563rkh        vNMc&qNACZZZAN2  HHHHH 9DS  ",
"HHHHHHHHHHH   +5344533>>X8cx        BVvl  MZCZCCZM  HHHHHHH CC  ",
"HHHHHHHHHHH   ;633447;    ihkzlcNBNNbvbl  NSZCZZAN  HHHHHHHH    ",
"HHHHHHHHHHHH   -3343,X    ufcvvbNBVVvcvc =bBVZZVBv  HHHHHHHHH   ",
"HHHHHHHHHHHH    -56<  riiisssfhs *cvvvvcch 1BAAB<  HHHHHHHHHHHHH",
"HHHHHHHHHHHH    @4>#  afsfsssair  zvvvvvbc  nNNv   HHHHHHHHHHHHH",
"HHHHHHHHHHHH    =5  taasssssfi  kxcbvvvvccck       HHHHHHHHHHHHH",
"HHHHHHHHHHH     %   ufsssssafu  xbvvvvvvvvbc        HHHHHHHHHHHH",
"HHHHHHHHHH  VDDV    ifsssssasi  lbvvvvvvvvbvcg  tsat HHHHHHHHHHH",
"HHHHHHHHH  9DGGS    eissssssfi  zvcvvccvvczlxko gklf  HHHHHHHHHH",
"HHHHHH    CDMnnbgr    iffsssfi  zbvvvvbvbc   XVSnvvxft HHHHHHHHH",
"HHHHH    tDFnvbcks    8iyusssu  lbcccvzlzf    DGnvnvxs  HHHHHHHH",
"HHHH  VFDANnnbncks        iffi  cbbbnz        DGncbbvk  HHHHHHHH",
"HHHH  CFFFncbbvcft  HH    8iir  hzllxf        BDMnnbnz  HHHHHHHH",
"HHHHH   vMnMnblf  HHHHHH                 HHHH  9DFnvnl  HHHHHHHH",
"HHHHHH  fzllzkst HHHHHHHH              HHHHHHH  VDNnnl  HHHHHHHH",
"HHHHHHH         HHHHHHHHHH  VAckzkft  HHHHHHHHH  tAFNz  HHHHHHHH",
"HHHHHHHH       HHHHHHHHHHH  FGMbnbks  HHHHHHHHH   DGvf HHHHHHHHH",
"HHHHHHHHHHHHHHHHHHHHHHHHHH  DFMvncka HHHHHHHHHHH  FF   HHHHHHHHH",
"HHHHHHHHHHHHHHHHHHHHHHHHH  wAFmvvcft HHHHHHHHHHH  VV  HHHHHHHHHH",
"HHHHHHHHHHHHHHHHHHHHHHHH  VSNMnblf  HHHHHHHHHHHH     HHHHHHHHHHH",
"HHHHHHHHHHHHHHHHHHHHHHHH 8DFbczkft HHHHHHHHHHHHHH   HHHHHHHHHHHH",
"HHHHHHHHHHHHHHHHHHHHHHH CDNnMc    HHHHHHHHHHHHHHHHHHHHHHHHHHHHHH",
"HHHHHHHHHHHHHHHHHHHHHH  CAckcg   HHHHHHHHHHHHHHHHHHHHHHHHHHHHHHH",
"HHHHHHHHHHHHHHHHHHHHHH          HHHHHHHHHHHHHHHHHHHHHHHHHHHHHHHH",
"HHHHHHHHHHHHHHHHHHHHHH        HHHHHHHHHHHHHHHHHHHHHHHHHHHHHHHHHH"
};
