/* XPM */
static char *result[] = {
/* columns rows colors chars-per-pixel */
"64 64 66 1 ",
"  c black",
". c #050225",
"X c #100547",
"o c #110549",
"O c #17095C",
"+ c #1B0A65",
"@ c #1E0D6E",
"# c #1F0D71",
"$ c #200E74",
"% c #220F7B",
"& c #261185",
"* c #271289",
"= c #29138C",
"- c #2B1493",
"; c #2E169C",
": c #3017A2",
"> c #3218A6",
", c #3319AA",
"< c #361BB2",
"1 c #3A1DBD",
"2 c #3C1FC5",
"3 c #3F20CB",
"4 c #4021CD",
"5 c #4222D3",
"6 c #4524DC",
"7 c #4725E2",
"8 c #4826E5",
"9 c #4A27EA",
"0 c #4B28EE",
"q c #4D29F3",
"w c #4F2AF9",
"e c #542DFF",
"r c #582FFF",
"t c #5B31FF",
"y c #6336FF",
"u c #6738FF",
"i c #6B3BFF",
"p c #703EFF",
"a c #7641FF",
"s c #7B45FF",
"d c #8047FF",
"f c #8349FF",
"g c #8A4EFF",
"h c #8E50FF",
"j c #9454FF",
"k c #9957FF",
"l c #9D59FF",
"z c #A35DFF",
"x c #A85FFF",
"c c #AC62FF",
"v c #B266FF",
"b c #B668FF",
"n c #BB6BFF",
"m c #C26FFF",
"M c #C672FF",
"N c #CC75FF",
"B c #D37AFF",
"V c #DA7EFF",
"C c #DE80FF",
"Z c #E383FF",
"A c #E886FF",
"S c #ED89FF",
"D c #F38DFF",
"F c #FC93FF",
"G c #FF99FF",
"H c None",
/* pixels */
"HHHHHHHHHHHHHHHHHHHHHHHHHHHHHHHHH         HHHHHHHHHHHHHHHHHHHHHH",
"HHHHHHHHHHHHHHHHHHHHHHHHHHHHHHHH         HHHHHHHHHHHHHHHHHHHHHHH",
"HHHHHHHHHHHHHHHHHHHHHHHHHHHHHHH   gxkcSC HHHHHHHHHHHHHHHHHHHHHHH",
"HHHHHHHHHHHHHHHHHHHHHHHHHHHHHH    cMbNDV HHHHHHHHHHHHHHHHHHHHHHH",
"HHHHHHHHHHHH  HHHHHHHHHHHHHH  tskzcbFD7 HHHHHHHHHHHHHHHHHHHHHHHH",
"HHHHHHHHHHH    HHHHHHHHHHHHH  fzbmmNDB  HHHHHHHHHHHHHHHHHHHHHHHH",
"HHHHHHHHHH  VV  HHHHHHHHHHH tfcbvmFAw  HHHHHHHHHHHHHHHHHHHHHHHHH",
"HHHHHHHHH   FF  HHHHHHHHHH  alcbbmGD  HHHHHHHHHHHHHHHHHHHHHHHHHH",
"HHHHHHHH  fvGS  HHHHHHHHHH  slbnbMGF  HHHHHHHHHHH      HHHHHHHHH",
"HHHHHHHH  zMFAt  HHHHHHHHH  tskzkcAB  HHHHHHHHHH        HHHHHHHH",
"HHHHHHHH  lnmNDV  HHHHHHHH            HHHHHHHH  tslzllzf  HHHHHH",
"HHHHHHHH  lmcnFD9  HHHH                HHHHHH   fzbnnnMv   HHHHH",
"HHHHHHHH  znbbbMDB         &*&&   bNMc     H  tgcbbbvnFGFV  HHHH",
"HHHHHHHH  kbbbbnGD        -75681  BAZB2       akvbbbnNADFV  HHHH",
"HHHHHHHH  szbbbnGD     -+%34225-  MZZVMMNv    skcbvbFDt    HHHHH",
"HHHHHHHHH tfccvbSV    -75634336;  NAZZZAAB<   tgbnnMDV    HHHHHH",
"HHHHHHHHHH  flkg  %=@;222232516;  NAVZCVCCBv    SGGD9  HHHHHHHHH",
"HHHHHHHHHHH tast   555444244226;  NZZZZZZZZB   XVDDB  HHHHHHHHHH",
"HHHHHHHHHHHH        >6444444467>  MACZZZZCAN  gjo   HHHHHHHHHHHH",
"HHHHHHHHHHHH        #<34544452<; qBAVZZCZVBn  cc   HHHHHHHHHHHHH",
"HHHHHHHHHHHHH   eiut  ,724425*  bBVZCZZZZB2 kccl  HHHHHHHHHHHHHH",
"HHHHHHHHHHHHH   iffa  o;23646<  BSAZZCNNBb  cbHz  HHHHHHHHHHHHHH",
"   HHHHHHHHH  8issssir  ,524aaugFGGGZNq  *jzcbvccf HHHHHHHHHHHHH",
"    HHHHHHHH  igssssfi  ,625ypyfZDDSSB*   zbcvvvbz  HHHHHHHHHHHH",
"  CV  HHHHH   yfassssu  X3au       3FFvlzzvcbvvcbl   HHHHHHHHHHH",
"  SD8  HHH    usssssfi  8tiw        VSnvbbvvvvvvbz    HHHHHHHHHH",
"  cMDB      8issssssssyicl  <>       qNCvcvcvcvvvczf      HHHHHH",
"  kmFSe     ifssssasssfgzh  rt        bNbvvvcbvvvvbz       HHHHH",
"  cMbMSDFB  ifsffsffafcl  >et0          MVbvbvvvvvbl  tast  HHHH",
"  fccMDGGA  riuuuiupsfvz  qyy0          NCczccvcccbl  flkf   HHH",
"H   znMMMc          igvl  qyye          BB* cbbbbbbz  kbvcft HHH",
"H   kbvvbl          rsbz  <re>          NM  jclzzzzj  znbvlf  HH",
"HH  slbbnz  gczzzzzj  MN          ;we-  zbst          lbvvbk   H",
"HHH tfcvbk  zbvvvbbc *BB          euy9  lvgi          cMmmnz    ",
"HHHH  fkls  lbvvcvvvzcVN  akggja  9yu9  zvfsiuuuuuit  ZGGDMccg  ",
"HHHHH tsst  lbcvvvcbvbVN  dkllzh  qte<  kcfafffffsgu  VFDSNbMz  ",
"HHHHHH      zbbvvvvvvvvbNb  jzzj  rr  hzgfsssHHassfi     eDFnk  ",
"HHHHHHHH    fzvvcvvvvvcvVN6 fgga  >1  kciysfHHHsssp6 HHH  BDNc  ",
"HHHHHHHHHH    zbvcvvvvbbbmDV        wut6  ifaHsssu  HHHHHH 7DS  ",
"HHHHHHHHHHH   lbcvvvcvzzlcFF:       ua2O  yssssaft HHHHHHHH VC  ",
"HHHHHHHHHHH   zbvvvcnc   &BADDDZfypy527,  ufssssfu HHHHHHHHH    ",
"HHHHHHHHHHHH  fzcvccch=  qNZFGGFgusp424,  rpasssi8 HHHHHHHHHH   ",
"HHHHHHHHHHHH    cvbc  bNMBVZZASB  ,74542>.  pffi  HHHHHHHHHHHHHH",
"HHHHHHHHHHHH    lvck 1BSZZZZZVBv  *524447>  tuie   HHHHHHHHHHHHH",
"HHHHHHHHHHHH    cc  bBCZCZZCZNq ;,25234442<$        HHHHHHHHHHHH",
"HHHHHHHHHHH    okg  BZCZVZCCZN  ,8424444446>        HHHHHHHHHHHH",
"HHHHHHHHHH  BFDVo   BZZZZZZCAN  ;613444444563   esst HHHHHHHHHHH",
"HHHHHHHH   9DGGS    cBVZVZZZAN  ;635241222;@&%  gkkf  HHHHHHHHHH",
"HHHHH     VDMbMbgt   <BAZZZZZN  ;63243557;    VSbcvxft  HHHHHHHH",
"HHHH     tDFbvbcks    vNMNVZZN  ;51343%o*     DGmbbvld  HHHHHHHH",
"HHHH  VFDZNnbbbbla       2BZZB  18648-        DGnvbbbl  HHHHHHHH",
"HHHH  CFGFnbbbvcft HHH    cBNb   *#*=     HH  BDMnbbbz  HHHHHHHH",
"HHHHH   vMmnnbzd  HHHHHHH               HHHHH  8DFmcnl  HHHHHHHH",
"HHHHHH  glllzkst HHHHHHHHH            HHHHHHHH  VDMnml  HHHHHHHH",
"HHHHHHH         HHHHHHHHHH  VZckzkdt  HHHHHHHHH  tAFNl  HHHHHHHH",
"HHHHHHHHH      HHHHHHHHHHH  FGMbnbks HHHHHHHHHHH  DGvf  HHHHHHHH",
"HHHHHHHHHHHHHHHHHHHHHHHHHH  DFmvbvla HHHHHHHHHHH  FF   HHHHHHHHH",
"HHHHHHHHHHHHHHHHHHHHHHHHHH eSFmbbcfe HHHHHHHHHHH  VC  HHHHHHHHHH",
"HHHHHHHHHHHHHHHHHHHHHHHHH BDMMnbzf  HHHHHHHHHHHHH    HHHHHHHHHHH",
"HHHHHHHHHHHHHHHHHHHHHHHH 9SFnczkst HHHHHHHHHHHHHHH  HHHHHHHHHHHH",
"HHHHHHHHHHHHHHHHHHHHHHH VDNnMc    HHHHHHHHHHHHHHHHHHHHHHHHHHHHHH",
"HHHHHHHHHHHHHHHHHHHHHH  CSckch  HHHHHHHHHHHHHHHHHHHHHHHHHHHHHHHH",
"HHHHHHHHHHHHHHHHHHHHHH        HHHHHHHHHHHHHHHHHHHHHHHHHHHHHHHHHH",
"HHHHHHHHHHHHHHHHHHHHHH       HHHHHHHHHHHHHHHHHHHHHHHHHHHHHHHHHHH"
};
