/* XPM */
static char *result[] = {
/* columns rows colors chars-per-pixel */
"62 64 60 1 ",
"  c #000201",
". c #000D00",
"X c #001300",
"o c #001A00",
"O c #010013",
"+ c #002500",
"@ c #002D00",
"# c #003300",
"$ c #003C00",
"% c #040025",
"& c #080034",
"* c #09003D",
"= c #004300",
"- c #004A00",
"; c #0A0046",
": c #0C0052",
"> c #0D005B",
", c #0F0068",
"< c #10006C",
"1 c #110073",
"2 c #120079",
"3 c #140087",
"4 c #15008E",
"5 c #160093",
"6 c #17009C",
"7 c #18009F",
"8 c #1900A5",
"9 c #1900AB",
"0 c #1B00B4",
"q c #1C00BA",
"w c #1D00C1",
"e c #1F00CC",
"r c #1F00D2",
"t c #2000D5",
"y c #2100DB",
"u c #2200E6",
"i c #2400ED",
"p c #2400F2",
"a c #2700FF",
"s c #2B00FF",
"d c #3300FF",
"f c #3B00FF",
"g c #4300FF",
"h c #4D00FF",
"j c #5400FF",
"k c #5C00FF",
"l c #6300FF",
"z c #6B00FF",
"x c #7400FF",
"c c #7B00FF",
"v c #8300FF",
"b c #8C00FF",
"n c #9300FF",
"m c #9C00FF",
"M c #A300FF",
"N c #AC00FF",
"B c #B300FF",
"V c #BC00FF",
"C c #C500FF",
"Z c None",
/* pixels */
"ZZZZZZZZZZZZZZZZZZZZZZZZZZZZZZZZZ------=ZZZZZZZZZZZZZZZZZZZZZZ",
"ZZZZZZZZZZZZZZZZZZZZZZZZZZZZZZ$$$$$#$$$$ZZZZZZZZZZZZZZZZZZZZZZ",
"ZZZZZZZZZZZZZZZZZZZZZZZZZZZZZZ--$bvvvCNZZZZZZZZZZZZZZZZZZZZZZZ",
"ZZZZZZZZZZZZZZZZZZZZZZZZZZZZZ$$$+vccvVNZZZZZZZZZZZZZZZZZZZZZZZ",
"ZZZZZZZZZZZZZZZZZZZZZZZZZZZ--klvvccCV@ZZZZZZZZZZZZZZZZZZZZZZZZ",
"ZZZZZZZZZZZZ8ZZZZZZZZZZZZZZ$#klccvvBN$ZZZZZZZZZZZZZZZZZZZZZZZZ",
"ZZZZZZZZZZ-cCjZZZZZZZZZZZZ-lzcccvCV@=ZZZZZZZZZZZZZZZZZZZZZZZZZ",
"ZZZZZZZZZo-bCg-ZZZZZZZZZZ-=jjccccCV$-ZZZZZZZZZZZZZZZZZZZZZZZZZ",
"ZZZZZZZZ-zbBCs-ZZZZZZZZZZ-=klvvvvCC#-ZZZZZZZZZZ----==-ZZZZZZZZ",
"ZZZZZZZZ-lcMVg$@ZZZZZZZZZ-=hjzxzxMm$-ZZZZZZZZZ$@#@@@@+#ZZZZZZZ",
"ZZZZZZZZ-lvcxBC5-ZZZZZZZZ------------ZZZZZZZZ-@zzbbbvnl-ZZZZZZ",
"ZZZZZZZZ-lbcxMVf#$=ZZZ====$=$$===+oooZZZZZZZ$$ llccccbz$$ZZZZZ",
"ZZZZZZZZ-lbcccxBV -$$----sddddd$@NNNM----ZZ-@zzvcccxmCCCc-ZZZZ",
"ZZZZZZZZ-kccccxNCX-==$$$$yaiipa=+NmMm .;+$=-#lkvccvvbnnml-ZZZZ",
"ZZZZZZZZ-glxvvxVC.---adddsaaaas=+NMMMNNBm---@zlccxnCv----ZZZZZ",
"ZZZZZZZZ-ghlxxxbv.=$$6auiaaaaas=+NMMMMmMn&.=#jkbvbbnl-ZZZZZZZZ",
"ZZZZZZZZZZ-glkz$-tfdssaaaaaaaas=+NMMMMMMMBn=$->CCCb-=ZZZZZZZZZ",
"ZZZZZZZZZZ-fjgj@-X1tiaaaaaaaapa$+NMMMMMMmMn-# dvvbl-ZZZZZZZZZZ",
"ZZZZZZZZZZZ----===-wdaaaaaaaass-$NMMMMMMMBm-omz---ZZZZZZZZZZZZ",
"ZZZZZZZZZZZZ==-@.XX%1uaaaaaas25fjMMMMMMMmvz6fvl-$ZZZZZZZZZZZZZ",
"ZZZZZZZZZZZZZ--gljk#-edaaaaup-$BNmMMMNNBm-$ncvl--ZZZZZZZZZZZZZ",
"ZZZZZZZZZZZZ=@+ghhj5XO paasddo4NNNNMMvvvzdgcxvz0eZZZZZZZZZZZZZ",
"---ZZZZZZZZZ-gkhjhhjk#-wayrjkklCCCCMn---$bcccxcnz-ZZZZZZZZZZZZ",
"-dzhZZZZZZZ$-fjhhhhhj@$psdfddddcccvNNfffgcxcxcxcl-=ZZZZZZZZZZZ",
"-cCx-ZZZZZZ--fjhjhhhj$- 7jl--------CCccvvccxcxxvl--$ZZZZZZZZZZ",
"-zBvzh=ZZ$-o.gjhhhjhjp<hjddoo==###@xcbvxcxccccxvzdu-=$ZZZZZZZZ",
"-jxMCx-----gljhhhhhhhjhvm=-gh#$XXXo--VNzxcxcxccccnz-----ZZZZZZ",
"-kvbNvxcc0-djghhhhhhhlljk:Xff$$++++#+xcnbxxcccxcxck-#dys9ZZZZZ",
"-lnclBCCCl-gkjjjjjjhhxb=-ggff==oXoo o-=Bmvvxcccxxvl-1zkzf-ZZZZ",
"-djxcbMmNf-9fdddddshhxv@-dfff==##@#@#-+Nmhkcxxcxxvk-0xlzkssZZZ",
"#--kbxxxvr---------gkzv#-fggh$=-=--==-@Bn-#bvvvvvbz-sbcvxlf-ZZ",
"Z=-hxxccbs-djhjhjhjssvm#-2q28$===3*9>-#Mvasjhjhhhjf-sbcvxxh-#Z",
"Z=-glxvcbs-zbcvvvvb#-nB@--------$gggg-#vzjg---------uvxxcbk--Z",
"ZZ-.ajxlx0-lvxcxxxckhmN+-gggggh==fdfd-@vxhhsddddsf9-fNmMbczkd-",
"ZZZ=-fzkz1-lvccccxxvvmN=-cvxxxc$=ffhf-=bxhjjjjjjjkg-lCCCBlcnk-",
"ZZZ$-Xsrd@-kcxcxcccxxbncxfflllz$$fdX:kjzkhhhhhhhhjd-0ccxvNbvj-",
"ZZZZZ------zncxcccxccxxNV--xcxc#$hg-=mvhjhhjhhhhhlg-----xCMxj-",
"ZZZZZZZ===-udzcccxccxxxvbvcfdff=$ooddjh,pjhhhhhjgXXZZZZZhzvBz-",
"ZZZZZZZZZZ$--lvxxccccvvvcCC--------lj6O-$jhhhjhjf-ZZZZZZZZxCc-",
"ZZZZZZZZZZZ=-lvxcxcxcgfffMNvcccddddfdsr$@jhhhhhjf-ZZZZZZZZhzd-",
"ZZZZZZZZZZZ=-zncxcccb$---nMCCCClkkjrysw-#kjjhhhlg-ZZZZZZZZZZ--",
"ZZZZZZZZZZZZ-<0zcxvgdxvvcMMNNNN4oddaaap% X6hhhg+@ZZZZZZZZZZZZZ",
"ZZZZZZZZZZZZ$--lvcn$-nBNBMMmMNB$-puaaaade-$kjlg--ZZZZZZZZZZZZZ",
"ZZZZZZZZZZZ==$-lvf7zvmMmMMMMMhf21ssaaaaai2%XX.+-==ZZZZZZZZZZZZ",
"ZZZZZZZZZZ=----zmo-mBMMMMMMMN$-ssaaaaaaaasw-===----ZZZZZZZZZZZ",
"ZZZZZZZZZZ-kbvvd #=nMMMMMMMMN+$aaaaaaaaaait1X=@jghs-ZZZZZZZZZZ",
"ZZZZZZZZZ--vCCC>-$=nBMMMMMMMN+=saasaaaaasdsgy-$zklg--ZZZZZZZZZ",
"ZZZZZZZZ-knbbbbkh#-.&nMMMMMMN@=aaaaaaiua6$$=Xbbxxczhd-=ZZZZZZZ",
"ZZZZZ----vCnzcclz#---nBNNMMMN+=saaaasddda---.CVxcvxlg-=ZZZZZZZ",
"ZZZZ-lmnnbvvccvkl#-==o;. mMMN+=apiipt$$$$$=-XCNxcccck-=ZZZZZZZ",
"ZZZZ-cCCCmxccvvzz@-ZZ----MNNN@$ddddds=---ZZ= VBxcccbl-=ZZZZZZZ",
"ZZZZ=@$zbccccll #$ZZZZZZZoooo===$$=$====ZZZZ$#fVMccvl-=ZZZZZZZ",
"ZZZZZ=-lnbbbbzz@-ZZZZZZZZ------------ZZZZZZZZ-6CBxcbl-=ZZZZZZZ",
"ZZZZZZZ#+@@@@##ZZZZZZZZZZ-$mMxzxxjh=-ZZZZZZZZZ$$gVMcl-=ZZZZZZZ",
"ZZZZZZZZ-------ZZZZZZZZZZ-$CCvvvckk--ZZZZZZZZZ$-sCBbz-ZZZZZZZZ",
"ZZZZZZZZZZZZZZZZZZZZZZZZZ-$VCcccckj=-ZZZZZZZZZZ-dCv=#ZZZZZZZZZ",
"ZZZZZZZZZZZZZZZZZZZZZZZZZ=@VCvcvcll=-ZZZZZZZZZZ-dCv-ZZZZZZZZZZ",
"ZZZZZZZZZZZZZZZZZZZZZZZZ=NBvccckk#$ZZZZZZZZZZZZ-=#$ZZZZZZZZZZZ",
"ZZZZZZZZZZZZZZZZZZZZZZZ$#BCccbvll--ZZZZZZZZZZZZZ--ZZZZZZZZZZZZ",
"ZZZZZZZZZZZZZZZZZZZZZZ=NCvccv+$$$ZZZZZZZZZZZZZZZZZZZZZZZZZZZZZ",
"ZZZZZZZZZZZZZZZZZZZZZZ=NCvvvb$--ZZZZZZZZZZZZZZZZZZZZZZZZZZZZZZ",
"ZZZZZZZZZZZZZZZZZZZZZ--$$$$#$$ZZZZZZZZZZZZZZZZZZZZZZZZZZZZZZZZ",
"ZZZZZZZZZZZZZZZZZZZZZ----=---ZZZZZZZZZZZZZZZZZZZZZZZZZZZZZZZZZ",
"ZZZZZZZZZZZZZZZZZZZZZZZZZ==$ZZZZZZZZZZZZZZZZZZZZZZZZZZZZZZZZZZ"
};
